%
M48
M72
T01C0.02400
T02C0.02756
T03C0.04000
T04C0.04400
T05C0.13400
%
T01
X168626Y107996
X168626Y127996
T02
X149926Y143232
X128626Y177996
X108626Y160909
X108626Y122996
X153863Y99925
X145989Y198350
X86933Y233783
T03
X46185Y57051
X46185Y67051
X56185Y67051
X56185Y57051
X66185Y57051
X66185Y67051
X158548Y44807
X168548Y44807
X178548Y44807
X188548Y44807
X193626Y67996
X193626Y77996
X193626Y87996
X193626Y97996
X193626Y107996
X193626Y117996
X193626Y127996
X193626Y137996
X193626Y147996
X193626Y157996
X193626Y167996
X193626Y177996
X193626Y187996
X193626Y197996
X193626Y207996
X193626Y217996
T04
X128626Y162996
X128626Y152996
X128626Y142996
X128626Y132996
X128626Y122996
X128626Y112996
X128626Y102996
X128626Y92996
X128626Y82996
X128626Y72996
X128626Y62996
X128626Y52996
X128626Y42996
X128626Y32996
X98626Y32996
X98626Y42996
X98626Y52996
X98626Y62996
X98626Y72996
X98626Y82996
X98626Y92996
X98626Y102996
X98626Y112996
X98626Y122996
X98626Y132996
X98626Y142996
X98626Y152996
X98626Y162996
X113626Y182996
X73626Y182996
X51500Y154807
X51500Y134807
T05
X18200Y187496
X18200Y238496
M30
