%
M48
M72
T01C0.02400
T02C0.02756
T03C0.04000
T04C0.04400
T05C0.13400
%
T01
X168626Y106000
X168626Y126000
T02
X149926Y141236
X128626Y176000
X145989Y196354
X108626Y158913
X108626Y121000
X153863Y97929
X86933Y231787
T03
X46185Y55055
X46185Y65055
X56185Y65055
X56185Y55055
X66185Y55055
X66185Y65055
X158548Y42811
X168548Y42811
X178548Y42811
X188548Y42811
X193626Y66000
X193626Y76000
X193626Y86000
X193626Y96000
X193626Y106000
X193626Y116000
X193626Y126000
X193626Y136000
X193626Y146000
X193626Y156000
X193626Y166000
X193626Y176000
X193626Y186000
X193626Y196000
X193626Y206000
X193626Y216000
T04
X128626Y161000
X128626Y151000
X128626Y141000
X128626Y131000
X128626Y121000
X128626Y111000
X128626Y101000
X128626Y91000
X128626Y81000
X128626Y71000
X128626Y61000
X128626Y51000
X128626Y41000
X128626Y31000
X98626Y31000
X98626Y41000
X98626Y51000
X98626Y61000
X98626Y71000
X98626Y81000
X98626Y91000
X98626Y101000
X98626Y111000
X98626Y121000
X98626Y131000
X98626Y141000
X98626Y151000
X98626Y161000
X113626Y181000
X73626Y181000
X51500Y152811
X51500Y132811
T05
X18200Y185500
X18200Y236500
M30
