G75*
%MOIN*%
%OFA0B0*%
%FSLAX25Y25*%
%IPPOS*%
%LPD*%
%AMOC8*
5,1,8,0,0,1.08239X$1,22.5*
%
%ADD10C,0.07400*%
%ADD11OC8,0.13200*%
%ADD12OC8,0.06800*%
%ADD13C,0.05200*%
%ADD14R,0.07400X0.07400*%
%ADD15C,0.14200*%
%ADD16C,0.06800*%
%ADD17C,0.05156*%
D10*
X0106500Y0031000D03*
X0106500Y0041000D03*
X0106500Y0051000D03*
X0106500Y0061000D03*
X0106500Y0071000D03*
X0106500Y0081000D03*
X0106500Y0091000D03*
X0106500Y0101000D03*
X0106500Y0111000D03*
X0106500Y0121000D03*
X0106500Y0131000D03*
X0106500Y0141000D03*
X0106500Y0151000D03*
X0106500Y0161000D03*
X0121500Y0181000D03*
X0136500Y0161000D03*
X0136500Y0151000D03*
X0136500Y0141000D03*
X0136500Y0131000D03*
X0136500Y0121000D03*
X0136500Y0111000D03*
X0136500Y0101000D03*
X0136500Y0091000D03*
X0136500Y0081000D03*
X0136500Y0071000D03*
X0136500Y0061000D03*
X0136500Y0051000D03*
X0136500Y0041000D03*
X0081500Y0181000D03*
D11*
X0051500Y0141000D03*
X0051500Y0121000D03*
D12*
X0054059Y0055055D03*
X0054059Y0065055D03*
X0064059Y0065055D03*
X0064059Y0055055D03*
X0074059Y0055055D03*
X0074059Y0065055D03*
D13*
X0174300Y0106000D02*
X0178700Y0106000D01*
X0178700Y0126000D02*
X0174300Y0126000D01*
D14*
X0136500Y0031000D03*
D15*
X0018200Y0185500D03*
X0018200Y0236500D03*
D16*
X0198500Y0216000D02*
X0204500Y0216000D01*
X0204500Y0206000D02*
X0198500Y0206000D01*
X0198500Y0196000D02*
X0204500Y0196000D01*
X0204500Y0186000D02*
X0198500Y0186000D01*
X0198500Y0176000D02*
X0204500Y0176000D01*
X0204500Y0166000D02*
X0198500Y0166000D01*
X0198500Y0156000D02*
X0204500Y0156000D01*
X0204500Y0146000D02*
X0198500Y0146000D01*
X0198500Y0136000D02*
X0204500Y0136000D01*
X0204500Y0126000D02*
X0198500Y0126000D01*
X0198500Y0116000D02*
X0204500Y0116000D01*
X0204500Y0106000D02*
X0198500Y0106000D01*
X0198500Y0096000D02*
X0204500Y0096000D01*
X0204500Y0086000D02*
X0198500Y0086000D01*
X0198500Y0076000D02*
X0204500Y0076000D01*
X0204500Y0066000D02*
X0198500Y0066000D01*
D17*
X0161737Y0097929D03*
X0157800Y0141236D03*
X0136500Y0176000D03*
X0153863Y0196354D03*
X0116500Y0158913D03*
X0116500Y0121000D03*
X0082996Y0231787D03*
M02*
