G75*
%MOIN*%
%OFA0B0*%
%FSLAX25Y25*%
%IPPOS*%
%LPD*%
%AMOC8*
5,1,8,0,0,1.08239X$1,22.5*
%
%ADD10C,0.00600*%
%ADD11R,0.02000X0.10000*%
%ADD12R,0.07500X0.03000*%
%ADD13C,0.01000*%
%ADD14C,0.00800*%
%ADD15R,0.03400X0.03000*%
%ADD16C,0.00200*%
%ADD17C,0.00300*%
%ADD18R,0.00180X0.00060*%
%ADD19R,0.00300X0.00060*%
%ADD20R,0.00420X0.00060*%
%ADD21R,0.00240X0.00060*%
%ADD22R,0.00240X0.00060*%
%ADD23R,0.00120X0.00060*%
%ADD24R,0.00060X0.00060*%
%ADD25R,0.00780X0.00060*%
%ADD26R,0.01260X0.00060*%
%ADD27R,0.01500X0.00060*%
%ADD28R,0.02220X0.00060*%
%ADD29R,0.02580X0.00060*%
%ADD30R,0.03060X0.00060*%
%ADD31R,0.03300X0.00060*%
%ADD32R,0.03540X0.00060*%
%ADD33R,0.03420X0.00060*%
%ADD34R,0.03180X0.00060*%
%ADD35R,0.02520X0.00060*%
%ADD36R,0.02280X0.00060*%
%ADD37R,0.01740X0.00060*%
%ADD38R,0.01380X0.00060*%
%ADD39R,0.00840X0.00060*%
%ADD40R,0.00480X0.00060*%
%ADD41R,0.00900X0.00060*%
%ADD42R,0.02160X0.00060*%
%ADD43R,0.02940X0.00060*%
%ADD44R,0.03360X0.00060*%
%ADD45R,0.04140X0.00060*%
%ADD46R,0.04560X0.00060*%
%ADD47R,0.04860X0.00060*%
%ADD48R,0.04980X0.00060*%
%ADD49R,0.04920X0.00060*%
%ADD50R,0.03240X0.00060*%
%ADD51R,0.02340X0.00060*%
%ADD52R,0.01980X0.00060*%
%ADD53R,0.01140X0.00060*%
%ADD54R,0.01020X0.00060*%
%ADD55R,0.01080X0.00060*%
%ADD56R,0.02640X0.00060*%
%ADD57R,0.04260X0.00060*%
%ADD58R,0.05100X0.00060*%
%ADD59R,0.05700X0.00060*%
%ADD60R,0.06300X0.00060*%
%ADD61R,0.06360X0.00060*%
%ADD62R,0.06420X0.00060*%
%ADD63R,0.06060X0.00060*%
%ADD64R,0.04740X0.00060*%
%ADD65R,0.02700X0.00060*%
%ADD66R,0.01680X0.00060*%
%ADD67R,0.00120X0.00060*%
%ADD68R,0.00360X0.00060*%
%ADD69R,0.01020X0.00060*%
%ADD70R,0.02820X0.00060*%
%ADD71R,0.04020X0.00060*%
%ADD72R,0.04620X0.00060*%
%ADD73R,0.05820X0.00060*%
%ADD74R,0.07260X0.00060*%
%ADD75R,0.07440X0.00060*%
%ADD76R,0.07380X0.00060*%
%ADD77R,0.06960X0.00060*%
%ADD78R,0.05760X0.00060*%
%ADD79R,0.02100X0.00060*%
%ADD80R,0.02220X0.00060*%
%ADD81R,0.01860X0.00060*%
%ADD82R,0.01440X0.00060*%
%ADD83R,0.03600X0.00060*%
%ADD84R,0.03660X0.00060*%
%ADD85R,0.03480X0.00060*%
%ADD86R,0.03900X0.00060*%
%ADD87R,0.08760X0.00060*%
%ADD88R,0.08820X0.00060*%
%ADD89R,0.08940X0.00060*%
%ADD90R,0.07920X0.00060*%
%ADD91R,0.07140X0.00060*%
%ADD92R,0.05940X0.00060*%
%ADD93R,0.06000X0.00060*%
%ADD94R,0.06480X0.00060*%
%ADD95R,0.06720X0.00060*%
%ADD96R,0.06780X0.00060*%
%ADD97R,0.07500X0.00060*%
%ADD98R,0.07620X0.00060*%
%ADD99R,0.08220X0.00060*%
%ADD100R,0.08280X0.00060*%
%ADD101R,0.08520X0.00060*%
%ADD102R,0.08700X0.00060*%
%ADD103R,0.09420X0.00060*%
%ADD104R,0.09360X0.00060*%
%ADD105R,0.00540X0.00060*%
%ADD106R,0.08640X0.00060*%
%ADD107R,0.00600X0.00060*%
%ADD108R,0.08580X0.00060*%
%ADD109R,0.00540X0.00060*%
%ADD110R,0.00660X0.00060*%
%ADD111R,0.00720X0.00060*%
%ADD112R,0.08460X0.00060*%
%ADD113R,0.00720X0.00060*%
%ADD114R,0.07080X0.00060*%
%ADD115R,0.07020X0.00060*%
%ADD116R,0.06660X0.00060*%
%ADD117R,0.06420X0.00060*%
%ADD118R,0.00960X0.00060*%
%ADD119R,0.06120X0.00060*%
%ADD120R,0.05640X0.00060*%
%ADD121R,0.05580X0.00060*%
%ADD122R,0.01140X0.00060*%
%ADD123R,0.04140X0.00060*%
%ADD124R,0.03780X0.00060*%
%ADD125R,0.03120X0.00060*%
%ADD126R,0.02820X0.00060*%
%ADD127R,0.01560X0.00060*%
%ADD128R,0.01320X0.00060*%
%ADD129R,0.01620X0.00060*%
%ADD130R,0.00840X0.00060*%
%ADD131R,0.01800X0.00060*%
%ADD132R,0.03000X0.00060*%
%ADD133R,0.03720X0.00060*%
%ADD134R,0.03960X0.00060*%
%ADD135R,0.04620X0.00060*%
%ADD136R,0.04680X0.00060*%
%ADD137R,0.05880X0.00060*%
%ADD138R,0.02040X0.00060*%
%ADD139R,0.02400X0.00060*%
%ADD140R,0.07320X0.00060*%
%ADD141R,0.02340X0.00060*%
%ADD142R,0.02460X0.00060*%
%ADD143R,0.07740X0.00060*%
%ADD144R,0.01200X0.00060*%
%ADD145R,0.07860X0.00060*%
%ADD146R,0.07800X0.00060*%
%ADD147R,0.01620X0.00060*%
%ADD148R,0.02040X0.00060*%
%ADD149R,0.06540X0.00060*%
%ADD150R,0.02880X0.00060*%
%ADD151R,0.02940X0.00060*%
%ADD152R,0.05460X0.00060*%
%ADD153R,0.00420X0.00060*%
%ADD154R,0.04320X0.00060*%
%ADD155R,0.05280X0.00060*%
%ADD156R,0.04380X0.00060*%
%ADD157R,0.05220X0.00060*%
%ADD158R,0.04800X0.00060*%
%ADD159R,0.04080X0.00060*%
%ADD160R,0.04440X0.00060*%
%ADD161R,0.04200X0.00060*%
%ADD162R,0.04020X0.00060*%
%ADD163R,0.03540X0.00060*%
%ADD164R,0.04920X0.00060*%
%ADD165R,0.03240X0.00060*%
%ADD166R,0.03120X0.00060*%
%ADD167R,0.06180X0.00060*%
%ADD168R,0.04500X0.00060*%
%ADD169R,0.06900X0.00060*%
%ADD170R,0.01920X0.00060*%
%ADD171R,0.01440X0.00060*%
%ADD172R,0.03720X0.00060*%
%ADD173R,0.03420X0.00060*%
%ADD174R,0.05400X0.00060*%
%ADD175R,0.02520X0.00060*%
%ADD176R,0.02760X0.00060*%
%ADD177R,0.05340X0.00060*%
%ADD178R,0.05340X0.00060*%
%ADD179R,0.02640X0.00060*%
%ADD180R,0.03840X0.00060*%
%ADD181R,0.06240X0.00060*%
%ADD182R,0.06720X0.00060*%
%ADD183R,0.06840X0.00060*%
%ADD184R,0.07020X0.00060*%
%ADD185R,0.07320X0.00060*%
%ADD186R,0.01740X0.00060*%
%ADD187R,0.07620X0.00060*%
%ADD188R,0.07980X0.00060*%
%ADD189R,0.07920X0.00060*%
%ADD190R,0.08040X0.00060*%
%ADD191R,0.08100X0.00060*%
%ADD192R,0.08160X0.00060*%
%ADD193R,0.08220X0.00060*%
%ADD194R,0.09180X0.00060*%
%ADD195R,0.07560X0.00060*%
%ADD196R,0.09300X0.00060*%
%ADD197R,0.09660X0.00060*%
%ADD198R,0.09720X0.00060*%
%ADD199R,0.09780X0.00060*%
%ADD200R,0.09840X0.00060*%
%ADD201R,0.09900X0.00060*%
%ADD202R,0.11040X0.00060*%
%ADD203R,0.10860X0.00060*%
%ADD204R,0.05040X0.00060*%
%ADD205R,0.10920X0.00060*%
%ADD206R,0.10740X0.00060*%
%ADD207R,0.05160X0.00060*%
%ADD208R,0.10680X0.00060*%
%ADD209R,0.06600X0.00060*%
%ADD210R,0.05640X0.00060*%
%ADD211R,0.09060X0.00060*%
%ADD212R,0.05820X0.00060*%
%ADD213R,0.10800X0.00060*%
%ADD214R,0.10980X0.00060*%
%ADD215R,0.11160X0.00060*%
%ADD216R,0.01320X0.00060*%
%ADD217R,0.12780X0.00060*%
%ADD218R,0.05940X0.00060*%
%ADD219R,0.12660X0.00060*%
%ADD220R,0.12720X0.00060*%
%ADD221R,0.01920X0.00060*%
%ADD222R,0.05520X0.00060*%
%ADD223R,0.06240X0.00060*%
%ADD224R,0.05220X0.00060*%
%ADD225R,0.04740X0.00060*%
%ADD226R,0.06120X0.00060*%
%ADD227R,0.05520X0.00060*%
D10*
X0049059Y0052555D02*
X0051559Y0050055D01*
X0056559Y0050055D01*
X0059059Y0052555D01*
X0059059Y0067555D01*
X0061559Y0070055D01*
X0066559Y0070055D01*
X0069059Y0067555D01*
X0071559Y0070055D01*
X0076559Y0070055D01*
X0079059Y0067555D01*
X0079059Y0052555D01*
X0076559Y0050055D01*
X0071559Y0050055D01*
X0069059Y0052555D01*
X0069059Y0067555D01*
X0059059Y0067555D02*
X0056559Y0070055D01*
X0051559Y0070055D01*
X0049059Y0067555D01*
X0049059Y0052555D01*
X0059059Y0052555D02*
X0061559Y0050055D01*
X0066559Y0050055D01*
X0069059Y0052555D01*
X0110300Y0027500D02*
X0120300Y0027500D01*
X0122700Y0027500D01*
X0131300Y0027500D01*
X0122700Y0027500D02*
X0122698Y0027569D01*
X0122692Y0027637D01*
X0122682Y0027705D01*
X0122669Y0027772D01*
X0122651Y0027838D01*
X0122630Y0027903D01*
X0122605Y0027967D01*
X0122577Y0028029D01*
X0122545Y0028090D01*
X0122510Y0028149D01*
X0122471Y0028205D01*
X0122429Y0028260D01*
X0122384Y0028311D01*
X0122336Y0028361D01*
X0122286Y0028407D01*
X0122233Y0028450D01*
X0122177Y0028491D01*
X0122120Y0028528D01*
X0122060Y0028561D01*
X0121998Y0028592D01*
X0121935Y0028618D01*
X0121871Y0028641D01*
X0121805Y0028661D01*
X0121738Y0028676D01*
X0121671Y0028688D01*
X0121603Y0028696D01*
X0121534Y0028700D01*
X0121466Y0028700D01*
X0121397Y0028696D01*
X0121329Y0028688D01*
X0121262Y0028676D01*
X0121195Y0028661D01*
X0121129Y0028641D01*
X0121065Y0028618D01*
X0121002Y0028592D01*
X0120940Y0028561D01*
X0120880Y0028528D01*
X0120823Y0028491D01*
X0120767Y0028450D01*
X0120714Y0028407D01*
X0120664Y0028361D01*
X0120616Y0028311D01*
X0120571Y0028260D01*
X0120529Y0028205D01*
X0120490Y0028149D01*
X0120455Y0028090D01*
X0120423Y0028029D01*
X0120395Y0027967D01*
X0120370Y0027903D01*
X0120349Y0027838D01*
X0120331Y0027772D01*
X0120318Y0027705D01*
X0120308Y0027637D01*
X0120302Y0027569D01*
X0120300Y0027500D01*
X0167500Y0102500D02*
X0167500Y0129500D01*
X0167503Y0129719D01*
X0167511Y0129938D01*
X0167524Y0130157D01*
X0167543Y0130375D01*
X0167567Y0130593D01*
X0167596Y0130810D01*
X0167630Y0131027D01*
X0167670Y0131242D01*
X0167715Y0131457D01*
X0167766Y0131670D01*
X0167821Y0131882D01*
X0167882Y0132093D01*
X0167947Y0132302D01*
X0168018Y0132509D01*
X0168094Y0132715D01*
X0168175Y0132919D01*
X0168260Y0133121D01*
X0168351Y0133320D01*
X0168446Y0133517D01*
X0168547Y0133712D01*
X0168652Y0133905D01*
X0168761Y0134095D01*
X0168875Y0134282D01*
X0168994Y0134466D01*
X0169117Y0134647D01*
X0169245Y0134825D01*
X0169377Y0135001D01*
X0169513Y0135172D01*
X0169653Y0135341D01*
X0169797Y0135506D01*
X0169945Y0135667D01*
X0170097Y0135825D01*
X0170253Y0135979D01*
X0170413Y0136129D01*
X0170576Y0136276D01*
X0170743Y0136418D01*
X0170913Y0136556D01*
X0171087Y0136690D01*
X0171263Y0136820D01*
X0171443Y0136945D01*
X0171626Y0137066D01*
X0171812Y0137182D01*
X0172000Y0137294D01*
X0172191Y0137401D01*
X0172385Y0137504D01*
X0172581Y0137602D01*
X0172779Y0137695D01*
X0172980Y0137783D01*
X0173183Y0137866D01*
X0173388Y0137945D01*
X0173594Y0138018D01*
X0173802Y0138086D01*
X0174012Y0138149D01*
X0174224Y0138207D01*
X0174436Y0138260D01*
X0174650Y0138308D01*
X0174865Y0138350D01*
X0175081Y0138387D01*
X0175298Y0138419D01*
X0175516Y0138446D01*
X0175734Y0138467D01*
X0175952Y0138483D01*
X0176171Y0138494D01*
X0176390Y0138499D01*
X0176610Y0138499D01*
X0176829Y0138494D01*
X0177048Y0138483D01*
X0177266Y0138467D01*
X0177484Y0138446D01*
X0177702Y0138419D01*
X0177919Y0138387D01*
X0178135Y0138350D01*
X0178350Y0138308D01*
X0178564Y0138260D01*
X0178776Y0138207D01*
X0178988Y0138149D01*
X0179198Y0138086D01*
X0179406Y0138018D01*
X0179612Y0137945D01*
X0179817Y0137866D01*
X0180020Y0137783D01*
X0180221Y0137695D01*
X0180419Y0137602D01*
X0180615Y0137504D01*
X0180809Y0137401D01*
X0181000Y0137294D01*
X0181188Y0137182D01*
X0181374Y0137066D01*
X0181557Y0136945D01*
X0181737Y0136820D01*
X0181913Y0136690D01*
X0182087Y0136556D01*
X0182257Y0136418D01*
X0182424Y0136276D01*
X0182587Y0136129D01*
X0182747Y0135979D01*
X0182903Y0135825D01*
X0183055Y0135667D01*
X0183203Y0135506D01*
X0183347Y0135341D01*
X0183487Y0135172D01*
X0183623Y0135001D01*
X0183755Y0134825D01*
X0183883Y0134647D01*
X0184006Y0134466D01*
X0184125Y0134282D01*
X0184239Y0134095D01*
X0184348Y0133905D01*
X0184453Y0133712D01*
X0184554Y0133517D01*
X0184649Y0133320D01*
X0184740Y0133121D01*
X0184825Y0132919D01*
X0184906Y0132715D01*
X0184982Y0132509D01*
X0185053Y0132302D01*
X0185118Y0132093D01*
X0185179Y0131882D01*
X0185234Y0131670D01*
X0185285Y0131457D01*
X0185330Y0131242D01*
X0185370Y0131027D01*
X0185404Y0130810D01*
X0185433Y0130593D01*
X0185457Y0130375D01*
X0185476Y0130157D01*
X0185489Y0129938D01*
X0185497Y0129719D01*
X0185500Y0129500D01*
X0185500Y0102500D01*
X0185497Y0102281D01*
X0185489Y0102062D01*
X0185476Y0101843D01*
X0185457Y0101625D01*
X0185433Y0101407D01*
X0185404Y0101190D01*
X0185370Y0100973D01*
X0185330Y0100758D01*
X0185285Y0100543D01*
X0185234Y0100330D01*
X0185179Y0100118D01*
X0185118Y0099907D01*
X0185053Y0099698D01*
X0184982Y0099491D01*
X0184906Y0099285D01*
X0184825Y0099081D01*
X0184740Y0098879D01*
X0184649Y0098680D01*
X0184554Y0098483D01*
X0184453Y0098288D01*
X0184348Y0098095D01*
X0184239Y0097905D01*
X0184125Y0097718D01*
X0184006Y0097534D01*
X0183883Y0097353D01*
X0183755Y0097175D01*
X0183623Y0096999D01*
X0183487Y0096828D01*
X0183347Y0096659D01*
X0183203Y0096494D01*
X0183055Y0096333D01*
X0182903Y0096175D01*
X0182747Y0096021D01*
X0182587Y0095871D01*
X0182424Y0095724D01*
X0182257Y0095582D01*
X0182087Y0095444D01*
X0181913Y0095310D01*
X0181737Y0095180D01*
X0181557Y0095055D01*
X0181374Y0094934D01*
X0181188Y0094818D01*
X0181000Y0094706D01*
X0180809Y0094599D01*
X0180615Y0094496D01*
X0180419Y0094398D01*
X0180221Y0094305D01*
X0180020Y0094217D01*
X0179817Y0094134D01*
X0179612Y0094055D01*
X0179406Y0093982D01*
X0179198Y0093914D01*
X0178988Y0093851D01*
X0178776Y0093793D01*
X0178564Y0093740D01*
X0178350Y0093692D01*
X0178135Y0093650D01*
X0177919Y0093613D01*
X0177702Y0093581D01*
X0177484Y0093554D01*
X0177266Y0093533D01*
X0177048Y0093517D01*
X0176829Y0093506D01*
X0176610Y0093501D01*
X0176390Y0093501D01*
X0176171Y0093506D01*
X0175952Y0093517D01*
X0175734Y0093533D01*
X0175516Y0093554D01*
X0175298Y0093581D01*
X0175081Y0093613D01*
X0174865Y0093650D01*
X0174650Y0093692D01*
X0174436Y0093740D01*
X0174224Y0093793D01*
X0174012Y0093851D01*
X0173802Y0093914D01*
X0173594Y0093982D01*
X0173388Y0094055D01*
X0173183Y0094134D01*
X0172980Y0094217D01*
X0172779Y0094305D01*
X0172581Y0094398D01*
X0172385Y0094496D01*
X0172191Y0094599D01*
X0172000Y0094706D01*
X0171812Y0094818D01*
X0171626Y0094934D01*
X0171443Y0095055D01*
X0171263Y0095180D01*
X0171087Y0095310D01*
X0170913Y0095444D01*
X0170743Y0095582D01*
X0170576Y0095724D01*
X0170413Y0095871D01*
X0170253Y0096021D01*
X0170097Y0096175D01*
X0169945Y0096333D01*
X0169797Y0096494D01*
X0169653Y0096659D01*
X0169513Y0096828D01*
X0169377Y0096999D01*
X0169245Y0097175D01*
X0169117Y0097353D01*
X0168994Y0097534D01*
X0168875Y0097718D01*
X0168761Y0097905D01*
X0168652Y0098095D01*
X0168547Y0098288D01*
X0168446Y0098483D01*
X0168351Y0098680D01*
X0168260Y0098879D01*
X0168175Y0099081D01*
X0168094Y0099285D01*
X0168018Y0099491D01*
X0167947Y0099698D01*
X0167882Y0099907D01*
X0167821Y0100118D01*
X0167766Y0100330D01*
X0167715Y0100543D01*
X0167670Y0100758D01*
X0167630Y0100973D01*
X0167596Y0101190D01*
X0167567Y0101407D01*
X0167543Y0101625D01*
X0167524Y0101843D01*
X0167511Y0102062D01*
X0167503Y0102281D01*
X0167500Y0102500D01*
X0196500Y0103500D02*
X0196500Y0108500D01*
X0199000Y0111000D01*
X0196500Y0113500D01*
X0196500Y0118500D01*
X0199000Y0121000D01*
X0196500Y0123500D01*
X0196500Y0128500D01*
X0199000Y0131000D01*
X0196500Y0133500D01*
X0196500Y0138500D01*
X0199000Y0141000D01*
X0196500Y0143500D01*
X0196500Y0148500D01*
X0199000Y0151000D01*
X0196500Y0153500D01*
X0196500Y0158500D01*
X0199000Y0161000D01*
X0196500Y0163500D01*
X0196500Y0168500D01*
X0199000Y0171000D01*
X0196500Y0173500D01*
X0196500Y0178500D01*
X0199000Y0181000D01*
X0196500Y0183500D01*
X0196500Y0188500D01*
X0199000Y0191000D01*
X0196500Y0193500D01*
X0196500Y0198500D01*
X0199000Y0201000D01*
X0196500Y0203500D01*
X0196500Y0208500D01*
X0199000Y0211000D01*
X0196500Y0213500D01*
X0196500Y0218500D01*
X0199000Y0221000D01*
X0204000Y0221000D01*
X0206500Y0218500D01*
X0206500Y0213500D01*
X0204000Y0211000D01*
X0206500Y0208500D01*
X0206500Y0203500D01*
X0204000Y0201000D01*
X0199000Y0201000D01*
X0204000Y0201000D02*
X0206500Y0198500D01*
X0206500Y0193500D01*
X0204000Y0191000D01*
X0206500Y0188500D01*
X0206500Y0183500D01*
X0204000Y0181000D01*
X0206500Y0178500D01*
X0206500Y0173500D01*
X0204000Y0171000D01*
X0199000Y0171000D01*
X0204000Y0171000D02*
X0206500Y0168500D01*
X0206500Y0163500D01*
X0204000Y0161000D01*
X0206500Y0158500D01*
X0206500Y0153500D01*
X0204000Y0151000D01*
X0206500Y0148500D01*
X0206500Y0143500D01*
X0204000Y0141000D01*
X0199000Y0141000D01*
X0204000Y0141000D02*
X0206500Y0138500D01*
X0206500Y0133500D01*
X0204000Y0131000D01*
X0206500Y0128500D01*
X0206500Y0123500D01*
X0204000Y0121000D01*
X0206500Y0118500D01*
X0206500Y0113500D01*
X0204000Y0111000D01*
X0199000Y0111000D01*
X0204000Y0111000D02*
X0206500Y0108500D01*
X0206500Y0103500D01*
X0204000Y0101000D01*
X0206500Y0098500D01*
X0206500Y0093500D01*
X0204000Y0091000D01*
X0206500Y0088500D01*
X0206500Y0083500D01*
X0204000Y0081000D01*
X0199000Y0081000D01*
X0196500Y0083500D01*
X0196500Y0088500D01*
X0199000Y0091000D01*
X0196500Y0093500D01*
X0196500Y0098500D01*
X0199000Y0101000D01*
X0196500Y0103500D01*
X0199000Y0101000D02*
X0204000Y0101000D01*
X0204000Y0091000D02*
X0199000Y0091000D01*
X0199000Y0081000D02*
X0196500Y0078500D01*
X0196500Y0073500D01*
X0199000Y0071000D01*
X0196500Y0068500D01*
X0196500Y0063500D01*
X0199000Y0061000D01*
X0204000Y0061000D01*
X0206500Y0063500D01*
X0206500Y0068500D01*
X0204000Y0071000D01*
X0199000Y0071000D01*
X0204000Y0071000D02*
X0206500Y0073500D01*
X0206500Y0078500D01*
X0204000Y0081000D01*
X0204000Y0121000D02*
X0199000Y0121000D01*
X0199000Y0131000D02*
X0204000Y0131000D01*
X0204000Y0151000D02*
X0199000Y0151000D01*
X0199000Y0161000D02*
X0204000Y0161000D01*
X0204000Y0181000D02*
X0199000Y0181000D01*
X0199000Y0191000D02*
X0204000Y0191000D01*
X0204000Y0211000D02*
X0199000Y0211000D01*
X0132700Y0164500D02*
X0110300Y0164500D01*
X0109500Y0176000D02*
X0109500Y0186000D01*
X0093500Y0186000D01*
X0093500Y0176000D01*
X0109500Y0176000D01*
X0104000Y0181000D02*
X0101500Y0181000D01*
X0101500Y0183500D01*
X0101500Y0181000D02*
X0101500Y0178500D01*
X0101500Y0181000D02*
X0097500Y0178500D01*
X0097500Y0183500D01*
X0101500Y0181000D01*
X0095500Y0181000D01*
X0061500Y0148000D02*
X0061500Y0114000D01*
X0058500Y0111000D01*
X0044500Y0111000D01*
X0041500Y0114000D01*
X0041500Y0148000D02*
X0044500Y0151000D01*
X0058500Y0151000D01*
X0061500Y0148000D01*
D11*
X0107000Y0181000D03*
D12*
X0113250Y0181000D03*
X0089750Y0181000D03*
D13*
X0046500Y0181625D02*
X0046500Y0240375D01*
X0025250Y0240375D01*
X0011500Y0240375D02*
X0001500Y0240375D01*
X0001500Y0181625D01*
X0011500Y0181625D01*
X0025250Y0181625D02*
X0046500Y0181625D01*
X0041500Y0143500D02*
X0041500Y0138500D01*
X0044000Y0141000D02*
X0039000Y0141000D01*
X0041500Y0123500D02*
X0041500Y0118500D01*
D14*
X0040798Y0126900D02*
X0041499Y0127601D01*
X0041499Y0129702D01*
X0042900Y0129702D02*
X0040097Y0129702D01*
X0039397Y0129002D01*
X0039397Y0127601D01*
X0040097Y0126900D01*
X0040798Y0126900D01*
X0042900Y0126900D02*
X0043600Y0127601D01*
X0043600Y0129002D01*
X0042900Y0129702D01*
X0042199Y0131504D02*
X0043600Y0132905D01*
X0042199Y0134306D01*
X0039397Y0134306D01*
X0039397Y0131504D02*
X0042199Y0131504D01*
X0009000Y0185375D02*
X0001500Y0183500D01*
X0001500Y0187250D01*
X0009000Y0185375D01*
X0007950Y0185113D02*
X0001500Y0185113D01*
X0001500Y0185911D02*
X0006856Y0185911D01*
X0004757Y0184314D02*
X0001500Y0184314D01*
X0001500Y0183516D02*
X0001563Y0183516D01*
X0001500Y0186710D02*
X0003662Y0186710D01*
X0141473Y0212500D02*
X0141474Y0236100D01*
X0141473Y0212500D02*
X0167276Y0212500D01*
X0167274Y0236100D01*
D15*
X0154374Y0210600D03*
D16*
X0169500Y0129500D02*
X0169500Y0102500D01*
X0169502Y0102330D01*
X0169508Y0102159D01*
X0169519Y0101989D01*
X0169533Y0101819D01*
X0169552Y0101650D01*
X0169575Y0101481D01*
X0169601Y0101312D01*
X0169632Y0101145D01*
X0169667Y0100978D01*
X0169707Y0100812D01*
X0169750Y0100647D01*
X0169797Y0100483D01*
X0169848Y0100321D01*
X0169903Y0100159D01*
X0169962Y0099999D01*
X0170025Y0099841D01*
X0170091Y0099684D01*
X0170162Y0099529D01*
X0170236Y0099375D01*
X0170314Y0099224D01*
X0170396Y0099074D01*
X0170481Y0098926D01*
X0170570Y0098781D01*
X0170662Y0098638D01*
X0170758Y0098497D01*
X0170857Y0098358D01*
X0170960Y0098222D01*
X0171065Y0098088D01*
X0171174Y0097957D01*
X0171287Y0097829D01*
X0171402Y0097703D01*
X0171520Y0097580D01*
X0171641Y0097461D01*
X0171766Y0097344D01*
X0171893Y0097230D01*
X0172022Y0097119D01*
X0172155Y0097012D01*
X0172290Y0096908D01*
X0172427Y0096807D01*
X0172567Y0096709D01*
X0172709Y0096615D01*
X0172853Y0096525D01*
X0173000Y0096438D01*
X0173149Y0096354D01*
X0173299Y0096275D01*
X0173452Y0096199D01*
X0173606Y0096126D01*
X0173762Y0096058D01*
X0173920Y0095993D01*
X0174079Y0095932D01*
X0174240Y0095875D01*
X0174402Y0095822D01*
X0174565Y0095773D01*
X0174729Y0095728D01*
X0174895Y0095687D01*
X0175061Y0095649D01*
X0175229Y0095616D01*
X0175397Y0095588D01*
X0175565Y0095563D01*
X0175734Y0095542D01*
X0175904Y0095525D01*
X0176074Y0095513D01*
X0176244Y0095505D01*
X0176415Y0095501D01*
X0176585Y0095501D01*
X0176756Y0095505D01*
X0176926Y0095513D01*
X0177096Y0095525D01*
X0177266Y0095542D01*
X0177435Y0095563D01*
X0177603Y0095588D01*
X0177771Y0095616D01*
X0177939Y0095649D01*
X0178105Y0095687D01*
X0178271Y0095728D01*
X0178435Y0095773D01*
X0178598Y0095822D01*
X0178760Y0095875D01*
X0178921Y0095932D01*
X0179080Y0095993D01*
X0179238Y0096058D01*
X0179394Y0096126D01*
X0179548Y0096199D01*
X0179701Y0096275D01*
X0179851Y0096354D01*
X0180000Y0096438D01*
X0180147Y0096525D01*
X0180291Y0096615D01*
X0180433Y0096709D01*
X0180573Y0096807D01*
X0180710Y0096908D01*
X0180845Y0097012D01*
X0180978Y0097119D01*
X0181107Y0097230D01*
X0181234Y0097344D01*
X0181359Y0097461D01*
X0181480Y0097580D01*
X0181598Y0097703D01*
X0181713Y0097829D01*
X0181826Y0097957D01*
X0181935Y0098088D01*
X0182040Y0098222D01*
X0182143Y0098358D01*
X0182242Y0098497D01*
X0182338Y0098638D01*
X0182430Y0098781D01*
X0182519Y0098926D01*
X0182604Y0099074D01*
X0182686Y0099224D01*
X0182764Y0099375D01*
X0182838Y0099529D01*
X0182909Y0099684D01*
X0182975Y0099841D01*
X0183038Y0099999D01*
X0183097Y0100159D01*
X0183152Y0100321D01*
X0183203Y0100483D01*
X0183250Y0100647D01*
X0183293Y0100812D01*
X0183333Y0100978D01*
X0183368Y0101145D01*
X0183399Y0101312D01*
X0183425Y0101481D01*
X0183448Y0101650D01*
X0183467Y0101819D01*
X0183481Y0101989D01*
X0183492Y0102159D01*
X0183498Y0102330D01*
X0183500Y0102500D01*
X0183500Y0129500D01*
X0183498Y0129670D01*
X0183492Y0129841D01*
X0183481Y0130011D01*
X0183467Y0130181D01*
X0183448Y0130350D01*
X0183425Y0130519D01*
X0183399Y0130688D01*
X0183368Y0130855D01*
X0183333Y0131022D01*
X0183293Y0131188D01*
X0183250Y0131353D01*
X0183203Y0131517D01*
X0183152Y0131679D01*
X0183097Y0131841D01*
X0183038Y0132001D01*
X0182975Y0132159D01*
X0182909Y0132316D01*
X0182838Y0132471D01*
X0182764Y0132625D01*
X0182686Y0132776D01*
X0182604Y0132926D01*
X0182519Y0133074D01*
X0182430Y0133219D01*
X0182338Y0133362D01*
X0182242Y0133503D01*
X0182143Y0133642D01*
X0182040Y0133778D01*
X0181935Y0133912D01*
X0181826Y0134043D01*
X0181713Y0134171D01*
X0181598Y0134297D01*
X0181480Y0134420D01*
X0181359Y0134539D01*
X0181234Y0134656D01*
X0181107Y0134770D01*
X0180978Y0134881D01*
X0180845Y0134988D01*
X0180710Y0135092D01*
X0180573Y0135193D01*
X0180433Y0135291D01*
X0180291Y0135385D01*
X0180147Y0135475D01*
X0180000Y0135562D01*
X0179851Y0135646D01*
X0179701Y0135725D01*
X0179548Y0135801D01*
X0179394Y0135874D01*
X0179238Y0135942D01*
X0179080Y0136007D01*
X0178921Y0136068D01*
X0178760Y0136125D01*
X0178598Y0136178D01*
X0178435Y0136227D01*
X0178271Y0136272D01*
X0178105Y0136313D01*
X0177939Y0136351D01*
X0177771Y0136384D01*
X0177603Y0136412D01*
X0177435Y0136437D01*
X0177266Y0136458D01*
X0177096Y0136475D01*
X0176926Y0136487D01*
X0176756Y0136495D01*
X0176585Y0136499D01*
X0176415Y0136499D01*
X0176244Y0136495D01*
X0176074Y0136487D01*
X0175904Y0136475D01*
X0175734Y0136458D01*
X0175565Y0136437D01*
X0175397Y0136412D01*
X0175229Y0136384D01*
X0175061Y0136351D01*
X0174895Y0136313D01*
X0174729Y0136272D01*
X0174565Y0136227D01*
X0174402Y0136178D01*
X0174240Y0136125D01*
X0174079Y0136068D01*
X0173920Y0136007D01*
X0173762Y0135942D01*
X0173606Y0135874D01*
X0173452Y0135801D01*
X0173299Y0135725D01*
X0173149Y0135646D01*
X0173000Y0135562D01*
X0172853Y0135475D01*
X0172709Y0135385D01*
X0172567Y0135291D01*
X0172427Y0135193D01*
X0172290Y0135092D01*
X0172155Y0134988D01*
X0172022Y0134881D01*
X0171893Y0134770D01*
X0171766Y0134656D01*
X0171641Y0134539D01*
X0171520Y0134420D01*
X0171402Y0134297D01*
X0171287Y0134171D01*
X0171174Y0134043D01*
X0171065Y0133912D01*
X0170960Y0133778D01*
X0170857Y0133642D01*
X0170758Y0133503D01*
X0170662Y0133362D01*
X0170570Y0133219D01*
X0170481Y0133074D01*
X0170396Y0132926D01*
X0170314Y0132776D01*
X0170236Y0132625D01*
X0170162Y0132471D01*
X0170091Y0132316D01*
X0170025Y0132159D01*
X0169962Y0132001D01*
X0169903Y0131841D01*
X0169848Y0131679D01*
X0169797Y0131517D01*
X0169750Y0131353D01*
X0169707Y0131188D01*
X0169667Y0131022D01*
X0169632Y0130855D01*
X0169601Y0130688D01*
X0169575Y0130519D01*
X0169552Y0130350D01*
X0169533Y0130181D01*
X0169519Y0130011D01*
X0169508Y0129841D01*
X0169502Y0129670D01*
X0169500Y0129500D01*
D17*
X0138650Y0025666D02*
X0135514Y0022530D01*
X0135514Y0024098D02*
X0138650Y0024098D01*
X0138650Y0022530D02*
X0135514Y0025666D01*
X0137082Y0025666D02*
X0137082Y0022530D01*
D18*
X0110676Y0196414D03*
X0110736Y0196474D03*
X0110676Y0196774D03*
X0110676Y0196834D03*
X0110676Y0196894D03*
X0110676Y0196954D03*
X0110676Y0197014D03*
X0110676Y0197074D03*
X0110676Y0197134D03*
X0110676Y0197194D03*
X0110676Y0197254D03*
X0110676Y0197314D03*
X0110676Y0197374D03*
X0110676Y0197434D03*
X0110676Y0197494D03*
X0110676Y0197554D03*
X0110676Y0197614D03*
X0110676Y0197674D03*
X0110676Y0197734D03*
X0110676Y0197794D03*
X0110676Y0197854D03*
X0110676Y0197974D03*
X0110676Y0198094D03*
X0110676Y0198214D03*
X0110616Y0198994D03*
X0110676Y0199054D03*
X0110616Y0199114D03*
X0110676Y0199174D03*
X0110616Y0199234D03*
X0110676Y0199294D03*
X0110616Y0199354D03*
X0110676Y0199414D03*
X0110616Y0199474D03*
X0110676Y0199534D03*
X0110616Y0199594D03*
X0110676Y0199654D03*
X0110616Y0199714D03*
X0110676Y0199774D03*
X0110616Y0199834D03*
X0110616Y0200674D03*
X0110616Y0200794D03*
X0110616Y0200914D03*
X0110616Y0201034D03*
X0110616Y0201154D03*
X0110616Y0201274D03*
X0110616Y0201334D03*
X0110616Y0201394D03*
X0110616Y0201454D03*
X0110616Y0201514D03*
X0110616Y0201574D03*
X0110616Y0201634D03*
X0110616Y0202474D03*
X0110616Y0202594D03*
X0110616Y0202714D03*
X0110616Y0202834D03*
X0110616Y0202954D03*
X0110616Y0203074D03*
X0110616Y0203194D03*
X0110616Y0203314D03*
X0110616Y0204154D03*
X0110556Y0204214D03*
X0110616Y0204274D03*
X0110556Y0204334D03*
X0110616Y0204394D03*
X0110556Y0204454D03*
X0110616Y0204514D03*
X0110556Y0204574D03*
X0110556Y0204694D03*
X0110556Y0204814D03*
X0110556Y0204934D03*
X0110256Y0204994D03*
X0110616Y0205714D03*
X0110556Y0205774D03*
X0110556Y0205834D03*
X0110556Y0205894D03*
X0110556Y0205954D03*
X0110556Y0206014D03*
X0110556Y0206074D03*
X0110556Y0206134D03*
X0110556Y0206194D03*
X0110556Y0206254D03*
X0110556Y0206314D03*
X0110556Y0206374D03*
X0110556Y0206434D03*
X0110556Y0206494D03*
X0110556Y0206554D03*
X0110556Y0206614D03*
X0110556Y0206674D03*
X0107136Y0211594D03*
X0111516Y0215614D03*
X0111876Y0215254D03*
X0112116Y0215134D03*
X0112356Y0215014D03*
X0112536Y0214954D03*
X0112236Y0214654D03*
X0113136Y0214834D03*
X0113976Y0214834D03*
X0114456Y0214954D03*
X0114636Y0215014D03*
X0114816Y0215074D03*
X0114876Y0215134D03*
X0115056Y0215194D03*
X0115116Y0215254D03*
X0115356Y0215374D03*
X0114096Y0215674D03*
X0113616Y0215554D03*
X0112356Y0217534D03*
X0111396Y0219334D03*
X0111396Y0219454D03*
X0110016Y0220474D03*
X0110016Y0220534D03*
X0111036Y0221374D03*
X0111756Y0221974D03*
X0112536Y0222634D03*
X0112596Y0222694D03*
X0112716Y0222814D03*
X0112956Y0223054D03*
X0113436Y0223534D03*
X0113556Y0223654D03*
X0113676Y0223774D03*
X0112656Y0221314D03*
X0107676Y0218974D03*
X0107196Y0218854D03*
X0106116Y0218614D03*
X0105876Y0218494D03*
X0105636Y0218374D03*
X0105576Y0218314D03*
X0105336Y0218194D03*
X0105096Y0218074D03*
X0101256Y0217594D03*
X0100956Y0217774D03*
X0101676Y0224854D03*
X0102216Y0225694D03*
X0107676Y0230614D03*
X0107916Y0230734D03*
X0108156Y0230854D03*
X0108336Y0230914D03*
X0108576Y0231394D03*
X0108456Y0231634D03*
X0108336Y0231874D03*
X0108216Y0232114D03*
X0108096Y0232354D03*
X0107976Y0232594D03*
X0107856Y0232834D03*
X0109056Y0233314D03*
X0109116Y0233254D03*
X0109176Y0233074D03*
X0109296Y0232834D03*
X0109296Y0232714D03*
X0109416Y0232474D03*
X0109536Y0232114D03*
X0109596Y0231934D03*
X0109656Y0231754D03*
X0109776Y0231514D03*
X0109776Y0231394D03*
X0109836Y0231334D03*
X0109896Y0231154D03*
X0110256Y0231034D03*
X0111336Y0230794D03*
X0111516Y0230734D03*
X0111696Y0230674D03*
X0111876Y0230614D03*
X0112116Y0230494D03*
X0112356Y0230374D03*
X0112596Y0230254D03*
X0112656Y0230194D03*
X0112716Y0230134D03*
X0112956Y0230014D03*
X0113076Y0229894D03*
X0113196Y0229774D03*
X0113676Y0229294D03*
X0113796Y0229174D03*
X0114036Y0228814D03*
X0109056Y0233434D03*
X0108996Y0233494D03*
X0108936Y0233674D03*
X0108876Y0233854D03*
X0108816Y0233914D03*
X0108816Y0234034D03*
X0108696Y0234274D03*
X0108636Y0234454D03*
X0108576Y0234514D03*
X0108576Y0234634D03*
X0108516Y0234694D03*
X0108456Y0234874D03*
X0108336Y0235114D03*
X0108336Y0235234D03*
X0108276Y0235294D03*
X0108216Y0235354D03*
X0108216Y0235474D03*
X0108156Y0235534D03*
X0108096Y0235714D03*
X0108036Y0235774D03*
X0107976Y0235954D03*
X0107856Y0236194D03*
X0107736Y0236434D03*
X0107616Y0236674D03*
X0107496Y0236914D03*
X0107436Y0236974D03*
X0107376Y0237154D03*
X0107316Y0237214D03*
X0107256Y0237274D03*
X0107256Y0237394D03*
X0107196Y0237454D03*
X0107136Y0237514D03*
X0107076Y0237634D03*
X0107016Y0237754D03*
X0106956Y0237814D03*
X0106896Y0237874D03*
X0106836Y0238054D03*
X0106776Y0238114D03*
X0106656Y0238354D03*
X0106596Y0238414D03*
X0106536Y0238474D03*
X0106476Y0238594D03*
X0106416Y0238714D03*
X0106356Y0238774D03*
X0106296Y0238834D03*
X0106176Y0239074D03*
X0106056Y0239194D03*
X0105996Y0239254D03*
X0105936Y0239314D03*
X0105876Y0239434D03*
X0105816Y0239554D03*
X0105756Y0239614D03*
X0105696Y0239674D03*
X0105636Y0239734D03*
X0105576Y0239794D03*
X0105456Y0240034D03*
X0105336Y0240154D03*
X0105276Y0240214D03*
X0105216Y0240274D03*
X0105156Y0240334D03*
X0105096Y0240394D03*
X0105036Y0240574D03*
X0103176Y0239314D03*
X0103056Y0239434D03*
X0102996Y0239494D03*
X0102936Y0239554D03*
X0102876Y0239614D03*
X0102816Y0239674D03*
X0102696Y0239794D03*
X0102576Y0240034D03*
X0102456Y0240154D03*
X0102396Y0240214D03*
X0102336Y0240274D03*
X0102276Y0240334D03*
X0102216Y0240394D03*
X0102156Y0240454D03*
X0102096Y0240514D03*
X0101796Y0240934D03*
X0101736Y0240994D03*
X0103416Y0238954D03*
X0103536Y0238834D03*
X0103596Y0238774D03*
X0103656Y0238714D03*
X0103776Y0238594D03*
X0103956Y0238354D03*
X0104136Y0238114D03*
X0104196Y0238054D03*
X0104256Y0237994D03*
X0104376Y0237874D03*
X0104616Y0237514D03*
X0104736Y0237394D03*
X0105096Y0236914D03*
X0105216Y0236794D03*
X0105576Y0236314D03*
X0105696Y0236194D03*
X0105936Y0235834D03*
X0106536Y0234994D03*
X0106776Y0234634D03*
X0115776Y0216754D03*
X0122016Y0212914D03*
X0122436Y0214534D03*
X0122496Y0214714D03*
X0122496Y0214834D03*
X0122556Y0215014D03*
X0123936Y0214474D03*
X0123936Y0214354D03*
X0123876Y0214174D03*
X0123996Y0214654D03*
X0124056Y0214714D03*
X0123996Y0217774D03*
X0124056Y0217834D03*
X0124056Y0217954D03*
X0125736Y0219154D03*
X0125796Y0219094D03*
X0126816Y0223954D03*
X0126876Y0224014D03*
X0118536Y0204394D03*
X0116736Y0203554D03*
X0116616Y0203434D03*
X0116496Y0203314D03*
X0115296Y0201874D03*
X0115236Y0201814D03*
X0115176Y0201754D03*
X0115116Y0201694D03*
X0115056Y0201634D03*
X0114576Y0201034D03*
X0113856Y0200194D03*
X0113736Y0200074D03*
X0113256Y0199474D03*
X0113136Y0199354D03*
X0111936Y0197914D03*
X0111816Y0197794D03*
X0111756Y0197734D03*
X0111696Y0197674D03*
X0111576Y0197554D03*
X0111216Y0197074D03*
X0111156Y0197014D03*
X0111096Y0196954D03*
X0111036Y0196894D03*
X0110976Y0196834D03*
D19*
X0110796Y0196594D03*
X0110736Y0196534D03*
X0111336Y0197254D03*
X0111396Y0197314D03*
X0111456Y0197374D03*
X0111576Y0197494D03*
X0112056Y0198094D03*
X0112116Y0198154D03*
X0112176Y0198214D03*
X0112296Y0198334D03*
X0113136Y0199294D03*
X0113256Y0199534D03*
X0113376Y0199654D03*
X0113496Y0199774D03*
X0113556Y0199834D03*
X0113736Y0200014D03*
X0114696Y0201214D03*
X0114756Y0201274D03*
X0114816Y0201334D03*
X0114876Y0201394D03*
X0114936Y0201454D03*
X0115416Y0202054D03*
X0116136Y0202894D03*
X0116196Y0202954D03*
X0116256Y0203014D03*
X0116736Y0203614D03*
X0116856Y0203734D03*
X0120096Y0209074D03*
X0120096Y0209134D03*
X0120036Y0209314D03*
X0120696Y0211714D03*
X0122016Y0212974D03*
X0122016Y0213094D03*
X0122016Y0213214D03*
X0122076Y0213274D03*
X0122076Y0213334D03*
X0122076Y0213394D03*
X0122136Y0213454D03*
X0122136Y0213574D03*
X0122196Y0213634D03*
X0122496Y0214774D03*
X0123936Y0214534D03*
X0123936Y0214414D03*
X0123876Y0214114D03*
X0123756Y0213274D03*
X0123696Y0213214D03*
X0123696Y0213094D03*
X0123636Y0213034D03*
X0123636Y0212974D03*
X0123636Y0212914D03*
X0123576Y0212854D03*
X0123576Y0212734D03*
X0123576Y0212614D03*
X0123516Y0212554D03*
X0124056Y0218014D03*
X0124116Y0218074D03*
X0124056Y0223174D03*
X0126816Y0223894D03*
X0113376Y0218974D03*
X0113556Y0217474D03*
X0111396Y0217474D03*
X0111216Y0218974D03*
X0111396Y0219274D03*
X0111756Y0221914D03*
X0112536Y0222574D03*
X0112596Y0222514D03*
X0106956Y0218794D03*
X0104976Y0218014D03*
X0104616Y0217894D03*
X0104556Y0216034D03*
X0104856Y0212734D03*
X0101856Y0217414D03*
X0101376Y0217534D03*
X0102216Y0225814D03*
X0102276Y0225874D03*
X0108576Y0230974D03*
X0108696Y0231094D03*
X0108756Y0231034D03*
X0108636Y0231214D03*
X0108636Y0231274D03*
X0108576Y0231334D03*
X0108576Y0231454D03*
X0108516Y0231514D03*
X0108456Y0231574D03*
X0108456Y0231694D03*
X0108396Y0231754D03*
X0108336Y0231814D03*
X0108336Y0231934D03*
X0108276Y0231994D03*
X0108216Y0232054D03*
X0108216Y0232174D03*
X0108156Y0232234D03*
X0108096Y0232294D03*
X0108096Y0232414D03*
X0108036Y0232474D03*
X0107976Y0232534D03*
X0107976Y0232654D03*
X0107916Y0232714D03*
X0107856Y0232774D03*
X0107856Y0232894D03*
X0107796Y0232954D03*
X0107736Y0233014D03*
X0107676Y0233134D03*
X0107616Y0233254D03*
X0107556Y0233314D03*
X0107496Y0233494D03*
X0107436Y0233554D03*
X0107376Y0233614D03*
X0107316Y0233794D03*
X0107256Y0233854D03*
X0107136Y0234094D03*
X0107076Y0234154D03*
X0107016Y0234214D03*
X0106956Y0234334D03*
X0106896Y0234454D03*
X0106836Y0234514D03*
X0106776Y0234574D03*
X0106656Y0234814D03*
X0106596Y0234874D03*
X0106536Y0234934D03*
X0106416Y0235174D03*
X0106356Y0235234D03*
X0106296Y0235294D03*
X0106236Y0235414D03*
X0106176Y0235534D03*
X0106116Y0235594D03*
X0106056Y0235654D03*
X0105936Y0235774D03*
X0105816Y0236014D03*
X0105756Y0236074D03*
X0105696Y0236134D03*
X0105456Y0236494D03*
X0105396Y0236554D03*
X0105336Y0236614D03*
X0105096Y0236974D03*
X0105036Y0237034D03*
X0104976Y0237094D03*
X0104496Y0237694D03*
X0104376Y0237814D03*
X0103896Y0238414D03*
X0103296Y0239134D03*
X0102696Y0239854D03*
X0102576Y0239974D03*
X0101976Y0240694D03*
X0105456Y0239974D03*
X0105576Y0239854D03*
X0106176Y0239014D03*
X0106416Y0238654D03*
X0106896Y0237934D03*
X0107256Y0237334D03*
X0107376Y0237094D03*
X0108216Y0235414D03*
X0108336Y0235174D03*
X0108576Y0234574D03*
X0108816Y0233974D03*
X0109056Y0233374D03*
X0109176Y0233134D03*
X0109176Y0233014D03*
X0109296Y0232774D03*
X0109356Y0232594D03*
X0109416Y0232414D03*
X0109656Y0231814D03*
X0109776Y0231454D03*
X0109836Y0231274D03*
X0109896Y0231214D03*
X0111096Y0230854D03*
X0112776Y0214894D03*
X0114216Y0214894D03*
X0110556Y0204994D03*
X0110616Y0201694D03*
D20*
X0110196Y0201694D03*
X0110196Y0198214D03*
X0110796Y0196714D03*
X0110796Y0196654D03*
X0120636Y0211774D03*
X0122136Y0213814D03*
X0122136Y0213874D03*
X0116436Y0216934D03*
X0112536Y0216994D03*
X0112296Y0214594D03*
X0112236Y0219454D03*
X0111096Y0220114D03*
X0110736Y0220594D03*
X0111936Y0221554D03*
X0126696Y0223834D03*
D21*
X0126306Y0221854D03*
X0123306Y0222874D03*
X0124026Y0217894D03*
X0122526Y0214954D03*
X0122526Y0214894D03*
X0122106Y0213514D03*
X0122046Y0213154D03*
X0121986Y0213034D03*
X0123486Y0212494D03*
X0123546Y0212674D03*
X0123606Y0212794D03*
X0123906Y0214234D03*
X0123906Y0214294D03*
X0120726Y0211654D03*
X0116886Y0203794D03*
X0116826Y0203674D03*
X0116646Y0203494D03*
X0116526Y0203374D03*
X0116406Y0203194D03*
X0116346Y0203134D03*
X0116286Y0203074D03*
X0116106Y0202834D03*
X0115386Y0201994D03*
X0115326Y0201934D03*
X0115026Y0201574D03*
X0114606Y0201094D03*
X0113826Y0200134D03*
X0113646Y0199954D03*
X0113586Y0199894D03*
X0113346Y0199594D03*
X0112386Y0198454D03*
X0112326Y0198394D03*
X0112206Y0198274D03*
X0112026Y0198034D03*
X0111846Y0197854D03*
X0111486Y0197434D03*
X0111306Y0197194D03*
X0111246Y0197134D03*
X0110946Y0196774D03*
X0110646Y0200734D03*
X0110646Y0200854D03*
X0110646Y0200974D03*
X0110646Y0201094D03*
X0110646Y0201214D03*
X0110586Y0202534D03*
X0110586Y0202654D03*
X0110586Y0202774D03*
X0110586Y0202894D03*
X0110586Y0203014D03*
X0110586Y0203134D03*
X0110586Y0203254D03*
X0110586Y0203374D03*
X0110586Y0220954D03*
X0102246Y0225754D03*
X0107706Y0233074D03*
X0107646Y0233194D03*
X0107526Y0233374D03*
X0107526Y0233434D03*
X0107346Y0233674D03*
X0107346Y0233734D03*
X0107226Y0233914D03*
X0106986Y0234274D03*
X0106926Y0234394D03*
X0106746Y0234694D03*
X0106686Y0234754D03*
X0106446Y0235114D03*
X0106206Y0235474D03*
X0106026Y0235714D03*
X0105906Y0235894D03*
X0105846Y0235954D03*
X0105606Y0236254D03*
X0105546Y0236374D03*
X0105486Y0236434D03*
X0105306Y0236674D03*
X0105246Y0236734D03*
X0105186Y0236854D03*
X0104946Y0237154D03*
X0104886Y0237214D03*
X0104826Y0237274D03*
X0104706Y0237454D03*
X0104586Y0237574D03*
X0104526Y0237634D03*
X0104286Y0237934D03*
X0104106Y0238174D03*
X0104046Y0238234D03*
X0103986Y0238294D03*
X0103806Y0238534D03*
X0103686Y0238654D03*
X0103506Y0238894D03*
X0103386Y0239014D03*
X0103206Y0239254D03*
X0103086Y0239374D03*
X0102786Y0239734D03*
X0102606Y0239914D03*
X0102486Y0240094D03*
X0102006Y0240634D03*
X0101886Y0240814D03*
X0101826Y0240874D03*
X0105486Y0239914D03*
X0105846Y0239494D03*
X0105906Y0239374D03*
X0106086Y0239134D03*
X0106206Y0238954D03*
X0106506Y0238534D03*
X0106686Y0238294D03*
X0106686Y0238234D03*
X0106746Y0238174D03*
X0107046Y0237694D03*
X0107106Y0237574D03*
X0107406Y0237034D03*
X0107526Y0236854D03*
X0107526Y0236794D03*
X0107586Y0236734D03*
X0107646Y0236614D03*
X0107646Y0236554D03*
X0107706Y0236494D03*
X0107826Y0236254D03*
X0107886Y0236134D03*
X0107886Y0236074D03*
X0107946Y0236014D03*
X0108006Y0235894D03*
X0108006Y0235834D03*
X0108126Y0235654D03*
X0108126Y0235594D03*
X0108426Y0234994D03*
X0108426Y0234934D03*
X0108486Y0234814D03*
X0108486Y0234754D03*
X0108726Y0234214D03*
X0108726Y0234154D03*
X0108786Y0234094D03*
X0108906Y0233794D03*
X0108906Y0233734D03*
X0109146Y0233194D03*
X0109206Y0232954D03*
X0109326Y0232654D03*
X0109386Y0232534D03*
X0109446Y0232354D03*
X0109446Y0232294D03*
X0109506Y0232234D03*
X0109506Y0232174D03*
X0109626Y0231874D03*
X0109686Y0231694D03*
X0109686Y0231634D03*
X0109746Y0231574D03*
D22*
X0109566Y0231994D03*
X0109566Y0232054D03*
X0109266Y0232894D03*
X0108966Y0233554D03*
X0108966Y0233614D03*
X0108666Y0234334D03*
X0108666Y0234394D03*
X0108366Y0235054D03*
X0107766Y0236314D03*
X0107766Y0236374D03*
X0106266Y0235354D03*
X0107166Y0234034D03*
X0107166Y0233974D03*
X0108666Y0231154D03*
X0106866Y0237994D03*
X0106266Y0238894D03*
X0105366Y0240094D03*
X0105066Y0240454D03*
X0103266Y0239194D03*
X0103866Y0238474D03*
X0104466Y0237754D03*
X0104766Y0237334D03*
X0102066Y0240574D03*
X0122466Y0214654D03*
X0122466Y0214594D03*
X0123966Y0214594D03*
X0123666Y0213154D03*
X0120066Y0209254D03*
X0120066Y0209194D03*
X0116466Y0203254D03*
X0114966Y0201514D03*
X0114666Y0201154D03*
X0113466Y0199714D03*
X0113166Y0199414D03*
X0111966Y0197974D03*
X0111666Y0197614D03*
D23*
X0110646Y0197914D03*
X0110646Y0198034D03*
X0110646Y0198154D03*
X0110586Y0204634D03*
X0110586Y0204754D03*
X0110586Y0204874D03*
X0115446Y0215434D03*
X0110886Y0221254D03*
X0110946Y0221314D03*
X0111186Y0221494D03*
X0110586Y0221014D03*
X0111846Y0222034D03*
X0112686Y0222754D03*
X0113046Y0223114D03*
X0113946Y0224134D03*
X0114246Y0228334D03*
X0114186Y0228574D03*
X0113886Y0229054D03*
X0113346Y0229654D03*
X0102186Y0225634D03*
X0102186Y0225574D03*
X0101946Y0225214D03*
X0101286Y0224254D03*
X0100986Y0223654D03*
X0100746Y0223174D03*
X0100686Y0223054D03*
X0100446Y0222454D03*
X0100146Y0221014D03*
X0100146Y0220414D03*
X0100146Y0220294D03*
X0100446Y0218734D03*
X0100746Y0218014D03*
X0101046Y0217714D03*
X0105186Y0218134D03*
X0120786Y0211594D03*
X0122046Y0212794D03*
X0122046Y0212854D03*
X0101946Y0240754D03*
D24*
X0101736Y0241054D03*
X0101676Y0241114D03*
X0105036Y0240634D03*
X0105036Y0240514D03*
X0105576Y0230854D03*
X0105396Y0230794D03*
X0106296Y0230854D03*
X0106596Y0230794D03*
X0106956Y0230674D03*
X0107556Y0230554D03*
X0107796Y0230674D03*
X0108036Y0230794D03*
X0108876Y0229954D03*
X0109176Y0230014D03*
X0109296Y0230014D03*
X0109416Y0230014D03*
X0109536Y0230014D03*
X0109656Y0230014D03*
X0109836Y0229954D03*
X0110076Y0231034D03*
X0110136Y0231094D03*
X0110796Y0230914D03*
X0110856Y0230974D03*
X0110916Y0230914D03*
X0111036Y0230914D03*
X0111336Y0230854D03*
X0111696Y0230734D03*
X0111996Y0230554D03*
X0112236Y0230434D03*
X0112476Y0230314D03*
X0112836Y0230074D03*
X0112956Y0229954D03*
X0113316Y0229714D03*
X0113436Y0229594D03*
X0113556Y0229474D03*
X0113616Y0229414D03*
X0113676Y0229354D03*
X0113916Y0228994D03*
X0113976Y0228934D03*
X0114036Y0228874D03*
X0114036Y0228754D03*
X0114096Y0228694D03*
X0114156Y0228634D03*
X0114156Y0228514D03*
X0114216Y0228454D03*
X0114276Y0228394D03*
X0114276Y0228274D03*
X0114336Y0228154D03*
X0114336Y0228094D03*
X0114336Y0227974D03*
X0114396Y0227914D03*
X0114396Y0227794D03*
X0114396Y0227734D03*
X0114396Y0227674D03*
X0114396Y0227554D03*
X0114456Y0227494D03*
X0114396Y0227434D03*
X0114456Y0227374D03*
X0114396Y0227314D03*
X0114396Y0227194D03*
X0114396Y0227074D03*
X0114396Y0227014D03*
X0114396Y0226954D03*
X0114396Y0226834D03*
X0114456Y0226774D03*
X0114396Y0226714D03*
X0114276Y0225034D03*
X0114276Y0224914D03*
X0114276Y0224794D03*
X0114216Y0224734D03*
X0114216Y0224614D03*
X0114156Y0224554D03*
X0114156Y0224434D03*
X0114096Y0224374D03*
X0114036Y0224314D03*
X0113916Y0224074D03*
X0113856Y0224014D03*
X0113796Y0223954D03*
X0113676Y0223834D03*
X0113616Y0223714D03*
X0113556Y0223474D03*
X0113436Y0223474D03*
X0113196Y0223234D03*
X0112956Y0222994D03*
X0112356Y0222514D03*
X0112236Y0222394D03*
X0111996Y0222154D03*
X0111396Y0221674D03*
X0111336Y0221614D03*
X0111276Y0221554D03*
X0110796Y0221194D03*
X0110736Y0221134D03*
X0110676Y0221074D03*
X0110196Y0220714D03*
X0110136Y0220654D03*
X0110076Y0220594D03*
X0112056Y0218974D03*
X0112176Y0218974D03*
X0112296Y0218974D03*
X0112716Y0220114D03*
X0112536Y0217534D03*
X0112176Y0217534D03*
X0112416Y0217054D03*
X0112536Y0217054D03*
X0112656Y0217054D03*
X0113496Y0217534D03*
X0113616Y0217534D03*
X0114336Y0215734D03*
X0113796Y0215554D03*
X0113616Y0215494D03*
X0113076Y0215434D03*
X0112956Y0215434D03*
X0112836Y0215434D03*
X0112536Y0215014D03*
X0112236Y0215074D03*
X0112296Y0215494D03*
X0111816Y0215614D03*
X0111636Y0215434D03*
X0111696Y0215374D03*
X0111756Y0215314D03*
X0111516Y0215554D03*
X0111456Y0215674D03*
X0111396Y0215794D03*
X0112416Y0214654D03*
X0112596Y0214594D03*
X0112956Y0214834D03*
X0113016Y0214894D03*
X0113256Y0214774D03*
X0113316Y0214834D03*
X0113376Y0214774D03*
X0113436Y0214834D03*
X0113496Y0214774D03*
X0113556Y0214834D03*
X0113616Y0214774D03*
X0113676Y0214834D03*
X0113736Y0214774D03*
X0113796Y0214834D03*
X0113856Y0214774D03*
X0113856Y0214654D03*
X0113976Y0214654D03*
X0113976Y0214894D03*
X0113736Y0214654D03*
X0113616Y0214654D03*
X0113496Y0214654D03*
X0113376Y0214654D03*
X0113376Y0214534D03*
X0113076Y0214474D03*
X0113736Y0214294D03*
X0114216Y0214174D03*
X0114396Y0214114D03*
X0114516Y0214234D03*
X0114696Y0214174D03*
X0115176Y0214054D03*
X0115536Y0213934D03*
X0115956Y0213634D03*
X0116076Y0213754D03*
X0117216Y0213334D03*
X0117636Y0213034D03*
X0117756Y0213154D03*
X0117816Y0212974D03*
X0118176Y0212854D03*
X0118596Y0212674D03*
X0120816Y0211534D03*
X0122016Y0212734D03*
X0123396Y0212434D03*
X0124116Y0214774D03*
X0122496Y0215134D03*
X0123096Y0216934D03*
X0123216Y0216934D03*
X0123336Y0216934D03*
X0123456Y0216934D03*
X0123576Y0216934D03*
X0123696Y0216934D03*
X0123936Y0217654D03*
X0123996Y0217714D03*
X0124296Y0217534D03*
X0123756Y0218674D03*
X0123456Y0218614D03*
X0123036Y0218554D03*
X0122856Y0218494D03*
X0122736Y0218494D03*
X0122916Y0217834D03*
X0122496Y0219214D03*
X0122856Y0219334D03*
X0123696Y0219694D03*
X0124176Y0221014D03*
X0123996Y0222394D03*
X0123516Y0222874D03*
X0123336Y0222934D03*
X0123336Y0223654D03*
X0123456Y0223654D03*
X0123576Y0223654D03*
X0123516Y0223834D03*
X0123396Y0223834D03*
X0123276Y0223834D03*
X0123336Y0224134D03*
X0123216Y0224134D03*
X0123636Y0224194D03*
X0123756Y0224194D03*
X0123936Y0223894D03*
X0124056Y0223894D03*
X0124116Y0223714D03*
X0123996Y0223714D03*
X0123876Y0223714D03*
X0124776Y0223654D03*
X0124896Y0223654D03*
X0125016Y0223654D03*
X0125016Y0223774D03*
X0124896Y0223774D03*
X0124956Y0223954D03*
X0124836Y0223954D03*
X0125316Y0223834D03*
X0125436Y0223834D03*
X0125556Y0223834D03*
X0125676Y0223834D03*
X0125796Y0223834D03*
X0125916Y0223834D03*
X0126036Y0223714D03*
X0126156Y0223714D03*
X0126216Y0223894D03*
X0125796Y0223714D03*
X0125676Y0223714D03*
X0125736Y0224734D03*
X0125436Y0224794D03*
X0125676Y0226234D03*
X0125796Y0226234D03*
X0126096Y0227134D03*
X0125376Y0227134D03*
X0125196Y0227074D03*
X0124536Y0227014D03*
X0124416Y0227014D03*
X0124296Y0227014D03*
X0124356Y0226834D03*
X0124476Y0226834D03*
X0124236Y0226834D03*
X0124236Y0226714D03*
X0124116Y0226714D03*
X0123996Y0226714D03*
X0123816Y0226774D03*
X0123696Y0226774D03*
X0123576Y0226774D03*
X0123636Y0226954D03*
X0123756Y0226954D03*
X0123876Y0226954D03*
X0123516Y0226954D03*
X0123216Y0226654D03*
X0123096Y0226654D03*
X0122976Y0226654D03*
X0122676Y0226714D03*
X0122556Y0226714D03*
X0122556Y0226594D03*
X0122436Y0226594D03*
X0122436Y0226714D03*
X0122316Y0226594D03*
X0122376Y0226894D03*
X0122496Y0226894D03*
X0122616Y0226894D03*
X0122736Y0226894D03*
X0122016Y0226654D03*
X0121896Y0226654D03*
X0121776Y0226654D03*
X0121836Y0226834D03*
X0121956Y0226834D03*
X0121716Y0226834D03*
X0121536Y0226534D03*
X0121416Y0226534D03*
X0121296Y0226534D03*
X0120876Y0226474D03*
X0120876Y0226594D03*
X0120756Y0226594D03*
X0120756Y0226474D03*
X0120636Y0226474D03*
X0120636Y0226594D03*
X0120516Y0226594D03*
X0120576Y0226774D03*
X0120696Y0226774D03*
X0120816Y0226774D03*
X0120216Y0226534D03*
X0120096Y0226534D03*
X0121056Y0225574D03*
X0121176Y0225574D03*
X0121236Y0225394D03*
X0121356Y0225394D03*
X0121596Y0225634D03*
X0121716Y0225634D03*
X0121776Y0225454D03*
X0121896Y0225454D03*
X0122376Y0225694D03*
X0122496Y0225694D03*
X0122556Y0225514D03*
X0122676Y0225514D03*
X0122916Y0225754D03*
X0123036Y0225754D03*
X0123096Y0225574D03*
X0123216Y0225574D03*
X0123576Y0225814D03*
X0123696Y0225814D03*
X0123996Y0225634D03*
X0122556Y0224074D03*
X0122436Y0224074D03*
X0122496Y0223774D03*
X0122616Y0223774D03*
X0122676Y0223594D03*
X0122556Y0223594D03*
X0122436Y0223594D03*
X0122376Y0223774D03*
X0122076Y0223714D03*
X0121956Y0223714D03*
X0121836Y0223714D03*
X0121896Y0223534D03*
X0122016Y0223534D03*
X0122016Y0224014D03*
X0121896Y0224014D03*
X0119436Y0220954D03*
X0119136Y0220894D03*
X0119016Y0220894D03*
X0118596Y0220834D03*
X0118416Y0220774D03*
X0118116Y0220714D03*
X0117516Y0220594D03*
X0117336Y0220534D03*
X0117036Y0220474D03*
X0116856Y0220414D03*
X0116556Y0216874D03*
X0116496Y0216694D03*
X0116436Y0216634D03*
X0116376Y0216454D03*
X0116316Y0216394D03*
X0116256Y0216334D03*
X0116196Y0216274D03*
X0116196Y0216154D03*
X0116076Y0216034D03*
X0116016Y0215974D03*
X0115956Y0215914D03*
X0115896Y0215854D03*
X0115836Y0215794D03*
X0115776Y0215734D03*
X0115716Y0215674D03*
X0115656Y0215614D03*
X0115596Y0215554D03*
X0115236Y0215314D03*
X0114756Y0214834D03*
X0114576Y0214774D03*
X0114456Y0214894D03*
X0114396Y0214714D03*
X0115476Y0216634D03*
X0115596Y0216754D03*
X0115776Y0216694D03*
X0116676Y0216514D03*
X0116796Y0216514D03*
X0116916Y0216514D03*
X0117036Y0216514D03*
X0117576Y0216454D03*
X0117756Y0216394D03*
X0118056Y0216334D03*
X0121776Y0219094D03*
X0125556Y0219154D03*
X0126936Y0224074D03*
X0119616Y0231694D03*
X0119016Y0231934D03*
X0118596Y0231994D03*
X0118476Y0231994D03*
X0118056Y0232174D03*
X0117756Y0232234D03*
X0117456Y0232294D03*
X0117336Y0232294D03*
X0117216Y0232294D03*
X0117096Y0232294D03*
X0116796Y0232234D03*
X0116436Y0232114D03*
X0116256Y0232054D03*
X0108336Y0223894D03*
X0107796Y0223714D03*
X0107616Y0223654D03*
X0107316Y0223594D03*
X0106596Y0223594D03*
X0105696Y0223894D03*
X0105636Y0223954D03*
X0102156Y0225514D03*
X0102096Y0225454D03*
X0102036Y0225394D03*
X0101916Y0225274D03*
X0101916Y0225154D03*
X0101856Y0225094D03*
X0101796Y0225034D03*
X0101736Y0224974D03*
X0101676Y0224794D03*
X0101616Y0224734D03*
X0101556Y0224674D03*
X0101496Y0224614D03*
X0101496Y0224554D03*
X0101436Y0224434D03*
X0101376Y0224374D03*
X0101316Y0224314D03*
X0101256Y0224134D03*
X0101196Y0224074D03*
X0101136Y0223954D03*
X0101076Y0223834D03*
X0101016Y0223774D03*
X0100956Y0223594D03*
X0100896Y0223534D03*
X0100836Y0223354D03*
X0100776Y0223294D03*
X0100776Y0223234D03*
X0100716Y0223114D03*
X0100656Y0222934D03*
X0100596Y0222874D03*
X0100596Y0222754D03*
X0100536Y0222694D03*
X0100536Y0222634D03*
X0100536Y0222574D03*
X0100476Y0222514D03*
X0100476Y0222394D03*
X0100416Y0222334D03*
X0100416Y0222214D03*
X0100356Y0222154D03*
X0100356Y0222034D03*
X0100296Y0221974D03*
X0100296Y0221914D03*
X0100296Y0221854D03*
X0100236Y0221794D03*
X0100236Y0221674D03*
X0100236Y0221554D03*
X0100176Y0221494D03*
X0100176Y0221434D03*
X0100176Y0221374D03*
X0100176Y0221314D03*
X0100176Y0221254D03*
X0100116Y0221194D03*
X0100176Y0221134D03*
X0100116Y0221074D03*
X0100116Y0220954D03*
X0100116Y0220894D03*
X0100116Y0220834D03*
X0100116Y0220774D03*
X0100116Y0220714D03*
X0100116Y0220654D03*
X0100116Y0220594D03*
X0100116Y0220534D03*
X0100116Y0220474D03*
X0100116Y0220354D03*
X0100116Y0220234D03*
X0100176Y0220174D03*
X0100116Y0220114D03*
X0100176Y0220054D03*
X0100176Y0219934D03*
X0100176Y0219874D03*
X0100176Y0219814D03*
X0100176Y0219694D03*
X0100236Y0219634D03*
X0100236Y0219514D03*
X0100236Y0219394D03*
X0100296Y0219334D03*
X0100356Y0219274D03*
X0100356Y0219154D03*
X0100416Y0219094D03*
X0100416Y0218974D03*
X0100416Y0218914D03*
X0100416Y0218854D03*
X0100476Y0218794D03*
X0100476Y0218674D03*
X0100476Y0218614D03*
X0100476Y0218554D03*
X0100536Y0218494D03*
X0100536Y0218434D03*
X0100536Y0218374D03*
X0100596Y0218314D03*
X0100596Y0218194D03*
X0100656Y0218134D03*
X0100716Y0218074D03*
X0101136Y0217654D03*
X0101436Y0217474D03*
X0101556Y0217474D03*
X0101616Y0217414D03*
X0101676Y0217474D03*
X0102036Y0217354D03*
X0102096Y0217414D03*
X0102156Y0217354D03*
X0102216Y0217414D03*
X0102276Y0217354D03*
X0102336Y0217414D03*
X0102396Y0217354D03*
X0102456Y0217414D03*
X0102516Y0217354D03*
X0102576Y0217414D03*
X0102636Y0217354D03*
X0102696Y0217414D03*
X0102756Y0217354D03*
X0103716Y0217714D03*
X0103896Y0217774D03*
X0104196Y0217834D03*
X0104376Y0217894D03*
X0104796Y0217954D03*
X0104916Y0217954D03*
X0105756Y0218434D03*
X0105996Y0218554D03*
X0106116Y0218674D03*
X0106236Y0218674D03*
X0106716Y0218794D03*
X0106776Y0218734D03*
X0106896Y0218734D03*
X0107016Y0218854D03*
X0107376Y0218854D03*
X0107436Y0218914D03*
X0107496Y0218974D03*
X0107556Y0218914D03*
X0107676Y0219034D03*
X0107076Y0216634D03*
X0106956Y0216634D03*
X0106836Y0216634D03*
X0106716Y0216634D03*
X0106596Y0216634D03*
X0106476Y0216634D03*
X0106356Y0216634D03*
X0106236Y0216634D03*
X0106116Y0216634D03*
X0105996Y0216634D03*
X0105876Y0216634D03*
X0105756Y0216634D03*
X0105576Y0216574D03*
X0105516Y0216514D03*
X0104316Y0216034D03*
X0105636Y0213514D03*
X0104916Y0212674D03*
X0104796Y0212674D03*
X0104616Y0212734D03*
X0103716Y0212914D03*
X0103416Y0212854D03*
X0103296Y0212854D03*
X0103176Y0212854D03*
X0103056Y0212854D03*
X0102936Y0212854D03*
X0102276Y0213514D03*
X0106296Y0212494D03*
X0106416Y0212494D03*
X0106536Y0212494D03*
X0106716Y0211594D03*
X0106836Y0211594D03*
X0106956Y0211594D03*
X0107016Y0213334D03*
X0107316Y0213874D03*
X0107496Y0213934D03*
X0107616Y0213934D03*
X0107736Y0213934D03*
X0107856Y0213934D03*
X0107976Y0213934D03*
X0108096Y0213934D03*
X0108216Y0213934D03*
X0108336Y0213934D03*
X0108456Y0213934D03*
X0108576Y0213934D03*
X0108696Y0213934D03*
X0108216Y0214174D03*
X0108096Y0214174D03*
X0107976Y0214174D03*
X0107856Y0214174D03*
X0107736Y0214174D03*
X0107616Y0214174D03*
X0107496Y0214174D03*
X0107376Y0214174D03*
X0107256Y0214174D03*
X0107136Y0214174D03*
X0107016Y0214174D03*
X0106896Y0214174D03*
X0108516Y0213394D03*
X0111816Y0212254D03*
X0112296Y0212134D03*
X0113736Y0211774D03*
X0114216Y0211654D03*
X0114516Y0211594D03*
X0116316Y0210874D03*
X0114036Y0209074D03*
X0113016Y0209374D03*
X0112716Y0209434D03*
X0112536Y0209494D03*
X0111756Y0206434D03*
X0112176Y0206254D03*
X0112356Y0206194D03*
X0112776Y0206014D03*
X0112836Y0205834D03*
X0112956Y0205834D03*
X0113076Y0205834D03*
X0112716Y0205114D03*
X0112596Y0205114D03*
X0112476Y0205114D03*
X0112056Y0205054D03*
X0111936Y0205054D03*
X0111816Y0205054D03*
X0111696Y0205054D03*
X0111696Y0205774D03*
X0111816Y0205774D03*
X0111576Y0205774D03*
X0111456Y0205774D03*
X0111036Y0205714D03*
X0110916Y0205714D03*
X0110796Y0205714D03*
X0111276Y0204154D03*
X0111396Y0204154D03*
X0111516Y0204154D03*
X0111636Y0204154D03*
X0112056Y0204214D03*
X0112176Y0204214D03*
X0112296Y0204214D03*
X0112416Y0204214D03*
X0112416Y0203494D03*
X0112296Y0203494D03*
X0112176Y0203494D03*
X0112836Y0203554D03*
X0112956Y0203554D03*
X0113076Y0203554D03*
X0113316Y0204274D03*
X0113436Y0204274D03*
X0113556Y0204274D03*
X0113976Y0204334D03*
X0114096Y0204334D03*
X0114216Y0204334D03*
X0114336Y0204334D03*
X0114636Y0203674D03*
X0114756Y0203674D03*
X0114876Y0203674D03*
X0114216Y0203614D03*
X0114096Y0203614D03*
X0113976Y0203614D03*
X0113976Y0202654D03*
X0113856Y0202654D03*
X0113736Y0202654D03*
X0113316Y0202594D03*
X0113196Y0202594D03*
X0113076Y0202594D03*
X0112836Y0201874D03*
X0112716Y0201874D03*
X0112296Y0201814D03*
X0112176Y0201814D03*
X0112056Y0201814D03*
X0112056Y0202534D03*
X0112176Y0202534D03*
X0112296Y0202534D03*
X0111636Y0202474D03*
X0111516Y0202474D03*
X0111396Y0202474D03*
X0111276Y0201754D03*
X0111156Y0201754D03*
X0110376Y0202414D03*
X0110256Y0202414D03*
X0110376Y0203374D03*
X0111036Y0203434D03*
X0111156Y0203434D03*
X0111276Y0203434D03*
X0110376Y0204094D03*
X0110256Y0204094D03*
X0110136Y0204094D03*
X0110016Y0204094D03*
X0110376Y0200614D03*
X0109956Y0200554D03*
X0111036Y0199954D03*
X0111156Y0199954D03*
X0111816Y0200014D03*
X0111936Y0200014D03*
X0112236Y0200074D03*
X0112356Y0200074D03*
X0113016Y0200134D03*
X0113136Y0200134D03*
X0113436Y0200194D03*
X0113556Y0200194D03*
X0114216Y0200254D03*
X0114336Y0200254D03*
X0114636Y0200314D03*
X0114756Y0200314D03*
X0115236Y0201034D03*
X0115176Y0202054D03*
X0115716Y0202114D03*
X0115836Y0202114D03*
X0115956Y0202114D03*
X0115656Y0202774D03*
X0115536Y0202774D03*
X0115416Y0202774D03*
X0114996Y0202714D03*
X0114876Y0202714D03*
X0114756Y0202714D03*
X0114516Y0201994D03*
X0114396Y0201994D03*
X0114276Y0201994D03*
X0113856Y0201934D03*
X0113736Y0201934D03*
X0113616Y0201934D03*
X0113796Y0200914D03*
X0113916Y0200914D03*
X0114036Y0200914D03*
X0113136Y0200854D03*
X0113016Y0200854D03*
X0112716Y0200794D03*
X0112596Y0200794D03*
X0112476Y0200794D03*
X0111816Y0200734D03*
X0111696Y0200734D03*
X0111396Y0200674D03*
X0111276Y0200674D03*
X0111336Y0199054D03*
X0111216Y0199054D03*
X0111036Y0198994D03*
X0110916Y0198994D03*
X0110376Y0198934D03*
X0110076Y0198874D03*
X0110496Y0198214D03*
X0111336Y0198334D03*
X0111456Y0198334D03*
X0111636Y0198394D03*
X0111756Y0198394D03*
X0111876Y0199114D03*
X0112296Y0199174D03*
X0112836Y0199234D03*
X0113136Y0198574D03*
X0113436Y0198634D03*
X0113796Y0199354D03*
X0116436Y0202834D03*
X0116556Y0202834D03*
X0116676Y0202834D03*
X0116676Y0203794D03*
X0116556Y0203794D03*
X0116436Y0203794D03*
X0116016Y0203734D03*
X0115896Y0203734D03*
X0115776Y0203734D03*
X0115596Y0204394D03*
X0115476Y0204394D03*
X0115356Y0204394D03*
X0115236Y0204394D03*
X0116016Y0204454D03*
X0116136Y0204454D03*
X0116256Y0204454D03*
X0116376Y0204454D03*
X0117876Y0204394D03*
X0117996Y0204394D03*
X0118116Y0204394D03*
X0118236Y0204394D03*
X0118356Y0204394D03*
X0119556Y0206434D03*
X0114756Y0205234D03*
X0114636Y0205234D03*
X0114516Y0205234D03*
X0114096Y0205174D03*
X0113976Y0205174D03*
X0113856Y0205174D03*
X0113736Y0205174D03*
X0111336Y0217534D03*
D25*
X0112536Y0216814D03*
X0112176Y0218854D03*
X0111456Y0219814D03*
X0112236Y0220114D03*
X0112476Y0220714D03*
X0112536Y0222334D03*
X0109956Y0220234D03*
X0106296Y0214174D03*
X0106296Y0214054D03*
X0106296Y0213934D03*
X0106296Y0213814D03*
X0106236Y0213754D03*
X0103236Y0212914D03*
X0104196Y0217714D03*
X0102336Y0226174D03*
X0102396Y0226354D03*
X0109356Y0229954D03*
X0117276Y0232234D03*
X0123096Y0221974D03*
X0123096Y0221854D03*
X0123156Y0221314D03*
X0121536Y0216814D03*
X0121476Y0216634D03*
X0121476Y0216574D03*
X0121476Y0216514D03*
X0121416Y0216454D03*
X0121416Y0216334D03*
X0122136Y0214414D03*
X0122136Y0214294D03*
X0124056Y0213754D03*
X0124056Y0213694D03*
X0124476Y0214114D03*
X0124716Y0214354D03*
X0124836Y0214474D03*
X0124896Y0214534D03*
X0124956Y0214594D03*
X0125556Y0215194D03*
X0125616Y0215254D03*
X0125676Y0215434D03*
X0125676Y0215554D03*
X0125736Y0215614D03*
X0125736Y0215734D03*
X0125736Y0215854D03*
X0125796Y0215914D03*
X0125796Y0215974D03*
X0125796Y0216034D03*
X0120516Y0212074D03*
X0120456Y0212014D03*
X0119856Y0209494D03*
X0120216Y0208654D03*
X0120156Y0208594D03*
X0120096Y0208414D03*
X0112536Y0210814D03*
X0112476Y0210754D03*
X0112476Y0210634D03*
X0112416Y0210574D03*
X0112416Y0210454D03*
X0112356Y0210394D03*
X0112356Y0210334D03*
X0112296Y0210214D03*
X0112296Y0210094D03*
X0112236Y0210034D03*
X0112236Y0209974D03*
X0112176Y0209854D03*
X0112536Y0210934D03*
X0112596Y0211114D03*
X0112656Y0211174D03*
X0112656Y0211294D03*
X0112716Y0211354D03*
X0112716Y0211474D03*
X0112716Y0211594D03*
X0112776Y0211654D03*
X0112836Y0211714D03*
X0112836Y0211834D03*
X0110796Y0211354D03*
X0110676Y0210994D03*
X0110496Y0210094D03*
X0110436Y0210034D03*
X0110376Y0199894D03*
X0110436Y0198274D03*
D26*
X0110616Y0198334D03*
X0119736Y0209734D03*
X0120276Y0212434D03*
X0122016Y0217894D03*
X0123456Y0221014D03*
X0125496Y0221734D03*
X0125496Y0221794D03*
X0125496Y0221854D03*
X0125676Y0223954D03*
X0126636Y0224794D03*
X0126696Y0224854D03*
X0125256Y0218494D03*
X0125316Y0218434D03*
X0125376Y0218374D03*
X0125496Y0218254D03*
X0125856Y0218014D03*
X0125916Y0217954D03*
X0125976Y0217894D03*
X0125676Y0216274D03*
X0113196Y0221194D03*
X0113136Y0221254D03*
X0112416Y0220534D03*
X0112236Y0218554D03*
X0112296Y0217894D03*
X0109896Y0219994D03*
X0106896Y0223654D03*
X0102576Y0226774D03*
X0102516Y0226714D03*
X0103956Y0217594D03*
X0106176Y0214534D03*
X0107736Y0213334D03*
X0107616Y0213094D03*
X0107376Y0212734D03*
D27*
X0107616Y0214294D03*
X0107676Y0214954D03*
X0107616Y0215014D03*
X0107556Y0215074D03*
X0107496Y0215134D03*
X0107376Y0215374D03*
X0107316Y0215434D03*
X0111036Y0217114D03*
X0111336Y0216814D03*
X0112296Y0218014D03*
X0112296Y0218134D03*
X0112296Y0218254D03*
X0109896Y0219934D03*
X0109836Y0219874D03*
X0106956Y0223714D03*
X0102636Y0227074D03*
X0109416Y0229894D03*
X0103776Y0217534D03*
X0103116Y0214834D03*
X0103356Y0213034D03*
X0112536Y0214414D03*
X0117216Y0216334D03*
X0119616Y0209854D03*
X0125556Y0216394D03*
X0122196Y0218554D03*
X0125196Y0221074D03*
X0125256Y0221134D03*
X0125736Y0224014D03*
X0110796Y0198394D03*
D28*
X0111096Y0198454D03*
X0106296Y0211894D03*
X0105396Y0215434D03*
X0106296Y0216334D03*
X0112836Y0215674D03*
X0119736Y0212854D03*
X0124896Y0219694D03*
X0125436Y0222394D03*
X0125736Y0224254D03*
X0125736Y0226774D03*
X0104496Y0229174D03*
X0104436Y0229114D03*
X0104196Y0228874D03*
X0104136Y0228814D03*
D29*
X0105516Y0230014D03*
X0105576Y0230074D03*
X0105636Y0230134D03*
X0105696Y0230194D03*
X0109356Y0229654D03*
X0109836Y0218494D03*
X0112836Y0214174D03*
X0111276Y0209734D03*
X0111216Y0209674D03*
X0111156Y0209494D03*
X0117456Y0204754D03*
X0119556Y0212974D03*
X0117576Y0215914D03*
X0123876Y0219214D03*
X0124296Y0220114D03*
X0124356Y0220174D03*
X0124356Y0220234D03*
X0124416Y0220354D03*
X0124356Y0220414D03*
X0124416Y0220954D03*
X0125736Y0224434D03*
X0125616Y0226714D03*
X0125256Y0226954D03*
X0122196Y0226774D03*
X0106416Y0215914D03*
X0103776Y0215674D03*
X0103776Y0215554D03*
X0106476Y0212434D03*
X0106476Y0212374D03*
X0111336Y0198514D03*
D30*
X0111516Y0198574D03*
X0118956Y0210094D03*
X0119016Y0210394D03*
X0117636Y0215734D03*
X0115296Y0217474D03*
X0115356Y0217594D03*
X0115416Y0217714D03*
X0113076Y0214054D03*
X0109476Y0218974D03*
X0107076Y0224014D03*
X0109296Y0229474D03*
X0117576Y0231874D03*
X0125196Y0222934D03*
X0125136Y0222874D03*
X0122856Y0217474D03*
X0103596Y0213694D03*
X0103476Y0213934D03*
X0103476Y0214054D03*
X0103416Y0214114D03*
X0103476Y0214174D03*
D31*
X0111456Y0209314D03*
X0116076Y0204334D03*
X0118956Y0210454D03*
X0118896Y0210514D03*
X0115416Y0217954D03*
X0115296Y0218554D03*
X0115356Y0218614D03*
X0109296Y0229354D03*
X0111696Y0198634D03*
D32*
X0111756Y0198694D03*
X0111756Y0198814D03*
X0113256Y0200674D03*
X0111756Y0201934D03*
X0118836Y0210574D03*
X0114996Y0217174D03*
X0114996Y0217294D03*
X0115356Y0218254D03*
X0115296Y0218314D03*
X0115356Y0218374D03*
X0114936Y0219034D03*
X0112956Y0215974D03*
X0107136Y0224194D03*
X0124836Y0222694D03*
X0124896Y0222754D03*
X0124836Y0222454D03*
D33*
X0123576Y0219094D03*
X0122976Y0217414D03*
X0119016Y0213334D03*
X0112956Y0215914D03*
X0109716Y0219154D03*
X0109776Y0219214D03*
X0103656Y0214534D03*
X0111876Y0198874D03*
X0111756Y0198754D03*
X0117576Y0231814D03*
D34*
X0107076Y0224074D03*
X0115176Y0218974D03*
X0115236Y0218914D03*
X0115296Y0218794D03*
X0115296Y0218734D03*
X0115356Y0218674D03*
X0115416Y0217774D03*
X0115296Y0217534D03*
X0117636Y0215674D03*
X0119136Y0213214D03*
X0117216Y0204934D03*
X0114996Y0202594D03*
X0112056Y0198934D03*
X0103536Y0214414D03*
X0103596Y0214474D03*
X0124536Y0219934D03*
D35*
X0124386Y0220474D03*
X0124386Y0220534D03*
X0117546Y0215974D03*
X0111186Y0209614D03*
X0111186Y0209554D03*
X0117486Y0204694D03*
X0112386Y0198994D03*
X0106446Y0212314D03*
X0109746Y0219394D03*
X0105186Y0229774D03*
D36*
X0104706Y0229354D03*
X0109326Y0229714D03*
X0115566Y0225874D03*
X0125586Y0223174D03*
X0125586Y0223114D03*
X0125646Y0223294D03*
X0125646Y0223354D03*
X0125706Y0223534D03*
X0125706Y0223594D03*
X0106326Y0216214D03*
X0106326Y0216154D03*
X0106386Y0212074D03*
X0112566Y0199054D03*
D37*
X0112836Y0199114D03*
X0110856Y0200014D03*
X0107856Y0213454D03*
X0107856Y0213514D03*
X0107856Y0213574D03*
X0107856Y0213634D03*
X0107856Y0213694D03*
X0107856Y0213754D03*
X0107856Y0214894D03*
X0105336Y0213094D03*
X0105336Y0212854D03*
X0103356Y0215434D03*
X0103656Y0217414D03*
X0110136Y0217894D03*
X0110736Y0217414D03*
X0110796Y0217354D03*
X0110856Y0217294D03*
X0109836Y0219754D03*
X0112596Y0214354D03*
X0102876Y0227434D03*
X0102936Y0227494D03*
X0105996Y0230674D03*
X0109356Y0229834D03*
X0125976Y0223654D03*
X0124776Y0218674D03*
X0125436Y0216514D03*
X0125496Y0216454D03*
D38*
X0125436Y0221314D03*
X0125436Y0221374D03*
X0125496Y0221434D03*
X0125496Y0221494D03*
X0125496Y0221554D03*
X0124956Y0224734D03*
X0126516Y0224734D03*
X0117276Y0232174D03*
X0112236Y0218494D03*
X0112296Y0218074D03*
X0112296Y0217954D03*
X0111216Y0216874D03*
X0111156Y0216934D03*
X0111096Y0216994D03*
X0110496Y0217474D03*
X0110436Y0217534D03*
X0110376Y0217594D03*
X0112776Y0215554D03*
X0107496Y0215194D03*
X0107376Y0215314D03*
X0103356Y0212974D03*
X0110676Y0209854D03*
X0113076Y0199174D03*
X0120156Y0212494D03*
X0102636Y0226894D03*
X0102576Y0226834D03*
D39*
X0112986Y0221674D03*
X0112506Y0220774D03*
X0112386Y0214534D03*
X0111126Y0212314D03*
X0111006Y0212074D03*
X0111006Y0211954D03*
X0110946Y0211894D03*
X0110946Y0211834D03*
X0110886Y0211714D03*
X0110826Y0211534D03*
X0110826Y0211474D03*
X0110706Y0211174D03*
X0112686Y0211414D03*
X0112746Y0211534D03*
X0112806Y0211774D03*
X0122106Y0214474D03*
X0121926Y0218374D03*
X0123126Y0221374D03*
X0123186Y0222154D03*
X0123426Y0222334D03*
X0123486Y0222394D03*
X0125226Y0214834D03*
X0125106Y0214714D03*
X0124746Y0214414D03*
X0124626Y0214294D03*
X0113346Y0199234D03*
D40*
X0113586Y0199294D03*
X0120126Y0208954D03*
X0120126Y0209014D03*
X0122166Y0213994D03*
X0124146Y0218314D03*
X0112146Y0221314D03*
X0112026Y0221494D03*
X0110646Y0220714D03*
X0111006Y0220234D03*
X0111186Y0219994D03*
D41*
X0109956Y0220174D03*
X0112476Y0220654D03*
X0113256Y0221314D03*
X0113136Y0221434D03*
X0113076Y0221554D03*
X0112956Y0221734D03*
X0112896Y0221794D03*
X0112836Y0221854D03*
X0112776Y0221914D03*
X0112716Y0221974D03*
X0112656Y0222034D03*
X0112596Y0222154D03*
X0112536Y0222274D03*
X0112176Y0218794D03*
X0112356Y0217654D03*
X0117036Y0216454D03*
X0121896Y0217954D03*
X0121896Y0218074D03*
X0121896Y0218194D03*
X0121896Y0218254D03*
X0121896Y0218314D03*
X0121896Y0218434D03*
X0123216Y0221194D03*
X0123156Y0221254D03*
X0123096Y0222034D03*
X0123156Y0222094D03*
X0124536Y0225274D03*
X0124536Y0225634D03*
X0124536Y0225694D03*
X0124536Y0225754D03*
X0125736Y0227074D03*
X0126936Y0225634D03*
X0126936Y0225514D03*
X0126936Y0225394D03*
X0126216Y0217594D03*
X0125736Y0216154D03*
X0125796Y0216094D03*
X0125556Y0215134D03*
X0125496Y0215074D03*
X0125436Y0215014D03*
X0125376Y0214954D03*
X0125316Y0214894D03*
X0125196Y0214774D03*
X0125076Y0214654D03*
X0124476Y0214174D03*
X0124176Y0213874D03*
X0124116Y0213814D03*
X0120396Y0212134D03*
X0119856Y0209554D03*
X0111036Y0212014D03*
X0111036Y0212134D03*
X0110916Y0211774D03*
X0110916Y0211654D03*
X0110856Y0211594D03*
X0110796Y0211414D03*
X0110796Y0211294D03*
X0110736Y0211234D03*
X0110736Y0211114D03*
X0110676Y0211054D03*
X0110676Y0210934D03*
X0110616Y0210874D03*
X0110616Y0210814D03*
X0110616Y0210754D03*
X0110556Y0210694D03*
X0110556Y0210634D03*
X0110556Y0210574D03*
X0110496Y0210514D03*
X0110496Y0210454D03*
X0110496Y0210394D03*
X0110436Y0210334D03*
X0110436Y0210274D03*
X0110436Y0210214D03*
X0110376Y0210154D03*
X0106296Y0213634D03*
X0106236Y0213694D03*
X0106296Y0214234D03*
X0102396Y0226414D03*
X0110496Y0199954D03*
D42*
X0111066Y0200074D03*
X0111006Y0203494D03*
X0106326Y0216274D03*
X0110106Y0218134D03*
X0109806Y0219574D03*
X0103746Y0228454D03*
X0103866Y0228574D03*
X0103926Y0228634D03*
X0103986Y0228694D03*
X0104046Y0228754D03*
X0122586Y0218674D03*
D43*
X0122736Y0217534D03*
X0124596Y0219874D03*
X0124476Y0219994D03*
X0123456Y0225454D03*
X0117636Y0215794D03*
X0114456Y0216814D03*
X0112956Y0215794D03*
X0109476Y0218914D03*
X0103476Y0213874D03*
X0103596Y0213634D03*
X0103656Y0213574D03*
X0111456Y0200134D03*
X0117276Y0204874D03*
D44*
X0111666Y0200194D03*
X0112926Y0215854D03*
X0117666Y0215614D03*
X0107046Y0224134D03*
D45*
X0107196Y0224434D03*
X0109236Y0228994D03*
X0117696Y0231574D03*
X0115176Y0220534D03*
X0114696Y0220414D03*
X0113556Y0213754D03*
X0104556Y0213274D03*
X0104496Y0213214D03*
X0112056Y0200254D03*
X0123276Y0217234D03*
X0123576Y0218734D03*
D46*
X0112746Y0200614D03*
X0112266Y0200314D03*
D47*
X0112416Y0200374D03*
X0113796Y0213514D03*
X0117516Y0214954D03*
X0113136Y0216694D03*
X0113076Y0216754D03*
X0114216Y0219934D03*
X0114156Y0219994D03*
X0114216Y0220054D03*
X0107436Y0224914D03*
X0107376Y0224854D03*
X0109116Y0228514D03*
X0117696Y0231214D03*
X0117756Y0231154D03*
D48*
X0117756Y0231094D03*
X0109056Y0228394D03*
X0107496Y0225034D03*
X0115536Y0220714D03*
X0112476Y0200494D03*
X0112416Y0200434D03*
D49*
X0112506Y0200554D03*
D50*
X0113526Y0200734D03*
X0117186Y0204994D03*
X0119106Y0213274D03*
X0115446Y0217894D03*
X0109326Y0229414D03*
D51*
X0106056Y0230554D03*
X0105096Y0229714D03*
X0105036Y0229654D03*
X0104976Y0229594D03*
X0104856Y0229474D03*
X0109776Y0219514D03*
X0106356Y0216094D03*
X0105276Y0214894D03*
X0103776Y0215914D03*
X0106356Y0212014D03*
X0112776Y0214234D03*
X0117576Y0204634D03*
X0113976Y0200794D03*
X0123936Y0219274D03*
X0124836Y0219574D03*
X0125556Y0223054D03*
X0125676Y0223414D03*
X0125736Y0224314D03*
X0115536Y0225394D03*
D52*
X0117336Y0232054D03*
X0125136Y0223894D03*
X0125736Y0224134D03*
X0125556Y0222274D03*
X0119856Y0212734D03*
X0112656Y0214294D03*
X0110136Y0218014D03*
X0109836Y0219634D03*
X0105456Y0215254D03*
X0105456Y0215194D03*
X0105456Y0215134D03*
X0105456Y0215014D03*
X0105396Y0214954D03*
X0103176Y0227854D03*
X0103236Y0227914D03*
X0103296Y0227974D03*
X0103356Y0228034D03*
X0103476Y0228154D03*
X0103596Y0228274D03*
X0110976Y0201814D03*
X0114216Y0200854D03*
D53*
X0114696Y0200914D03*
X0114876Y0209254D03*
X0114876Y0209374D03*
X0114936Y0209434D03*
X0114996Y0209614D03*
X0114996Y0209734D03*
X0115056Y0209794D03*
X0115176Y0210154D03*
X0115236Y0210334D03*
X0115356Y0210694D03*
X0119736Y0209674D03*
X0120336Y0212314D03*
X0120276Y0212374D03*
X0117096Y0216394D03*
X0112956Y0215494D03*
X0112356Y0217774D03*
X0112236Y0218734D03*
X0109956Y0220054D03*
X0107736Y0213274D03*
X0107496Y0212914D03*
X0107256Y0212554D03*
X0102456Y0226594D03*
X0109476Y0231094D03*
X0122076Y0218494D03*
X0123336Y0221074D03*
X0125736Y0218074D03*
X0126036Y0217834D03*
X0125676Y0216214D03*
X0126756Y0226054D03*
X0126696Y0226114D03*
D54*
X0126816Y0225934D03*
X0126876Y0225874D03*
X0126876Y0225814D03*
X0126876Y0225754D03*
X0126876Y0225154D03*
X0126816Y0225094D03*
X0126816Y0225034D03*
X0126756Y0224914D03*
X0126156Y0217714D03*
X0126156Y0217414D03*
X0124176Y0213934D03*
X0117876Y0209794D03*
X0117876Y0209674D03*
X0117816Y0209614D03*
X0117816Y0209554D03*
X0117816Y0209494D03*
X0117756Y0209434D03*
X0117756Y0209374D03*
X0117756Y0209314D03*
X0117576Y0208894D03*
X0117576Y0208774D03*
X0117516Y0208714D03*
X0117516Y0208594D03*
X0117456Y0208534D03*
X0117456Y0208414D03*
X0115356Y0210754D03*
X0112476Y0214474D03*
X0112356Y0217714D03*
X0109956Y0220114D03*
X0112656Y0222094D03*
X0102456Y0226534D03*
X0110556Y0209914D03*
X0114816Y0200974D03*
D55*
X0116286Y0202774D03*
X0117366Y0208174D03*
X0117426Y0208294D03*
X0117486Y0208474D03*
X0117546Y0208654D03*
X0117846Y0209734D03*
X0115326Y0210574D03*
X0115326Y0210634D03*
X0115266Y0210514D03*
X0115266Y0210454D03*
X0115266Y0210394D03*
X0115206Y0210274D03*
X0115206Y0210214D03*
X0115146Y0210034D03*
X0115086Y0209914D03*
X0115086Y0209854D03*
X0115026Y0209674D03*
X0114966Y0209554D03*
X0114966Y0209494D03*
X0114906Y0209314D03*
X0115386Y0210814D03*
X0115386Y0210874D03*
X0115446Y0210934D03*
X0115446Y0210994D03*
X0110526Y0201754D03*
X0105666Y0212554D03*
X0105666Y0212674D03*
X0105666Y0212734D03*
X0106266Y0213574D03*
X0104046Y0217654D03*
X0124266Y0214054D03*
X0125526Y0218194D03*
X0126786Y0224974D03*
X0126786Y0225994D03*
D56*
X0124386Y0220294D03*
X0124626Y0219454D03*
X0111306Y0201874D03*
X0106446Y0215794D03*
X0106446Y0215854D03*
X0106086Y0230434D03*
D57*
X0109236Y0228934D03*
X0107196Y0224494D03*
X0115296Y0220594D03*
X0113016Y0216274D03*
X0111816Y0209074D03*
X0112296Y0205234D03*
X0112056Y0201994D03*
X0114516Y0202534D03*
X0118596Y0210814D03*
X0118536Y0210874D03*
X0104556Y0213334D03*
X0118896Y0225394D03*
X0117696Y0231514D03*
D58*
X0117756Y0231034D03*
X0109056Y0228334D03*
X0108996Y0228274D03*
X0107556Y0225154D03*
X0117456Y0214894D03*
X0117996Y0213994D03*
X0115056Y0204214D03*
X0112536Y0202054D03*
D59*
X0112776Y0202114D03*
X0112416Y0208594D03*
X0112356Y0208654D03*
X0112416Y0208714D03*
X0112476Y0208894D03*
X0114096Y0213274D03*
X0117636Y0214174D03*
X0117336Y0226714D03*
X0117396Y0226774D03*
X0117816Y0230434D03*
X0117816Y0230554D03*
X0108816Y0227614D03*
X0108816Y0227554D03*
X0107916Y0225814D03*
X0107856Y0225754D03*
D60*
X0117756Y0228034D03*
X0117756Y0228094D03*
X0117756Y0228154D03*
X0117816Y0228214D03*
X0117816Y0228334D03*
X0117816Y0228394D03*
X0117816Y0228454D03*
X0117816Y0228514D03*
X0117816Y0228574D03*
X0117816Y0228694D03*
X0117876Y0228754D03*
X0117816Y0228814D03*
X0117876Y0228874D03*
X0117816Y0228934D03*
X0117876Y0228994D03*
X0117816Y0229054D03*
X0117876Y0229114D03*
X0114336Y0213094D03*
X0116976Y0211774D03*
X0112656Y0208414D03*
X0116016Y0206014D03*
X0113076Y0202174D03*
D61*
X0113106Y0202234D03*
X0114366Y0213034D03*
D62*
X0115296Y0220834D03*
X0113136Y0203794D03*
X0113136Y0202354D03*
X0113136Y0202294D03*
D63*
X0113496Y0202414D03*
X0116076Y0205954D03*
X0117156Y0211714D03*
X0117336Y0214294D03*
X0114276Y0213154D03*
X0117036Y0221194D03*
X0117576Y0227254D03*
X0117576Y0227374D03*
X0117636Y0227434D03*
X0117636Y0227554D03*
X0117816Y0229894D03*
X0117816Y0229954D03*
X0117816Y0230014D03*
X0117816Y0230134D03*
X0108576Y0227014D03*
X0108456Y0226774D03*
X0108336Y0226534D03*
D64*
X0107376Y0224794D03*
X0115476Y0220654D03*
X0113076Y0216574D03*
X0118176Y0213874D03*
X0119136Y0223954D03*
X0114096Y0202474D03*
D65*
X0115416Y0202654D03*
X0119436Y0213034D03*
X0122676Y0217594D03*
X0125136Y0216934D03*
X0124656Y0219814D03*
X0125736Y0224494D03*
X0112896Y0215734D03*
X0112956Y0214114D03*
X0107196Y0214354D03*
X0106476Y0215674D03*
X0106476Y0215734D03*
X0105396Y0214714D03*
X0107076Y0223954D03*
X0109356Y0229594D03*
X0105936Y0230374D03*
X0105876Y0230314D03*
X0105816Y0230254D03*
D66*
X0103506Y0216574D03*
X0103386Y0213094D03*
X0105306Y0212974D03*
X0107886Y0214714D03*
X0107886Y0214774D03*
X0107886Y0214834D03*
X0115926Y0202714D03*
X0120006Y0212674D03*
X0125646Y0221974D03*
D67*
X0122526Y0215074D03*
X0116526Y0216814D03*
X0116406Y0216574D03*
X0116226Y0216214D03*
X0116106Y0216094D03*
X0115506Y0215494D03*
X0111966Y0215194D03*
X0111606Y0215494D03*
X0111426Y0215734D03*
X0111426Y0219394D03*
X0111366Y0219514D03*
X0111126Y0221434D03*
X0111906Y0222094D03*
X0112806Y0222874D03*
X0112866Y0222934D03*
X0113106Y0223174D03*
X0113226Y0223294D03*
X0113526Y0223594D03*
X0113766Y0223894D03*
X0114006Y0224254D03*
X0114126Y0224494D03*
X0114426Y0226894D03*
X0114426Y0227134D03*
X0114426Y0227254D03*
X0114426Y0227614D03*
X0114366Y0227854D03*
X0114306Y0228214D03*
X0113826Y0229114D03*
X0113766Y0229234D03*
X0113466Y0229534D03*
X0113166Y0229834D03*
X0103326Y0239074D03*
X0102006Y0225334D03*
X0101466Y0224494D03*
X0101166Y0224014D03*
X0101106Y0223894D03*
X0100866Y0223414D03*
X0100566Y0222814D03*
X0100326Y0222094D03*
X0100266Y0221734D03*
X0100206Y0221614D03*
X0100206Y0219574D03*
X0100266Y0219454D03*
X0100326Y0219214D03*
X0100626Y0218254D03*
X0100806Y0217894D03*
X0100866Y0217834D03*
X0105426Y0218254D03*
X0118566Y0204334D03*
X0116826Y0202834D03*
D68*
X0110106Y0203374D03*
X0116406Y0216994D03*
X0111426Y0219574D03*
X0104466Y0217834D03*
X0106506Y0235054D03*
X0122166Y0213754D03*
X0122166Y0213694D03*
D69*
X0124236Y0213994D03*
X0120396Y0212194D03*
X0120336Y0212254D03*
X0119796Y0209614D03*
X0117936Y0209854D03*
X0117936Y0209974D03*
X0117696Y0209254D03*
X0117696Y0209194D03*
X0117696Y0209134D03*
X0117636Y0209074D03*
X0117636Y0209014D03*
X0117636Y0208954D03*
X0117396Y0208234D03*
X0117396Y0208114D03*
X0117336Y0208054D03*
X0110436Y0203434D03*
X0105696Y0212494D03*
X0105696Y0212614D03*
X0105636Y0212794D03*
X0106236Y0213514D03*
X0113136Y0221374D03*
X0112536Y0222214D03*
X0105996Y0230794D03*
X0126096Y0217294D03*
X0126936Y0225454D03*
X0126936Y0225574D03*
D70*
X0125736Y0224674D03*
X0125736Y0224554D03*
X0124536Y0219394D03*
X0114696Y0217114D03*
X0114636Y0216934D03*
X0107196Y0214414D03*
X0106536Y0215554D03*
X0111336Y0203554D03*
X0117396Y0204814D03*
D71*
X0116856Y0205234D03*
X0115656Y0204274D03*
X0111876Y0203614D03*
X0118656Y0210754D03*
X0123576Y0218794D03*
X0123516Y0218854D03*
D72*
X0114336Y0219814D03*
X0117696Y0231334D03*
X0112236Y0203674D03*
D73*
X0112776Y0203734D03*
X0117876Y0211114D03*
X0117876Y0211174D03*
X0117876Y0211234D03*
X0117576Y0211534D03*
X0117516Y0214234D03*
X0116916Y0221074D03*
X0117456Y0226894D03*
X0117816Y0230374D03*
X0108756Y0227434D03*
X0107976Y0225934D03*
D74*
X0117276Y0221914D03*
X0117876Y0223714D03*
X0117876Y0223774D03*
X0117876Y0223834D03*
X0117876Y0223894D03*
X0118056Y0226654D03*
X0120396Y0225874D03*
X0116136Y0212074D03*
X0113556Y0203914D03*
X0113496Y0203854D03*
D75*
X0113586Y0203974D03*
X0113046Y0208054D03*
X0114786Y0212674D03*
D76*
X0114756Y0212734D03*
X0115896Y0212194D03*
X0116196Y0212014D03*
X0113616Y0204034D03*
X0117276Y0221974D03*
D77*
X0114606Y0212854D03*
X0115746Y0206254D03*
X0113946Y0204094D03*
D78*
X0114606Y0204154D03*
X0117906Y0211294D03*
X0117486Y0211594D03*
X0107946Y0225874D03*
X0108786Y0227494D03*
X0117366Y0226834D03*
X0117426Y0226954D03*
X0117786Y0230494D03*
D79*
X0121296Y0226714D03*
X0123096Y0226834D03*
X0123756Y0223774D03*
X0125736Y0224194D03*
X0124896Y0219634D03*
X0125316Y0216694D03*
X0122376Y0217714D03*
X0117456Y0216154D03*
X0112956Y0215614D03*
X0110136Y0218074D03*
X0105396Y0215374D03*
X0106296Y0211834D03*
X0106296Y0211774D03*
X0116736Y0204394D03*
X0117636Y0204574D03*
X0103596Y0228334D03*
X0109356Y0229774D03*
D80*
X0106056Y0230614D03*
X0104556Y0229234D03*
X0104376Y0229054D03*
X0104316Y0228994D03*
X0104256Y0228934D03*
X0110076Y0218194D03*
X0106356Y0211954D03*
X0111276Y0205114D03*
X0117576Y0204454D03*
X0117456Y0216094D03*
X0125316Y0216754D03*
X0125676Y0223474D03*
X0123876Y0225514D03*
X0117276Y0231994D03*
X0115476Y0224794D03*
X0115476Y0224674D03*
D81*
X0112956Y0221134D03*
X0113016Y0220954D03*
X0109836Y0219694D03*
X0110136Y0217954D03*
X0107796Y0214654D03*
X0107796Y0214594D03*
X0107796Y0214534D03*
X0106356Y0216454D03*
X0117396Y0216214D03*
X0122076Y0216934D03*
X0122316Y0217774D03*
X0122436Y0218614D03*
X0124836Y0218614D03*
X0124836Y0218554D03*
X0125556Y0222214D03*
X0125556Y0227014D03*
X0119496Y0210034D03*
X0117696Y0204514D03*
X0102996Y0227614D03*
X0103056Y0227674D03*
D82*
X0102606Y0226954D03*
X0110286Y0217714D03*
X0110346Y0217654D03*
X0107586Y0214234D03*
X0107706Y0213394D03*
X0110886Y0205054D03*
X0120126Y0212554D03*
X0122106Y0217834D03*
X0125586Y0216334D03*
X0125346Y0221194D03*
X0125406Y0221254D03*
D83*
X0124866Y0222814D03*
X0123066Y0217354D03*
X0118926Y0213394D03*
X0115386Y0218134D03*
X0109266Y0229234D03*
X0109266Y0229294D03*
X0117066Y0205054D03*
D84*
X0117036Y0205114D03*
X0111576Y0209254D03*
X0112956Y0216034D03*
X0115356Y0218194D03*
X0114876Y0219094D03*
X0114876Y0219154D03*
X0114816Y0219214D03*
X0114756Y0219274D03*
X0114756Y0219334D03*
X0114756Y0219394D03*
X0114816Y0219454D03*
X0114756Y0219514D03*
X0117696Y0215494D03*
X0123516Y0219034D03*
X0125136Y0226654D03*
X0117636Y0231754D03*
X0109656Y0219094D03*
X0109596Y0219034D03*
D85*
X0114966Y0217234D03*
X0115026Y0217354D03*
X0115086Y0217414D03*
X0115386Y0218014D03*
X0115326Y0218434D03*
X0124866Y0222574D03*
X0124866Y0222634D03*
X0111906Y0205174D03*
D86*
X0116976Y0205174D03*
X0118716Y0213514D03*
X0117636Y0215314D03*
X0114636Y0219634D03*
X0114696Y0220174D03*
X0114636Y0220354D03*
X0109236Y0229114D03*
X0117636Y0231634D03*
X0123516Y0218914D03*
X0123216Y0217294D03*
D87*
X0114546Y0205354D03*
X0114546Y0205294D03*
D88*
X0114516Y0205414D03*
X0114576Y0205474D03*
X0114576Y0205594D03*
X0114876Y0206854D03*
X0118716Y0224134D03*
D89*
X0114576Y0205654D03*
X0114576Y0205534D03*
D90*
X0115086Y0205714D03*
D91*
X0115476Y0205774D03*
X0115656Y0206314D03*
X0114696Y0212794D03*
X0117276Y0221854D03*
X0117936Y0225634D03*
D92*
X0117456Y0226594D03*
X0117576Y0227314D03*
X0108636Y0227134D03*
X0108576Y0227074D03*
X0108576Y0226954D03*
X0108276Y0226414D03*
X0108156Y0226174D03*
X0112476Y0208534D03*
X0116136Y0205834D03*
D93*
X0116106Y0205894D03*
X0117306Y0211654D03*
X0108186Y0226294D03*
X0108306Y0226474D03*
X0108366Y0226594D03*
X0108426Y0226654D03*
X0108426Y0226714D03*
X0108486Y0226834D03*
X0108546Y0226894D03*
X0117546Y0227194D03*
D94*
X0117126Y0221374D03*
X0115926Y0206074D03*
D95*
X0115866Y0206134D03*
D96*
X0115836Y0206194D03*
X0112836Y0208234D03*
X0114516Y0212914D03*
X0116856Y0214534D03*
D97*
X0116196Y0211954D03*
X0115656Y0206374D03*
X0115896Y0221014D03*
X0117276Y0222154D03*
X0117336Y0222094D03*
D98*
X0117276Y0222214D03*
X0115716Y0212254D03*
X0115656Y0206434D03*
D99*
X0115656Y0206494D03*
X0115116Y0212434D03*
X0115056Y0212494D03*
D100*
X0115626Y0206554D03*
D101*
X0115566Y0206614D03*
X0113766Y0207514D03*
X0113526Y0207814D03*
X0113526Y0207874D03*
D102*
X0114336Y0207214D03*
X0114696Y0206974D03*
X0115476Y0206674D03*
X0120996Y0224794D03*
D103*
X0115176Y0206734D03*
D104*
X0115146Y0206794D03*
D105*
X0119616Y0206854D03*
X0125616Y0219214D03*
X0111216Y0219934D03*
X0110916Y0220354D03*
X0106416Y0218734D03*
D106*
X0114126Y0207334D03*
X0114786Y0206914D03*
D107*
X0119646Y0206914D03*
X0119646Y0206974D03*
X0119706Y0207154D03*
X0119706Y0207214D03*
X0119766Y0207334D03*
X0119766Y0207394D03*
X0119826Y0207514D03*
X0119826Y0207574D03*
X0119946Y0207874D03*
X0120126Y0208894D03*
X0119946Y0209434D03*
X0123846Y0213454D03*
X0121986Y0214534D03*
X0121926Y0214714D03*
X0121866Y0214834D03*
X0121806Y0215014D03*
X0121806Y0215074D03*
X0121746Y0215134D03*
X0121746Y0215194D03*
X0121686Y0215314D03*
X0121686Y0215374D03*
X0121626Y0215494D03*
X0121566Y0215674D03*
X0121566Y0215734D03*
X0121506Y0215794D03*
X0121506Y0215854D03*
X0121446Y0216034D03*
X0121386Y0216094D03*
X0124206Y0218434D03*
X0123186Y0221614D03*
X0126606Y0223774D03*
X0112206Y0220354D03*
X0112206Y0220294D03*
X0112206Y0220234D03*
X0112206Y0219574D03*
D108*
X0113556Y0207934D03*
X0113496Y0207754D03*
X0113496Y0207694D03*
X0113616Y0207634D03*
X0113676Y0207574D03*
X0113916Y0207454D03*
X0113976Y0207394D03*
X0114216Y0207274D03*
X0114456Y0207154D03*
X0114516Y0207094D03*
X0114576Y0207034D03*
D109*
X0119676Y0207034D03*
X0120156Y0208834D03*
X0119976Y0209374D03*
X0120636Y0211834D03*
X0120576Y0211894D03*
X0122136Y0213934D03*
X0122136Y0214054D03*
X0121956Y0214594D03*
X0121896Y0214774D03*
X0121836Y0214954D03*
X0121596Y0215554D03*
X0121476Y0215914D03*
X0123876Y0213514D03*
X0124176Y0218254D03*
X0124176Y0218374D03*
X0123156Y0221554D03*
X0123156Y0221674D03*
X0123156Y0221794D03*
X0124056Y0223054D03*
X0125736Y0227134D03*
X0116436Y0217114D03*
X0112536Y0216934D03*
X0112356Y0217594D03*
X0112236Y0218914D03*
X0112236Y0219514D03*
X0111276Y0219874D03*
X0111156Y0220054D03*
X0111096Y0220174D03*
X0110976Y0220294D03*
X0110856Y0220414D03*
X0110796Y0220474D03*
X0110736Y0220534D03*
X0110676Y0220654D03*
X0110556Y0220834D03*
X0109956Y0220354D03*
X0111756Y0221794D03*
X0111876Y0221674D03*
X0111936Y0221614D03*
X0112056Y0221374D03*
X0112176Y0221254D03*
X0112236Y0221194D03*
X0112836Y0220474D03*
X0112596Y0222394D03*
X0112536Y0222454D03*
X0106956Y0223594D03*
X0102336Y0226054D03*
X0102276Y0225994D03*
X0105936Y0230854D03*
X0104796Y0212794D03*
D110*
X0106296Y0213994D03*
X0104316Y0217774D03*
X0109956Y0220294D03*
X0110556Y0220774D03*
X0111756Y0221734D03*
X0112176Y0220474D03*
X0112236Y0220174D03*
X0112176Y0219634D03*
X0112536Y0216874D03*
X0112296Y0210154D03*
X0112176Y0209794D03*
X0119856Y0207754D03*
X0119916Y0207814D03*
X0119856Y0207634D03*
X0119796Y0207454D03*
X0119736Y0207274D03*
X0119676Y0207094D03*
X0119976Y0207994D03*
X0119976Y0208114D03*
X0120036Y0208174D03*
X0120096Y0208354D03*
X0120156Y0208774D03*
X0120576Y0211954D03*
X0122136Y0214114D03*
X0122136Y0214174D03*
X0122136Y0214234D03*
X0122136Y0214354D03*
X0121956Y0214654D03*
X0121836Y0214894D03*
X0121716Y0215254D03*
X0121656Y0215434D03*
X0121596Y0215614D03*
X0121476Y0215974D03*
X0121416Y0216154D03*
X0121416Y0216274D03*
X0121416Y0216394D03*
X0124236Y0218494D03*
X0123216Y0221434D03*
X0123156Y0221494D03*
X0123156Y0221734D03*
X0123336Y0222274D03*
X0126576Y0223714D03*
X0123936Y0213634D03*
X0123936Y0213574D03*
X0102336Y0226114D03*
D111*
X0112146Y0220414D03*
X0112446Y0210694D03*
X0112386Y0210514D03*
X0119886Y0207694D03*
X0119946Y0207934D03*
X0120186Y0208714D03*
X0121386Y0216214D03*
X0125646Y0215374D03*
X0125646Y0215314D03*
D112*
X0118116Y0223594D03*
X0118596Y0225754D03*
X0115176Y0212374D03*
X0113556Y0207994D03*
D113*
X0112206Y0209914D03*
X0112326Y0210274D03*
X0112506Y0210874D03*
X0112566Y0210994D03*
X0112626Y0211234D03*
X0106266Y0213874D03*
X0106266Y0214114D03*
X0102366Y0226234D03*
X0121506Y0216754D03*
X0121506Y0216694D03*
X0121566Y0216874D03*
X0125706Y0215674D03*
X0125766Y0215794D03*
X0125706Y0215494D03*
X0125526Y0219274D03*
X0120126Y0208534D03*
X0120126Y0208474D03*
X0120066Y0208294D03*
X0120066Y0208234D03*
X0120006Y0208054D03*
D114*
X0112926Y0208114D03*
D115*
X0112896Y0208174D03*
D116*
X0112716Y0208294D03*
X0116676Y0211894D03*
X0116976Y0214474D03*
X0117156Y0221494D03*
D117*
X0116856Y0211834D03*
X0112656Y0208354D03*
D118*
X0117426Y0208354D03*
X0117606Y0208834D03*
X0117906Y0209914D03*
X0117966Y0210034D03*
X0121866Y0218014D03*
X0121866Y0218134D03*
X0123246Y0221134D03*
X0123186Y0222214D03*
X0124566Y0225814D03*
X0124566Y0225874D03*
X0126906Y0225694D03*
X0126906Y0225334D03*
X0126906Y0225274D03*
X0126906Y0225214D03*
X0126186Y0217654D03*
X0126186Y0217534D03*
X0126186Y0217474D03*
X0126126Y0217354D03*
X0126066Y0217234D03*
X0113106Y0221494D03*
X0113046Y0221614D03*
X0106326Y0214294D03*
X0102426Y0226474D03*
D119*
X0117126Y0214654D03*
X0112566Y0208474D03*
X0124026Y0226474D03*
D120*
X0117786Y0230614D03*
X0108846Y0227734D03*
X0108846Y0227674D03*
X0107826Y0225694D03*
X0117306Y0214714D03*
X0117846Y0211354D03*
X0112506Y0209014D03*
X0112506Y0208954D03*
X0112446Y0208774D03*
D121*
X0112476Y0208834D03*
X0117756Y0211474D03*
X0117816Y0211414D03*
X0105216Y0215494D03*
X0107736Y0225454D03*
X0107796Y0225634D03*
X0108876Y0227794D03*
X0117216Y0226534D03*
X0117276Y0226474D03*
D122*
X0112416Y0220594D03*
X0115116Y0210094D03*
X0115116Y0209974D03*
X0114816Y0209194D03*
X0114816Y0209134D03*
X0114816Y0209074D03*
X0102516Y0226654D03*
D123*
X0113016Y0216214D03*
X0111816Y0209134D03*
D124*
X0111696Y0209194D03*
X0113376Y0213874D03*
X0118836Y0213454D03*
X0123516Y0218974D03*
X0124716Y0226894D03*
X0117636Y0231694D03*
X0109236Y0229174D03*
X0107136Y0224314D03*
X0114696Y0220114D03*
X0115056Y0220474D03*
X0114756Y0219574D03*
D125*
X0111366Y0209374D03*
X0103506Y0214294D03*
X0103506Y0214354D03*
D126*
X0103776Y0213514D03*
X0109476Y0218854D03*
X0114576Y0216874D03*
X0111216Y0209434D03*
X0123816Y0219154D03*
X0125256Y0222994D03*
X0117516Y0231934D03*
D127*
X0102726Y0227194D03*
X0102726Y0227134D03*
X0103746Y0217474D03*
X0103626Y0216994D03*
X0103446Y0216274D03*
X0103206Y0215314D03*
X0103146Y0215014D03*
X0103146Y0214954D03*
X0103086Y0214714D03*
X0106446Y0216574D03*
X0110166Y0217834D03*
X0110766Y0209794D03*
D128*
X0108066Y0213874D03*
X0112206Y0218614D03*
X0119706Y0209794D03*
X0125526Y0221614D03*
X0125526Y0221674D03*
X0126606Y0226174D03*
D129*
X0124416Y0223834D03*
X0122976Y0223714D03*
X0124116Y0225574D03*
X0125616Y0222034D03*
X0125616Y0221914D03*
X0125076Y0221014D03*
X0119616Y0209914D03*
X0110976Y0217174D03*
X0110976Y0217234D03*
X0107916Y0213814D03*
X0106416Y0216514D03*
X0103716Y0217294D03*
X0103656Y0217234D03*
X0103656Y0217174D03*
X0103656Y0217114D03*
X0103656Y0217354D03*
X0103476Y0216454D03*
X0103476Y0216394D03*
X0103476Y0216334D03*
X0103476Y0216214D03*
X0103416Y0216154D03*
X0103416Y0216094D03*
X0103416Y0216034D03*
X0103176Y0215194D03*
X0103176Y0215134D03*
X0103176Y0215074D03*
X0103116Y0214894D03*
X0103116Y0214774D03*
X0102756Y0227254D03*
X0102816Y0227314D03*
D130*
X0102366Y0226294D03*
X0111066Y0212254D03*
X0111066Y0212194D03*
X0112866Y0211894D03*
X0112566Y0211054D03*
X0110466Y0209974D03*
X0123066Y0221914D03*
X0124566Y0214234D03*
D131*
X0119526Y0209974D03*
X0112986Y0221074D03*
X0105366Y0213154D03*
X0103386Y0213154D03*
X0102966Y0227554D03*
X0125586Y0222154D03*
D132*
X0119046Y0210334D03*
X0118986Y0210274D03*
X0118986Y0210214D03*
X0118986Y0210154D03*
X0107226Y0214474D03*
X0103566Y0213754D03*
X0103506Y0213814D03*
X0103446Y0213994D03*
X0109326Y0229534D03*
D133*
X0118746Y0210634D03*
D134*
X0118686Y0210694D03*
X0117666Y0215374D03*
X0112986Y0216094D03*
X0112986Y0216154D03*
X0114666Y0220294D03*
D135*
X0114276Y0219874D03*
X0113076Y0216634D03*
X0113076Y0216514D03*
X0118416Y0210934D03*
X0107316Y0224674D03*
X0109116Y0228634D03*
X0109176Y0228694D03*
D136*
X0107346Y0224734D03*
X0117726Y0231274D03*
X0118266Y0213814D03*
X0118386Y0210994D03*
D137*
X0117846Y0211054D03*
X0114186Y0213214D03*
X0116946Y0221134D03*
X0117486Y0227014D03*
X0117486Y0227074D03*
X0117786Y0230314D03*
X0108726Y0227374D03*
X0108726Y0227314D03*
X0108666Y0227254D03*
X0108666Y0227194D03*
X0108186Y0226234D03*
X0108126Y0226114D03*
X0108066Y0226054D03*
D138*
X0106266Y0211714D03*
X0106266Y0211654D03*
D139*
X0106386Y0212134D03*
X0106386Y0216034D03*
X0109986Y0218254D03*
X0109986Y0218314D03*
X0117546Y0216034D03*
X0122526Y0217654D03*
X0125226Y0216814D03*
X0124386Y0220714D03*
X0104766Y0229414D03*
D140*
X0116046Y0212134D03*
D141*
X0119616Y0212914D03*
X0124416Y0220834D03*
X0125616Y0223234D03*
X0107016Y0223834D03*
X0104616Y0229294D03*
X0104916Y0229534D03*
X0103716Y0215974D03*
X0105216Y0214834D03*
X0106416Y0212194D03*
D142*
X0106416Y0212254D03*
X0105216Y0214774D03*
X0106416Y0215974D03*
X0103776Y0215854D03*
X0109656Y0218614D03*
X0109716Y0218554D03*
X0109836Y0218434D03*
X0109896Y0218374D03*
X0109776Y0219454D03*
X0107016Y0223894D03*
X0105276Y0229834D03*
X0105396Y0229954D03*
X0115476Y0223954D03*
X0124356Y0220594D03*
X0124416Y0220654D03*
X0124416Y0220774D03*
X0124416Y0220894D03*
X0124836Y0219754D03*
X0124716Y0219514D03*
X0125196Y0216874D03*
X0125736Y0224374D03*
D143*
X0117336Y0222334D03*
X0117276Y0222394D03*
X0115596Y0212314D03*
D144*
X0112326Y0217834D03*
X0112206Y0218674D03*
X0107706Y0213214D03*
X0107646Y0213154D03*
X0107586Y0213034D03*
X0107526Y0212974D03*
X0107466Y0212854D03*
X0107406Y0212794D03*
X0107346Y0212674D03*
X0107286Y0212614D03*
X0107226Y0212494D03*
X0125406Y0218314D03*
X0125646Y0218134D03*
X0126066Y0217774D03*
D145*
X0117336Y0222514D03*
X0117276Y0222454D03*
X0117336Y0222634D03*
X0117576Y0223474D03*
X0114936Y0212554D03*
D146*
X0114906Y0212614D03*
D147*
X0117336Y0216274D03*
X0120036Y0212614D03*
X0125736Y0224074D03*
X0117336Y0232114D03*
X0105996Y0230734D03*
X0109836Y0219814D03*
X0110196Y0217774D03*
X0105336Y0213034D03*
X0105336Y0212914D03*
X0103236Y0215254D03*
X0103236Y0215374D03*
X0103536Y0216514D03*
X0103536Y0216634D03*
X0103536Y0216694D03*
X0103536Y0216754D03*
X0103596Y0216814D03*
X0103596Y0216874D03*
X0103596Y0216934D03*
X0103596Y0217054D03*
D148*
X0105426Y0215314D03*
X0106326Y0216394D03*
X0106986Y0223774D03*
X0103386Y0228094D03*
X0103506Y0228214D03*
X0103686Y0228394D03*
X0103806Y0228514D03*
X0119826Y0212794D03*
X0125346Y0216634D03*
X0125526Y0222334D03*
D149*
X0117156Y0221434D03*
X0117636Y0225514D03*
X0117096Y0214414D03*
X0114456Y0212974D03*
D150*
X0117606Y0215854D03*
X0119346Y0213094D03*
X0109686Y0219274D03*
X0125766Y0224614D03*
D151*
X0124416Y0219334D03*
X0119316Y0213154D03*
D152*
X0117696Y0214114D03*
X0117396Y0214774D03*
X0114036Y0213334D03*
X0113916Y0219694D03*
X0113856Y0219754D03*
X0107736Y0225514D03*
X0108936Y0227914D03*
X0124356Y0226534D03*
D153*
X0124056Y0223114D03*
X0124176Y0218194D03*
X0124116Y0218134D03*
X0123816Y0213394D03*
X0123756Y0213334D03*
X0111456Y0219634D03*
X0110556Y0220894D03*
X0109956Y0220414D03*
X0111756Y0221854D03*
X0112056Y0221434D03*
X0110556Y0230974D03*
X0102276Y0225934D03*
D154*
X0107226Y0224554D03*
X0109206Y0228874D03*
X0117606Y0215194D03*
X0124806Y0226594D03*
X0104526Y0213394D03*
D155*
X0113946Y0213394D03*
X0107586Y0225214D03*
X0107646Y0225274D03*
X0108966Y0228034D03*
X0117786Y0230914D03*
D156*
X0117696Y0231454D03*
X0109176Y0228814D03*
X0113016Y0216334D03*
X0113616Y0213694D03*
X0118416Y0213694D03*
X0104556Y0213454D03*
D157*
X0113916Y0213454D03*
X0117456Y0214834D03*
X0117876Y0214054D03*
X0123816Y0216994D03*
X0117756Y0230974D03*
D158*
X0117546Y0215014D03*
X0113766Y0213574D03*
D159*
X0118626Y0213574D03*
D160*
X0118386Y0213754D03*
X0117606Y0215134D03*
X0113646Y0213634D03*
X0113046Y0216394D03*
D161*
X0117606Y0215254D03*
X0118566Y0213634D03*
D162*
X0113436Y0213814D03*
X0107196Y0224374D03*
X0109236Y0229054D03*
D163*
X0115416Y0218074D03*
X0113316Y0213934D03*
X0123216Y0225394D03*
D164*
X0118086Y0213934D03*
X0109086Y0228454D03*
D165*
X0115266Y0218854D03*
X0113166Y0213994D03*
D166*
X0115386Y0217654D03*
X0115446Y0217834D03*
X0103446Y0214234D03*
D167*
X0117216Y0214354D03*
X0117036Y0221254D03*
X0117636Y0227494D03*
X0117636Y0227614D03*
X0117696Y0227674D03*
X0117696Y0227794D03*
X0117816Y0229594D03*
X0117876Y0229654D03*
X0117816Y0229714D03*
D168*
X0117696Y0231394D03*
X0109176Y0228754D03*
X0107316Y0224614D03*
X0113076Y0216454D03*
X0117576Y0215074D03*
X0104556Y0214654D03*
X0104496Y0214594D03*
D169*
X0115476Y0220894D03*
X0117216Y0221674D03*
X0116736Y0214594D03*
D170*
X0125406Y0216574D03*
X0125706Y0226834D03*
X0105426Y0215074D03*
D171*
X0107466Y0215254D03*
X0111066Y0217054D03*
X0112266Y0218194D03*
X0112266Y0218314D03*
X0112266Y0218374D03*
X0112266Y0218434D03*
X0102666Y0227014D03*
D172*
X0107106Y0224254D03*
X0117666Y0215434D03*
D173*
X0117636Y0215554D03*
X0114936Y0217054D03*
X0115296Y0218494D03*
X0124836Y0222514D03*
D174*
X0117786Y0230794D03*
X0117786Y0230854D03*
X0108906Y0227974D03*
X0107706Y0225394D03*
X0107646Y0225334D03*
X0105186Y0215614D03*
D175*
X0103806Y0215734D03*
X0103806Y0215794D03*
X0109626Y0218674D03*
X0105306Y0229894D03*
D176*
X0106146Y0230494D03*
X0109686Y0219334D03*
X0109566Y0218794D03*
X0114666Y0216994D03*
X0124386Y0220054D03*
D177*
X0123816Y0217054D03*
D178*
X0123876Y0217114D03*
X0123876Y0217174D03*
X0116676Y0220954D03*
X0115656Y0220774D03*
X0108936Y0228094D03*
D179*
X0109566Y0218734D03*
D180*
X0114666Y0220234D03*
D181*
X0117066Y0221314D03*
X0117666Y0227734D03*
D182*
X0117186Y0221554D03*
D183*
X0117186Y0221614D03*
D184*
X0117216Y0221734D03*
X0117276Y0221794D03*
D185*
X0117306Y0222034D03*
D186*
X0125616Y0222094D03*
X0102816Y0227374D03*
D187*
X0117336Y0222274D03*
D188*
X0117336Y0222574D03*
X0117336Y0222694D03*
D189*
X0117366Y0222754D03*
X0118326Y0225694D03*
D190*
X0117366Y0222994D03*
X0117366Y0222934D03*
X0117366Y0222874D03*
X0117366Y0222814D03*
D191*
X0117396Y0223054D03*
X0117396Y0223114D03*
X0117396Y0223174D03*
X0117396Y0223294D03*
X0117756Y0223534D03*
X0118296Y0224074D03*
D192*
X0117366Y0223234D03*
D193*
X0117396Y0223354D03*
X0117396Y0223414D03*
D194*
X0118656Y0223654D03*
D195*
X0118026Y0224014D03*
X0120426Y0224674D03*
D196*
X0118896Y0224194D03*
D197*
X0119136Y0224254D03*
X0119196Y0225274D03*
D198*
X0119166Y0224314D03*
D199*
X0119196Y0224374D03*
X0119256Y0224554D03*
D200*
X0119226Y0224434D03*
D201*
X0119256Y0224494D03*
X0119256Y0224614D03*
X0119256Y0224734D03*
D202*
X0119766Y0224854D03*
D203*
X0119796Y0224914D03*
D204*
X0107466Y0224974D03*
D205*
X0119706Y0224974D03*
D206*
X0119736Y0225034D03*
X0119676Y0225094D03*
X0119676Y0225214D03*
X0119796Y0225934D03*
D207*
X0107526Y0225094D03*
D208*
X0119646Y0225154D03*
X0119646Y0225334D03*
X0119766Y0225994D03*
D209*
X0117666Y0225574D03*
X0117666Y0225454D03*
D210*
X0107766Y0225574D03*
D211*
X0118956Y0225814D03*
D212*
X0108036Y0225994D03*
D213*
X0119826Y0226054D03*
X0119826Y0226114D03*
D214*
X0119916Y0226174D03*
D215*
X0120006Y0226234D03*
D216*
X0126546Y0226234D03*
D217*
X0120816Y0226294D03*
D218*
X0117516Y0227134D03*
X0117816Y0230074D03*
X0117816Y0230194D03*
X0117816Y0230254D03*
X0108216Y0226354D03*
D219*
X0120816Y0226354D03*
D220*
X0120786Y0226414D03*
D221*
X0103146Y0227794D03*
X0103086Y0227734D03*
D222*
X0108906Y0227854D03*
D223*
X0117726Y0227854D03*
X0117726Y0227914D03*
X0117726Y0227974D03*
X0117786Y0228274D03*
X0117846Y0228634D03*
X0117846Y0229174D03*
X0117846Y0229234D03*
X0117846Y0229294D03*
X0117846Y0229354D03*
X0117846Y0229414D03*
X0117846Y0229474D03*
X0117846Y0229534D03*
D224*
X0108996Y0228214D03*
X0108996Y0228154D03*
D225*
X0109116Y0228574D03*
D226*
X0117846Y0229774D03*
X0117846Y0229834D03*
D227*
X0117786Y0230674D03*
X0117786Y0230734D03*
M02*
