G75*
%MOIN*%
%OFA0B0*%
%FSLAX25Y25*%
%IPPOS*%
%LPD*%
%AMOC8*
5,1,8,0,0,1.08239X$1,22.5*
%
%ADD10R,0.04737X0.05131*%
%ADD11R,0.05131X0.04737*%
%ADD12C,0.07400*%
%ADD13OC8,0.13200*%
%ADD14R,0.22060X0.25209*%
%ADD15R,0.04737X0.07099*%
%ADD16OC8,0.06800*%
%ADD17C,0.05200*%
%ADD18R,0.07400X0.07400*%
%ADD19R,0.21800X0.07300*%
%ADD20C,0.14200*%
%ADD21C,0.06800*%
%ADD22C,0.05156*%
D10*
X0093311Y0076906D03*
X0093311Y0083598D03*
X0148626Y0125567D03*
X0148626Y0132260D03*
X0156500Y0109346D03*
X0156500Y0102654D03*
X0182091Y0076000D03*
X0188784Y0076000D03*
X0173036Y0066000D03*
X0166343Y0066000D03*
X0181028Y0194937D03*
X0187721Y0194937D03*
D11*
X0168784Y0194937D03*
X0162091Y0194937D03*
X0138784Y0194937D03*
X0132091Y0194937D03*
D12*
X0121500Y0181000D03*
X0106500Y0161000D03*
X0106500Y0151000D03*
X0106500Y0141000D03*
X0106500Y0131000D03*
X0106500Y0121000D03*
X0106500Y0111000D03*
X0106500Y0101000D03*
X0106500Y0091000D03*
X0106500Y0081000D03*
X0106500Y0071000D03*
X0106500Y0061000D03*
X0106500Y0051000D03*
X0106500Y0041000D03*
X0106500Y0031000D03*
X0136500Y0041000D03*
X0136500Y0051000D03*
X0136500Y0061000D03*
X0136500Y0071000D03*
X0136500Y0081000D03*
X0136500Y0091000D03*
X0136500Y0101000D03*
X0136500Y0111000D03*
X0136500Y0121000D03*
X0136500Y0131000D03*
X0136500Y0141000D03*
X0136500Y0151000D03*
X0136500Y0161000D03*
X0081500Y0181000D03*
D13*
X0051500Y0141000D03*
X0051500Y0121000D03*
D14*
X0154374Y0230843D03*
D15*
X0145398Y0202102D03*
X0163351Y0202102D03*
D16*
X0054059Y0055055D03*
X0054059Y0065055D03*
X0064059Y0065055D03*
X0064059Y0055055D03*
X0074059Y0055055D03*
X0074059Y0065055D03*
D17*
X0174300Y0106000D02*
X0178700Y0106000D01*
X0178700Y0126000D02*
X0174300Y0126000D01*
D18*
X0136500Y0031000D03*
D19*
X0064000Y0191000D03*
X0064000Y0201000D03*
X0064000Y0211000D03*
X0064000Y0221000D03*
X0064000Y0231000D03*
D20*
X0018200Y0236500D03*
X0018200Y0185500D03*
D21*
X0198500Y0186000D02*
X0204500Y0186000D01*
X0204500Y0176000D02*
X0198500Y0176000D01*
X0198500Y0166000D02*
X0204500Y0166000D01*
X0204500Y0156000D02*
X0198500Y0156000D01*
X0198500Y0146000D02*
X0204500Y0146000D01*
X0204500Y0136000D02*
X0198500Y0136000D01*
X0198500Y0126000D02*
X0204500Y0126000D01*
X0204500Y0116000D02*
X0198500Y0116000D01*
X0198500Y0106000D02*
X0204500Y0106000D01*
X0204500Y0096000D02*
X0198500Y0096000D01*
X0198500Y0086000D02*
X0204500Y0086000D01*
X0204500Y0076000D02*
X0198500Y0076000D01*
X0198500Y0066000D02*
X0204500Y0066000D01*
X0204500Y0196000D02*
X0198500Y0196000D01*
X0198500Y0206000D02*
X0204500Y0206000D01*
X0204500Y0216000D02*
X0198500Y0216000D01*
D22*
X0153863Y0196354D03*
X0136500Y0176000D03*
X0116500Y0158913D03*
X0116500Y0121000D03*
X0157800Y0141236D03*
X0161737Y0097929D03*
X0082996Y0231787D03*
M02*
