G75*
%MOIN*%
%OFA0B0*%
%FSLAX25Y25*%
%IPPOS*%
%LPD*%
%AMOC8*
5,1,8,0,0,1.08239X$1,22.5*
%
%ADD10C,0.06600*%
%ADD11OC8,0.12400*%
%ADD12OC8,0.06000*%
%ADD13C,0.04400*%
%ADD14R,0.06600X0.06600*%
%ADD15C,0.06000*%
%ADD16C,0.04356*%
%ADD17C,0.01000*%
D10*
X0098626Y0031000D03*
X0098626Y0041000D03*
X0098626Y0051000D03*
X0098626Y0061000D03*
X0098626Y0071000D03*
X0098626Y0081000D03*
X0098626Y0091000D03*
X0098626Y0101000D03*
X0098626Y0111000D03*
X0098626Y0121000D03*
X0098626Y0131000D03*
X0098626Y0141000D03*
X0098626Y0151000D03*
X0098626Y0161000D03*
X0113626Y0181000D03*
X0128626Y0161000D03*
X0128626Y0151000D03*
X0128626Y0141000D03*
X0128626Y0131000D03*
X0128626Y0121000D03*
X0128626Y0111000D03*
X0128626Y0101000D03*
X0128626Y0091000D03*
X0128626Y0081000D03*
X0128626Y0071000D03*
X0128626Y0061000D03*
X0128626Y0051000D03*
X0128626Y0041000D03*
X0073626Y0181000D03*
D11*
X0051500Y0152811D03*
X0051500Y0132811D03*
D12*
X0056185Y0065055D03*
X0056185Y0055055D03*
X0066185Y0055055D03*
X0066185Y0065055D03*
X0046185Y0065055D03*
X0046185Y0055055D03*
D13*
X0166426Y0106000D02*
X0170826Y0106000D01*
X0170826Y0126000D02*
X0166426Y0126000D01*
D14*
X0128626Y0031000D03*
D15*
X0158548Y0039811D02*
X0158548Y0045811D01*
X0168548Y0045811D02*
X0168548Y0039811D01*
X0178548Y0039811D02*
X0178548Y0045811D01*
X0188548Y0045811D02*
X0188548Y0039811D01*
X0190626Y0066000D02*
X0196626Y0066000D01*
X0196626Y0076000D02*
X0190626Y0076000D01*
X0190626Y0086000D02*
X0196626Y0086000D01*
X0196626Y0096000D02*
X0190626Y0096000D01*
X0190626Y0106000D02*
X0196626Y0106000D01*
X0196626Y0116000D02*
X0190626Y0116000D01*
X0190626Y0126000D02*
X0196626Y0126000D01*
X0196626Y0136000D02*
X0190626Y0136000D01*
X0190626Y0146000D02*
X0196626Y0146000D01*
X0196626Y0156000D02*
X0190626Y0156000D01*
X0190626Y0166000D02*
X0196626Y0166000D01*
X0196626Y0176000D02*
X0190626Y0176000D01*
X0190626Y0186000D02*
X0196626Y0186000D01*
X0196626Y0196000D02*
X0190626Y0196000D01*
X0190626Y0206000D02*
X0196626Y0206000D01*
X0196626Y0216000D02*
X0190626Y0216000D01*
D16*
X0145989Y0196354D03*
X0128626Y0176000D03*
X0108626Y0158913D03*
X0108626Y0121000D03*
X0149926Y0141236D03*
X0153863Y0097929D03*
X0086933Y0231787D03*
D17*
X0016067Y0007378D02*
X0168640Y0007378D01*
X0204893Y0043630D01*
X0204942Y0043734D01*
X0205523Y0044260D01*
X0206077Y0044815D01*
X0206183Y0044859D01*
X0208733Y0047168D01*
X0208733Y0243598D01*
X0026941Y0243598D01*
X0027163Y0243377D01*
X0028637Y0240823D01*
X0029400Y0237975D01*
X0029400Y0235025D01*
X0028637Y0232177D01*
X0027163Y0229623D01*
X0025077Y0227538D01*
X0022523Y0226063D01*
X0019675Y0225300D01*
X0016726Y0225300D01*
X0016067Y0225476D01*
X0016067Y0196524D01*
X0016726Y0196700D01*
X0019675Y0196700D01*
X0022523Y0195937D01*
X0025077Y0194462D01*
X0027163Y0192377D01*
X0028637Y0189823D01*
X0029400Y0186975D01*
X0029400Y0184025D01*
X0028637Y0181177D01*
X0027163Y0178623D01*
X0025077Y0176538D01*
X0022523Y0175063D01*
X0019675Y0174300D01*
X0016726Y0174300D01*
X0016067Y0174476D01*
X0016067Y0007378D01*
X0016067Y0008034D02*
X0169297Y0008034D01*
X0170295Y0009033D02*
X0016067Y0009033D01*
X0016067Y0010031D02*
X0171294Y0010031D01*
X0172292Y0011030D02*
X0016067Y0011030D01*
X0016067Y0012028D02*
X0173291Y0012028D01*
X0174289Y0013027D02*
X0016067Y0013027D01*
X0016067Y0014025D02*
X0175288Y0014025D01*
X0176286Y0015024D02*
X0016067Y0015024D01*
X0016067Y0016022D02*
X0177285Y0016022D01*
X0178283Y0017021D02*
X0016067Y0017021D01*
X0016067Y0018019D02*
X0179282Y0018019D01*
X0180280Y0019018D02*
X0016067Y0019018D01*
X0016067Y0020016D02*
X0181279Y0020016D01*
X0182277Y0021015D02*
X0016067Y0021015D01*
X0016067Y0022013D02*
X0183276Y0022013D01*
X0184274Y0023012D02*
X0016067Y0023012D01*
X0016067Y0024010D02*
X0185273Y0024010D01*
X0186271Y0025009D02*
X0016067Y0025009D01*
X0016067Y0026007D02*
X0144499Y0026007D01*
X0145243Y0025263D02*
X0174293Y0025263D01*
X0175348Y0026317D01*
X0180348Y0031317D01*
X0180348Y0035902D01*
X0180983Y0036166D01*
X0182193Y0037375D01*
X0182848Y0038956D01*
X0182848Y0046666D01*
X0182193Y0048247D01*
X0180983Y0049456D01*
X0179403Y0050111D01*
X0177692Y0050111D01*
X0176112Y0049456D01*
X0174902Y0048247D01*
X0174248Y0046666D01*
X0174248Y0038956D01*
X0174902Y0037375D01*
X0176112Y0036166D01*
X0176748Y0035902D01*
X0176748Y0032809D01*
X0172802Y0028863D01*
X0146734Y0028863D01*
X0146397Y0029200D01*
X0166419Y0029200D01*
X0167474Y0030254D01*
X0167474Y0030254D01*
X0169293Y0032074D01*
X0169293Y0032074D01*
X0170348Y0033128D01*
X0170348Y0035902D01*
X0170983Y0036166D01*
X0172193Y0037375D01*
X0172848Y0038956D01*
X0172848Y0046666D01*
X0172193Y0048247D01*
X0170983Y0049456D01*
X0169403Y0050111D01*
X0167692Y0050111D01*
X0166112Y0049456D01*
X0164902Y0048247D01*
X0164248Y0046666D01*
X0164248Y0038956D01*
X0164902Y0037375D01*
X0166112Y0036166D01*
X0166748Y0035902D01*
X0166748Y0034620D01*
X0164928Y0032800D01*
X0147789Y0032800D01*
X0147789Y0043557D01*
X0139915Y0051431D01*
X0138860Y0052485D01*
X0132990Y0052485D01*
X0132526Y0053606D01*
X0131232Y0054900D01*
X0129541Y0055600D01*
X0127711Y0055600D01*
X0126021Y0054900D01*
X0124727Y0053606D01*
X0124026Y0051915D01*
X0124026Y0050085D01*
X0124727Y0048394D01*
X0126021Y0047100D01*
X0127711Y0046400D01*
X0129541Y0046400D01*
X0131232Y0047100D01*
X0132526Y0048394D01*
X0132729Y0048885D01*
X0137369Y0048885D01*
X0144189Y0042065D01*
X0144189Y0031409D01*
X0143852Y0031746D01*
X0143852Y0035683D01*
X0139915Y0039620D01*
X0138860Y0040674D01*
X0133226Y0040674D01*
X0133226Y0041915D01*
X0132526Y0043606D01*
X0131232Y0044900D01*
X0129541Y0045600D01*
X0127711Y0045600D01*
X0126021Y0044900D01*
X0124727Y0043606D01*
X0124026Y0041915D01*
X0124026Y0040085D01*
X0124727Y0038394D01*
X0126021Y0037100D01*
X0127711Y0036400D01*
X0129541Y0036400D01*
X0131169Y0037074D01*
X0137369Y0037074D01*
X0140252Y0034191D01*
X0140252Y0030254D01*
X0141306Y0029200D01*
X0145243Y0025263D01*
X0145989Y0027063D02*
X0142052Y0031000D01*
X0142052Y0034937D01*
X0138115Y0038874D01*
X0130752Y0038874D01*
X0128626Y0041000D01*
X0132784Y0042982D02*
X0143272Y0042982D01*
X0144189Y0041984D02*
X0133198Y0041984D01*
X0133226Y0040985D02*
X0144189Y0040985D01*
X0144189Y0039987D02*
X0139548Y0039987D01*
X0140546Y0038988D02*
X0144189Y0038988D01*
X0144189Y0037990D02*
X0141545Y0037990D01*
X0142543Y0036991D02*
X0144189Y0036991D01*
X0144189Y0035993D02*
X0143542Y0035993D01*
X0143852Y0034994D02*
X0144189Y0034994D01*
X0144189Y0033996D02*
X0143852Y0033996D01*
X0143852Y0032997D02*
X0144189Y0032997D01*
X0144189Y0031999D02*
X0143852Y0031999D01*
X0145989Y0031000D02*
X0145989Y0042811D01*
X0138115Y0050685D01*
X0128941Y0050685D01*
X0128626Y0051000D01*
X0132791Y0052967D02*
X0208733Y0052967D01*
X0208733Y0051969D02*
X0139376Y0051969D01*
X0140375Y0050970D02*
X0208733Y0050970D01*
X0208733Y0049972D02*
X0189739Y0049972D01*
X0189403Y0050111D02*
X0187692Y0050111D01*
X0186112Y0049456D01*
X0184902Y0048247D01*
X0184248Y0046666D01*
X0184248Y0038956D01*
X0184902Y0037375D01*
X0186112Y0036166D01*
X0187692Y0035511D01*
X0189403Y0035511D01*
X0190983Y0036166D01*
X0192193Y0037375D01*
X0192848Y0038956D01*
X0192848Y0046666D01*
X0192193Y0048247D01*
X0190983Y0049456D01*
X0189403Y0050111D01*
X0187356Y0049972D02*
X0179739Y0049972D01*
X0181467Y0048973D02*
X0185629Y0048973D01*
X0184790Y0047975D02*
X0182306Y0047975D01*
X0182719Y0046976D02*
X0184376Y0046976D01*
X0184248Y0045978D02*
X0182848Y0045978D01*
X0182848Y0044979D02*
X0184248Y0044979D01*
X0184248Y0043981D02*
X0182848Y0043981D01*
X0182848Y0042982D02*
X0184248Y0042982D01*
X0184248Y0041984D02*
X0182848Y0041984D01*
X0182848Y0040985D02*
X0184248Y0040985D01*
X0184248Y0039987D02*
X0182848Y0039987D01*
X0182848Y0038988D02*
X0184248Y0038988D01*
X0184648Y0037990D02*
X0182447Y0037990D01*
X0181809Y0036991D02*
X0185286Y0036991D01*
X0186530Y0035993D02*
X0180565Y0035993D01*
X0180348Y0034994D02*
X0196256Y0034994D01*
X0195258Y0033996D02*
X0180348Y0033996D01*
X0180348Y0032997D02*
X0194259Y0032997D01*
X0193261Y0031999D02*
X0180348Y0031999D01*
X0180030Y0031000D02*
X0192262Y0031000D01*
X0191264Y0030001D02*
X0179032Y0030001D01*
X0178033Y0029003D02*
X0190265Y0029003D01*
X0189267Y0028004D02*
X0177035Y0028004D01*
X0176036Y0027006D02*
X0188268Y0027006D01*
X0187270Y0026007D02*
X0175038Y0026007D01*
X0173548Y0027063D02*
X0145989Y0027063D01*
X0146594Y0029003D02*
X0172942Y0029003D01*
X0173941Y0030001D02*
X0167221Y0030001D01*
X0168219Y0031000D02*
X0174939Y0031000D01*
X0175938Y0031999D02*
X0169218Y0031999D01*
X0170216Y0032997D02*
X0176748Y0032997D01*
X0176748Y0033996D02*
X0170348Y0033996D01*
X0170348Y0034994D02*
X0176748Y0034994D01*
X0176530Y0035993D02*
X0170565Y0035993D01*
X0171809Y0036991D02*
X0175286Y0036991D01*
X0174648Y0037990D02*
X0172447Y0037990D01*
X0172848Y0038988D02*
X0174248Y0038988D01*
X0174248Y0039987D02*
X0172848Y0039987D01*
X0172848Y0040985D02*
X0174248Y0040985D01*
X0174248Y0041984D02*
X0172848Y0041984D01*
X0172848Y0042982D02*
X0174248Y0042982D01*
X0174248Y0043981D02*
X0172848Y0043981D01*
X0172848Y0044979D02*
X0174248Y0044979D01*
X0174248Y0045978D02*
X0172848Y0045978D01*
X0172719Y0046976D02*
X0174376Y0046976D01*
X0174790Y0047975D02*
X0172306Y0047975D01*
X0171467Y0048973D02*
X0175629Y0048973D01*
X0177356Y0049972D02*
X0169739Y0049972D01*
X0167356Y0049972D02*
X0160294Y0049972D01*
X0160275Y0049981D02*
X0159601Y0050200D01*
X0159048Y0050288D01*
X0159048Y0043311D01*
X0163048Y0043311D01*
X0163048Y0046165D01*
X0162937Y0046865D01*
X0162718Y0047538D01*
X0162396Y0048170D01*
X0161980Y0048743D01*
X0161479Y0049243D01*
X0160906Y0049660D01*
X0160275Y0049981D01*
X0159048Y0049972D02*
X0158048Y0049972D01*
X0158048Y0050288D02*
X0157494Y0050200D01*
X0156820Y0049981D01*
X0156189Y0049660D01*
X0155616Y0049243D01*
X0155115Y0048743D01*
X0154699Y0048170D01*
X0154377Y0047538D01*
X0154158Y0046865D01*
X0154048Y0046165D01*
X0154048Y0043311D01*
X0158048Y0043311D01*
X0158048Y0050288D01*
X0156801Y0049972D02*
X0141373Y0049972D01*
X0142372Y0048973D02*
X0155346Y0048973D01*
X0154600Y0047975D02*
X0143370Y0047975D01*
X0144369Y0046976D02*
X0154195Y0046976D01*
X0154048Y0045978D02*
X0145368Y0045978D01*
X0146366Y0044979D02*
X0154048Y0044979D01*
X0154048Y0043981D02*
X0147365Y0043981D01*
X0147789Y0042982D02*
X0158048Y0042982D01*
X0158048Y0043311D02*
X0158048Y0042311D01*
X0159048Y0042311D01*
X0159048Y0043311D01*
X0158048Y0043311D01*
X0158048Y0043981D02*
X0159048Y0043981D01*
X0159048Y0044979D02*
X0158048Y0044979D01*
X0158048Y0045978D02*
X0159048Y0045978D01*
X0159048Y0046976D02*
X0158048Y0046976D01*
X0158048Y0047975D02*
X0159048Y0047975D01*
X0159048Y0048973D02*
X0158048Y0048973D01*
X0161749Y0048973D02*
X0165629Y0048973D01*
X0164790Y0047975D02*
X0162496Y0047975D01*
X0162901Y0046976D02*
X0164376Y0046976D01*
X0164248Y0045978D02*
X0163048Y0045978D01*
X0163048Y0044979D02*
X0164248Y0044979D01*
X0164248Y0043981D02*
X0163048Y0043981D01*
X0164248Y0042982D02*
X0159048Y0042982D01*
X0159048Y0042311D02*
X0163048Y0042311D01*
X0163048Y0039457D01*
X0162937Y0038757D01*
X0162718Y0038084D01*
X0162396Y0037453D01*
X0161980Y0036879D01*
X0161479Y0036379D01*
X0160906Y0035962D01*
X0160275Y0035641D01*
X0159601Y0035422D01*
X0159048Y0035334D01*
X0159048Y0042311D01*
X0159048Y0041984D02*
X0158048Y0041984D01*
X0158048Y0042311D02*
X0158048Y0035334D01*
X0157494Y0035422D01*
X0156820Y0035641D01*
X0156189Y0035962D01*
X0155616Y0036379D01*
X0155115Y0036879D01*
X0154699Y0037453D01*
X0154377Y0038084D01*
X0154158Y0038757D01*
X0154048Y0039457D01*
X0154048Y0042311D01*
X0158048Y0042311D01*
X0158048Y0040985D02*
X0159048Y0040985D01*
X0159048Y0039987D02*
X0158048Y0039987D01*
X0158048Y0038988D02*
X0159048Y0038988D01*
X0159048Y0037990D02*
X0158048Y0037990D01*
X0158048Y0036991D02*
X0159048Y0036991D01*
X0159048Y0035993D02*
X0158048Y0035993D01*
X0156147Y0035993D02*
X0147789Y0035993D01*
X0147789Y0036991D02*
X0155034Y0036991D01*
X0154425Y0037990D02*
X0147789Y0037990D01*
X0147789Y0038988D02*
X0154122Y0038988D01*
X0154048Y0039987D02*
X0147789Y0039987D01*
X0147789Y0040985D02*
X0154048Y0040985D01*
X0154048Y0041984D02*
X0147789Y0041984D01*
X0142273Y0043981D02*
X0132151Y0043981D01*
X0131040Y0044979D02*
X0141275Y0044979D01*
X0140276Y0045978D02*
X0076898Y0045978D01*
X0076922Y0046002D02*
X0076922Y0096750D01*
X0096906Y0116734D01*
X0097711Y0116400D01*
X0099541Y0116400D01*
X0101232Y0117100D01*
X0102526Y0118394D01*
X0103226Y0120085D01*
X0103226Y0121915D01*
X0102526Y0123606D01*
X0101232Y0124900D01*
X0099541Y0125600D01*
X0097711Y0125600D01*
X0096021Y0124900D01*
X0094727Y0123606D01*
X0094026Y0121915D01*
X0094026Y0120085D01*
X0094360Y0119279D01*
X0073322Y0098242D01*
X0073322Y0047494D01*
X0070440Y0044611D01*
X0064057Y0044611D01*
X0057985Y0050683D01*
X0057985Y0050774D01*
X0060485Y0053274D01*
X0060485Y0056836D01*
X0057967Y0059355D01*
X0054404Y0059355D01*
X0051885Y0056836D01*
X0051885Y0053274D01*
X0054385Y0050774D01*
X0054385Y0049191D01*
X0061511Y0042065D01*
X0062566Y0041011D01*
X0071931Y0041011D01*
X0075868Y0044948D01*
X0076922Y0046002D01*
X0076922Y0046976D02*
X0096320Y0046976D01*
X0096021Y0047100D02*
X0097711Y0046400D01*
X0099541Y0046400D01*
X0101232Y0047100D01*
X0102526Y0048394D01*
X0103226Y0050085D01*
X0103226Y0051915D01*
X0102526Y0053606D01*
X0101232Y0054900D01*
X0099541Y0055600D01*
X0097711Y0055600D01*
X0096021Y0054900D01*
X0094727Y0053606D01*
X0094026Y0051915D01*
X0094026Y0050085D01*
X0094727Y0048394D01*
X0096021Y0047100D01*
X0095146Y0047975D02*
X0076922Y0047975D01*
X0076922Y0048973D02*
X0094487Y0048973D01*
X0094073Y0049972D02*
X0076922Y0049972D01*
X0076922Y0050970D02*
X0094026Y0050970D01*
X0094049Y0051969D02*
X0076922Y0051969D01*
X0076922Y0052967D02*
X0094462Y0052967D01*
X0095087Y0053966D02*
X0076922Y0053966D01*
X0076922Y0054964D02*
X0096177Y0054964D01*
X0096356Y0056961D02*
X0076922Y0056961D01*
X0076922Y0055963D02*
X0208733Y0055963D01*
X0208733Y0056961D02*
X0130896Y0056961D01*
X0131232Y0057100D02*
X0132526Y0058394D01*
X0133226Y0060085D01*
X0133226Y0061915D01*
X0132526Y0063606D01*
X0131232Y0064900D01*
X0129541Y0065600D01*
X0127711Y0065600D01*
X0126021Y0064900D01*
X0124727Y0063606D01*
X0124026Y0061915D01*
X0124026Y0060085D01*
X0124727Y0058394D01*
X0126021Y0057100D01*
X0127711Y0056400D01*
X0129541Y0056400D01*
X0131232Y0057100D01*
X0132092Y0057960D02*
X0208733Y0057960D01*
X0208733Y0058958D02*
X0132760Y0058958D01*
X0133173Y0059957D02*
X0208733Y0059957D01*
X0208733Y0060955D02*
X0133226Y0060955D01*
X0133210Y0061954D02*
X0188655Y0061954D01*
X0188899Y0061830D02*
X0189573Y0061611D01*
X0190272Y0061500D01*
X0193126Y0061500D01*
X0193126Y0065500D01*
X0186149Y0065500D01*
X0186237Y0064946D01*
X0186456Y0064273D01*
X0186778Y0063641D01*
X0187194Y0063068D01*
X0187695Y0062568D01*
X0188268Y0062151D01*
X0188899Y0061830D01*
X0187310Y0062952D02*
X0132797Y0062952D01*
X0132181Y0063951D02*
X0186620Y0063951D01*
X0186237Y0064949D02*
X0131112Y0064949D01*
X0130861Y0066946D02*
X0186220Y0066946D01*
X0186237Y0067054D02*
X0186149Y0066500D01*
X0193126Y0066500D01*
X0193126Y0065500D01*
X0194126Y0065500D01*
X0194126Y0061500D01*
X0196981Y0061500D01*
X0197680Y0061611D01*
X0198354Y0061830D01*
X0198985Y0062151D01*
X0199558Y0062568D01*
X0200059Y0063068D01*
X0200475Y0063641D01*
X0200797Y0064273D01*
X0201016Y0064946D01*
X0201103Y0065500D01*
X0194126Y0065500D01*
X0194126Y0066500D01*
X0193126Y0066500D01*
X0193126Y0070500D01*
X0190272Y0070500D01*
X0189573Y0070389D01*
X0188899Y0070170D01*
X0188268Y0069849D01*
X0187695Y0069432D01*
X0187194Y0068932D01*
X0186778Y0068359D01*
X0186456Y0067727D01*
X0186237Y0067054D01*
X0186567Y0067945D02*
X0132077Y0067945D01*
X0132526Y0068394D02*
X0131232Y0067100D01*
X0129541Y0066400D01*
X0127711Y0066400D01*
X0126021Y0067100D01*
X0124727Y0068394D01*
X0124026Y0070085D01*
X0124026Y0071915D01*
X0124727Y0073606D01*
X0126021Y0074900D01*
X0127711Y0075600D01*
X0129541Y0075600D01*
X0131232Y0074900D01*
X0132526Y0073606D01*
X0133226Y0071915D01*
X0133226Y0070085D01*
X0132526Y0068394D01*
X0132754Y0068943D02*
X0187206Y0068943D01*
X0188451Y0069942D02*
X0133167Y0069942D01*
X0133226Y0070940D02*
X0208733Y0070940D01*
X0208733Y0069942D02*
X0198802Y0069942D01*
X0198985Y0069849D02*
X0198354Y0070170D01*
X0197680Y0070389D01*
X0196981Y0070500D01*
X0194126Y0070500D01*
X0194126Y0066500D01*
X0201103Y0066500D01*
X0201016Y0067054D01*
X0200797Y0067727D01*
X0200475Y0068359D01*
X0200059Y0068932D01*
X0199558Y0069432D01*
X0198985Y0069849D01*
X0200047Y0068943D02*
X0208733Y0068943D01*
X0208733Y0067945D02*
X0200686Y0067945D01*
X0201033Y0066946D02*
X0208733Y0066946D01*
X0208733Y0065948D02*
X0194126Y0065948D01*
X0194126Y0066946D02*
X0193126Y0066946D01*
X0193126Y0065948D02*
X0076922Y0065948D01*
X0076922Y0066946D02*
X0096392Y0066946D01*
X0096021Y0067100D02*
X0097711Y0066400D01*
X0099541Y0066400D01*
X0101232Y0067100D01*
X0102526Y0068394D01*
X0103226Y0070085D01*
X0103226Y0071915D01*
X0102526Y0073606D01*
X0101232Y0074900D01*
X0099541Y0075600D01*
X0097711Y0075600D01*
X0096021Y0074900D01*
X0094727Y0073606D01*
X0094026Y0071915D01*
X0094026Y0070085D01*
X0094727Y0068394D01*
X0096021Y0067100D01*
X0095176Y0067945D02*
X0076922Y0067945D01*
X0076922Y0068943D02*
X0094499Y0068943D01*
X0094086Y0069942D02*
X0076922Y0069942D01*
X0076922Y0070940D02*
X0094026Y0070940D01*
X0094036Y0071939D02*
X0076922Y0071939D01*
X0076922Y0072937D02*
X0094450Y0072937D01*
X0095057Y0073936D02*
X0076922Y0073936D01*
X0076922Y0074934D02*
X0096105Y0074934D01*
X0096428Y0076932D02*
X0076922Y0076932D01*
X0076922Y0077930D02*
X0095191Y0077930D01*
X0094727Y0078394D02*
X0096021Y0077100D01*
X0097711Y0076400D01*
X0099541Y0076400D01*
X0101232Y0077100D01*
X0102526Y0078394D01*
X0103226Y0080085D01*
X0103226Y0081915D01*
X0102526Y0083606D01*
X0101232Y0084900D01*
X0099541Y0085600D01*
X0097711Y0085600D01*
X0096021Y0084900D01*
X0094727Y0083606D01*
X0094026Y0081915D01*
X0094026Y0080085D01*
X0094727Y0078394D01*
X0094505Y0078929D02*
X0076922Y0078929D01*
X0076922Y0079927D02*
X0094092Y0079927D01*
X0094026Y0080926D02*
X0076922Y0080926D01*
X0076922Y0081924D02*
X0094030Y0081924D01*
X0094444Y0082923D02*
X0076922Y0082923D01*
X0076922Y0083921D02*
X0095042Y0083921D01*
X0096069Y0084920D02*
X0076922Y0084920D01*
X0076922Y0085918D02*
X0170999Y0085918D01*
X0171826Y0086746D02*
X0167881Y0082800D01*
X0132860Y0082800D01*
X0132526Y0083606D01*
X0131232Y0084900D01*
X0129541Y0085600D01*
X0127711Y0085600D01*
X0126021Y0084900D01*
X0124727Y0083606D01*
X0124026Y0081915D01*
X0124026Y0080085D01*
X0124727Y0078394D01*
X0126021Y0077100D01*
X0127711Y0076400D01*
X0129541Y0076400D01*
X0131232Y0077100D01*
X0132526Y0078394D01*
X0132860Y0079200D01*
X0169372Y0079200D01*
X0174372Y0084200D01*
X0186718Y0084200D01*
X0186981Y0083564D01*
X0188191Y0082355D01*
X0189771Y0081700D01*
X0197482Y0081700D01*
X0199062Y0082355D01*
X0200272Y0083564D01*
X0200926Y0085145D01*
X0200926Y0086855D01*
X0200272Y0088436D01*
X0199062Y0089645D01*
X0197482Y0090300D01*
X0189771Y0090300D01*
X0188191Y0089645D01*
X0186981Y0088436D01*
X0186718Y0087800D01*
X0172881Y0087800D01*
X0171826Y0086746D01*
X0171997Y0086917D02*
X0130789Y0086917D01*
X0131232Y0087100D02*
X0132526Y0088394D01*
X0133226Y0090085D01*
X0133226Y0091915D01*
X0132526Y0093606D01*
X0131232Y0094900D01*
X0129541Y0095600D01*
X0127711Y0095600D01*
X0126021Y0094900D01*
X0124727Y0093606D01*
X0124026Y0091915D01*
X0124026Y0090085D01*
X0124727Y0088394D01*
X0126021Y0087100D01*
X0127711Y0086400D01*
X0129541Y0086400D01*
X0131232Y0087100D01*
X0132047Y0087915D02*
X0186765Y0087915D01*
X0187459Y0088914D02*
X0132741Y0088914D01*
X0133155Y0089912D02*
X0188835Y0089912D01*
X0189771Y0091700D02*
X0188191Y0092355D01*
X0186981Y0093564D01*
X0186326Y0095145D01*
X0186326Y0096129D01*
X0164928Y0096129D01*
X0163874Y0097184D01*
X0156000Y0105058D01*
X0156000Y0108995D01*
X0135794Y0129200D01*
X0132860Y0129200D01*
X0132526Y0128394D01*
X0131232Y0127100D01*
X0129541Y0126400D01*
X0127711Y0126400D01*
X0126021Y0127100D01*
X0124727Y0128394D01*
X0124026Y0130085D01*
X0124026Y0131915D01*
X0124727Y0133606D01*
X0126021Y0134900D01*
X0127711Y0135600D01*
X0129541Y0135600D01*
X0131232Y0134900D01*
X0132526Y0133606D01*
X0132860Y0132800D01*
X0136131Y0132800D01*
X0131531Y0137400D01*
X0131232Y0137100D01*
X0129541Y0136400D01*
X0127711Y0136400D01*
X0126021Y0137100D01*
X0124727Y0138394D01*
X0124026Y0140085D01*
X0124026Y0141915D01*
X0124727Y0143606D01*
X0126021Y0144900D01*
X0127711Y0145600D01*
X0129541Y0145600D01*
X0131232Y0144900D01*
X0132526Y0143606D01*
X0133226Y0141915D01*
X0133226Y0140796D01*
X0136315Y0137708D01*
X0136315Y0140491D01*
X0130152Y0146653D01*
X0129541Y0146400D01*
X0127711Y0146400D01*
X0126021Y0147100D01*
X0124727Y0148394D01*
X0124026Y0150085D01*
X0124026Y0151915D01*
X0124727Y0153606D01*
X0126021Y0154900D01*
X0127711Y0155600D01*
X0129541Y0155600D01*
X0131232Y0154900D01*
X0132526Y0153606D01*
X0133226Y0151915D01*
X0133226Y0150085D01*
X0132812Y0149084D01*
X0138860Y0143036D01*
X0139915Y0141982D01*
X0139915Y0138045D01*
X0158545Y0119414D01*
X0187959Y0119414D01*
X0188191Y0119645D01*
X0189771Y0120300D01*
X0197482Y0120300D01*
X0199062Y0119645D01*
X0200272Y0118436D01*
X0200926Y0116855D01*
X0200926Y0115145D01*
X0200272Y0113564D01*
X0199062Y0112355D01*
X0197482Y0111700D01*
X0189771Y0111700D01*
X0188191Y0112355D01*
X0186981Y0113564D01*
X0186326Y0115145D01*
X0186326Y0115814D01*
X0158208Y0115814D01*
X0158545Y0115477D01*
X0182167Y0115477D01*
X0188095Y0109550D01*
X0188191Y0109645D01*
X0189771Y0110300D01*
X0197482Y0110300D01*
X0199062Y0109645D01*
X0200272Y0108436D01*
X0200926Y0106855D01*
X0200926Y0105145D01*
X0200272Y0103564D01*
X0199062Y0102355D01*
X0197482Y0101700D01*
X0189771Y0101700D01*
X0188191Y0102355D01*
X0186981Y0103564D01*
X0186326Y0105145D01*
X0186326Y0106227D01*
X0180676Y0111877D01*
X0158208Y0111877D01*
X0158545Y0111540D01*
X0159600Y0110486D01*
X0159600Y0106549D01*
X0166419Y0099729D01*
X0188393Y0099729D01*
X0189771Y0100300D01*
X0197482Y0100300D01*
X0199062Y0099645D01*
X0200272Y0098436D01*
X0200926Y0096855D01*
X0200926Y0095145D01*
X0200272Y0093564D01*
X0199062Y0092355D01*
X0197482Y0091700D01*
X0189771Y0091700D01*
X0189266Y0091909D02*
X0133226Y0091909D01*
X0133226Y0090911D02*
X0208733Y0090911D01*
X0208733Y0091909D02*
X0197987Y0091909D01*
X0199615Y0092908D02*
X0208733Y0092908D01*
X0208733Y0093906D02*
X0200413Y0093906D01*
X0200827Y0094905D02*
X0208733Y0094905D01*
X0208733Y0095903D02*
X0200926Y0095903D01*
X0200907Y0096902D02*
X0208733Y0096902D01*
X0208733Y0097900D02*
X0200494Y0097900D01*
X0199809Y0098899D02*
X0208733Y0098899D01*
X0208733Y0099897D02*
X0198454Y0099897D01*
X0197951Y0101894D02*
X0208733Y0101894D01*
X0208733Y0100896D02*
X0165253Y0100896D01*
X0166251Y0099897D02*
X0188799Y0099897D01*
X0189302Y0101894D02*
X0164254Y0101894D01*
X0164782Y0102893D02*
X0163256Y0102893D01*
X0163585Y0103891D02*
X0162257Y0103891D01*
X0163459Y0104017D02*
X0164444Y0103033D01*
X0165730Y0102500D01*
X0171523Y0102500D01*
X0172809Y0103033D01*
X0173794Y0104017D01*
X0174326Y0105304D01*
X0174326Y0106696D01*
X0173794Y0107983D01*
X0172809Y0108967D01*
X0171523Y0109500D01*
X0165730Y0109500D01*
X0164444Y0108967D01*
X0163459Y0107983D01*
X0162926Y0106696D01*
X0162926Y0105304D01*
X0163459Y0104017D01*
X0163098Y0104890D02*
X0161258Y0104890D01*
X0160260Y0105888D02*
X0162926Y0105888D01*
X0163005Y0106887D02*
X0159600Y0106887D01*
X0159600Y0107885D02*
X0163419Y0107885D01*
X0164361Y0108884D02*
X0159600Y0108884D01*
X0159600Y0109882D02*
X0182671Y0109882D01*
X0183669Y0108884D02*
X0172892Y0108884D01*
X0173834Y0107885D02*
X0184668Y0107885D01*
X0185666Y0106887D02*
X0174247Y0106887D01*
X0174326Y0105888D02*
X0186326Y0105888D01*
X0186432Y0104890D02*
X0174155Y0104890D01*
X0173667Y0103891D02*
X0186846Y0103891D01*
X0187652Y0102893D02*
X0172471Y0102893D01*
X0165674Y0097929D02*
X0191697Y0097929D01*
X0193626Y0096000D01*
X0187638Y0092908D02*
X0132815Y0092908D01*
X0132226Y0093906D02*
X0186839Y0093906D01*
X0186426Y0094905D02*
X0131220Y0094905D01*
X0130469Y0096552D02*
X0131142Y0096895D01*
X0131753Y0097339D01*
X0132288Y0097873D01*
X0132732Y0098484D01*
X0133075Y0099157D01*
X0133308Y0099876D01*
X0133407Y0100500D01*
X0129126Y0100500D01*
X0129126Y0096219D01*
X0129750Y0096318D01*
X0130469Y0096552D01*
X0131152Y0096902D02*
X0164155Y0096902D01*
X0163157Y0097900D02*
X0132307Y0097900D01*
X0132943Y0098899D02*
X0162158Y0098899D01*
X0161160Y0099897D02*
X0133312Y0099897D01*
X0133407Y0101500D02*
X0133308Y0102124D01*
X0133075Y0102843D01*
X0132732Y0103516D01*
X0132288Y0104127D01*
X0131753Y0104661D01*
X0131142Y0105105D01*
X0130469Y0105448D01*
X0129750Y0105682D01*
X0129126Y0105781D01*
X0129126Y0101500D01*
X0128126Y0101500D01*
X0128126Y0100500D01*
X0123846Y0100500D01*
X0123945Y0099876D01*
X0124178Y0099157D01*
X0124521Y0098484D01*
X0124965Y0097873D01*
X0125499Y0097339D01*
X0126111Y0096895D01*
X0126784Y0096552D01*
X0127502Y0096318D01*
X0128126Y0096219D01*
X0128126Y0100500D01*
X0129126Y0100500D01*
X0129126Y0101500D01*
X0133407Y0101500D01*
X0133345Y0101894D02*
X0159163Y0101894D01*
X0160161Y0100896D02*
X0129126Y0100896D01*
X0129126Y0101894D02*
X0128126Y0101894D01*
X0128126Y0101500D02*
X0128126Y0105781D01*
X0127502Y0105682D01*
X0126784Y0105448D01*
X0126111Y0105105D01*
X0125499Y0104661D01*
X0124965Y0104127D01*
X0124521Y0103516D01*
X0124178Y0102843D01*
X0123945Y0102124D01*
X0123846Y0101500D01*
X0128126Y0101500D01*
X0128126Y0100896D02*
X0103226Y0100896D01*
X0103226Y0100085D02*
X0103226Y0101915D01*
X0102526Y0103606D01*
X0101232Y0104900D01*
X0099541Y0105600D01*
X0097711Y0105600D01*
X0096021Y0104900D01*
X0094727Y0103606D01*
X0094026Y0101915D01*
X0094026Y0100085D01*
X0094727Y0098394D01*
X0096021Y0097100D01*
X0097711Y0096400D01*
X0099541Y0096400D01*
X0101232Y0097100D01*
X0102526Y0098394D01*
X0103226Y0100085D01*
X0103149Y0099897D02*
X0123941Y0099897D01*
X0124310Y0098899D02*
X0102735Y0098899D01*
X0102032Y0097900D02*
X0124945Y0097900D01*
X0126101Y0096902D02*
X0100753Y0096902D01*
X0100469Y0095448D02*
X0099750Y0095682D01*
X0099126Y0095781D01*
X0099126Y0091500D01*
X0098126Y0091500D01*
X0098126Y0090500D01*
X0093846Y0090500D01*
X0093945Y0089876D01*
X0094178Y0089157D01*
X0094521Y0088484D01*
X0094965Y0087873D01*
X0095499Y0087339D01*
X0096111Y0086895D01*
X0096784Y0086552D01*
X0097502Y0086318D01*
X0098126Y0086219D01*
X0098126Y0090500D01*
X0099126Y0090500D01*
X0099126Y0086219D01*
X0099750Y0086318D01*
X0100469Y0086552D01*
X0101142Y0086895D01*
X0101753Y0087339D01*
X0102288Y0087873D01*
X0102732Y0088484D01*
X0103075Y0089157D01*
X0103308Y0089876D01*
X0103407Y0090500D01*
X0099126Y0090500D01*
X0099126Y0091500D01*
X0103407Y0091500D01*
X0103308Y0092124D01*
X0103075Y0092843D01*
X0102732Y0093516D01*
X0102288Y0094127D01*
X0101753Y0094661D01*
X0101142Y0095105D01*
X0100469Y0095448D01*
X0101418Y0094905D02*
X0126033Y0094905D01*
X0125027Y0093906D02*
X0102448Y0093906D01*
X0103042Y0092908D02*
X0124438Y0092908D01*
X0124026Y0091909D02*
X0103342Y0091909D01*
X0103314Y0089912D02*
X0124098Y0089912D01*
X0124026Y0090911D02*
X0099126Y0090911D01*
X0099126Y0091909D02*
X0098126Y0091909D01*
X0098126Y0091500D02*
X0098126Y0095781D01*
X0097502Y0095682D01*
X0096784Y0095448D01*
X0096111Y0095105D01*
X0095499Y0094661D01*
X0094965Y0094127D01*
X0094521Y0093516D01*
X0094178Y0092843D01*
X0093945Y0092124D01*
X0093846Y0091500D01*
X0098126Y0091500D01*
X0098126Y0090911D02*
X0076922Y0090911D01*
X0076922Y0091909D02*
X0093911Y0091909D01*
X0094211Y0092908D02*
X0076922Y0092908D01*
X0076922Y0093906D02*
X0094805Y0093906D01*
X0095835Y0094905D02*
X0076922Y0094905D01*
X0076922Y0095903D02*
X0186326Y0095903D01*
X0189296Y0105803D02*
X0193430Y0105803D01*
X0193626Y0106000D01*
X0189296Y0105803D02*
X0181422Y0113677D01*
X0157800Y0113677D01*
X0130477Y0141000D01*
X0128626Y0141000D01*
X0126644Y0136842D02*
X0110426Y0136842D01*
X0110426Y0135844D02*
X0133088Y0135844D01*
X0134086Y0134845D02*
X0131287Y0134845D01*
X0132285Y0133847D02*
X0135085Y0133847D01*
X0136083Y0132848D02*
X0132840Y0132848D01*
X0132717Y0128854D02*
X0136140Y0128854D01*
X0137139Y0127856D02*
X0131987Y0127856D01*
X0130645Y0126857D02*
X0138137Y0126857D01*
X0139136Y0125859D02*
X0110426Y0125859D01*
X0110426Y0126857D02*
X0126608Y0126857D01*
X0127711Y0125600D02*
X0126021Y0124900D01*
X0124727Y0123606D01*
X0124026Y0121915D01*
X0124026Y0120085D01*
X0124727Y0118394D01*
X0126021Y0117100D01*
X0127711Y0116400D01*
X0129541Y0116400D01*
X0131232Y0117100D01*
X0132526Y0118394D01*
X0133226Y0120085D01*
X0133226Y0121915D01*
X0132526Y0123606D01*
X0131232Y0124900D01*
X0129541Y0125600D01*
X0127711Y0125600D01*
X0125981Y0124860D02*
X0110426Y0124860D01*
X0110426Y0124019D02*
X0110426Y0155894D01*
X0110596Y0155965D01*
X0111575Y0156943D01*
X0112104Y0158222D01*
X0112104Y0159605D01*
X0111575Y0160883D01*
X0110596Y0161862D01*
X0109318Y0162391D01*
X0107935Y0162391D01*
X0106656Y0161862D01*
X0105678Y0160883D01*
X0105148Y0159605D01*
X0105148Y0158222D01*
X0105678Y0156943D01*
X0106656Y0155965D01*
X0106826Y0155894D01*
X0106826Y0124019D01*
X0106656Y0123948D01*
X0105678Y0122970D01*
X0105148Y0121692D01*
X0105148Y0120308D01*
X0105678Y0119030D01*
X0106656Y0118052D01*
X0107935Y0117522D01*
X0109318Y0117522D01*
X0110596Y0118052D01*
X0111575Y0119030D01*
X0112104Y0120308D01*
X0112104Y0121692D01*
X0111575Y0122970D01*
X0110596Y0123948D01*
X0110426Y0124019D01*
X0110683Y0123862D02*
X0124983Y0123862D01*
X0124419Y0122863D02*
X0111619Y0122863D01*
X0112033Y0121865D02*
X0124026Y0121865D01*
X0124026Y0120866D02*
X0112104Y0120866D01*
X0111922Y0119868D02*
X0124116Y0119868D01*
X0124530Y0118869D02*
X0111414Y0118869D01*
X0110159Y0117870D02*
X0125251Y0117870D01*
X0126572Y0116872D02*
X0100681Y0116872D01*
X0102002Y0117870D02*
X0107093Y0117870D01*
X0105839Y0118869D02*
X0102723Y0118869D01*
X0103136Y0119868D02*
X0105331Y0119868D01*
X0105148Y0120866D02*
X0103226Y0120866D01*
X0103226Y0121865D02*
X0105220Y0121865D01*
X0105634Y0122863D02*
X0102834Y0122863D01*
X0102270Y0123862D02*
X0106569Y0123862D01*
X0106826Y0124860D02*
X0101272Y0124860D01*
X0100645Y0126857D02*
X0106826Y0126857D01*
X0106826Y0125859D02*
X0086031Y0125859D01*
X0087029Y0126857D02*
X0096608Y0126857D01*
X0096021Y0127100D02*
X0097711Y0126400D01*
X0099541Y0126400D01*
X0101232Y0127100D01*
X0102526Y0128394D01*
X0103226Y0130085D01*
X0103226Y0131915D01*
X0102526Y0133606D01*
X0101232Y0134900D01*
X0099541Y0135600D01*
X0097711Y0135600D01*
X0096021Y0134900D01*
X0094727Y0133606D01*
X0094026Y0131915D01*
X0094026Y0130085D01*
X0094727Y0128394D01*
X0096021Y0127100D01*
X0095265Y0127856D02*
X0088028Y0127856D01*
X0089026Y0128854D02*
X0094536Y0128854D01*
X0094123Y0129853D02*
X0090025Y0129853D01*
X0091023Y0130851D02*
X0094026Y0130851D01*
X0094026Y0131850D02*
X0092022Y0131850D01*
X0093020Y0132848D02*
X0094413Y0132848D01*
X0094019Y0133847D02*
X0094968Y0133847D01*
X0095017Y0134845D02*
X0095966Y0134845D01*
X0096016Y0135844D02*
X0106826Y0135844D01*
X0106826Y0136842D02*
X0100609Y0136842D01*
X0101232Y0137100D02*
X0099541Y0136400D01*
X0097711Y0136400D01*
X0096906Y0136734D01*
X0057985Y0097813D01*
X0057985Y0069336D01*
X0060485Y0066836D01*
X0060485Y0063274D01*
X0057967Y0060755D01*
X0054404Y0060755D01*
X0051885Y0063274D01*
X0051885Y0066836D01*
X0054385Y0069336D01*
X0054385Y0099305D01*
X0094360Y0139279D01*
X0094026Y0140085D01*
X0094026Y0141915D01*
X0094727Y0143606D01*
X0096021Y0144900D01*
X0097711Y0145600D01*
X0099541Y0145600D01*
X0101232Y0144900D01*
X0102526Y0143606D01*
X0103226Y0141915D01*
X0103226Y0140085D01*
X0102526Y0138394D01*
X0101232Y0137100D01*
X0101972Y0137841D02*
X0106826Y0137841D01*
X0106826Y0138839D02*
X0102710Y0138839D01*
X0103124Y0139838D02*
X0106826Y0139838D01*
X0106826Y0140836D02*
X0103226Y0140836D01*
X0103226Y0141835D02*
X0106826Y0141835D01*
X0106826Y0142833D02*
X0102846Y0142833D01*
X0102300Y0143832D02*
X0106826Y0143832D01*
X0106826Y0144830D02*
X0101301Y0144830D01*
X0100573Y0146827D02*
X0106826Y0146827D01*
X0106826Y0145829D02*
X0055125Y0145829D01*
X0054607Y0145311D02*
X0059000Y0149704D01*
X0059000Y0155918D01*
X0054607Y0160311D01*
X0048394Y0160311D01*
X0044000Y0155918D01*
X0044000Y0149704D01*
X0048394Y0145311D01*
X0054607Y0145311D01*
X0056123Y0146827D02*
X0096680Y0146827D01*
X0096021Y0147100D02*
X0097711Y0146400D01*
X0099541Y0146400D01*
X0101232Y0147100D01*
X0102526Y0148394D01*
X0103226Y0150085D01*
X0103226Y0151915D01*
X0102526Y0153606D01*
X0101232Y0154900D01*
X0099541Y0155600D01*
X0097711Y0155600D01*
X0096021Y0154900D01*
X0094727Y0153606D01*
X0094026Y0151915D01*
X0094026Y0150085D01*
X0094727Y0148394D01*
X0096021Y0147100D01*
X0095295Y0147826D02*
X0057122Y0147826D01*
X0058120Y0148824D02*
X0094549Y0148824D01*
X0094135Y0149823D02*
X0059000Y0149823D01*
X0059000Y0150821D02*
X0094026Y0150821D01*
X0094026Y0151820D02*
X0059000Y0151820D01*
X0059000Y0152818D02*
X0094401Y0152818D01*
X0094938Y0153817D02*
X0059000Y0153817D01*
X0059000Y0154815D02*
X0095936Y0154815D01*
X0096716Y0156812D02*
X0058106Y0156812D01*
X0059000Y0155814D02*
X0106826Y0155814D01*
X0106826Y0154815D02*
X0101316Y0154815D01*
X0102315Y0153817D02*
X0106826Y0153817D01*
X0106826Y0152818D02*
X0102852Y0152818D01*
X0103226Y0151820D02*
X0106826Y0151820D01*
X0106826Y0150821D02*
X0103226Y0150821D01*
X0103118Y0149823D02*
X0106826Y0149823D01*
X0106826Y0148824D02*
X0102704Y0148824D01*
X0101958Y0147826D02*
X0106826Y0147826D01*
X0110426Y0147826D02*
X0125295Y0147826D01*
X0124549Y0148824D02*
X0110426Y0148824D01*
X0110426Y0149823D02*
X0124135Y0149823D01*
X0124026Y0150821D02*
X0110426Y0150821D01*
X0110426Y0151820D02*
X0124026Y0151820D01*
X0124401Y0152818D02*
X0110426Y0152818D01*
X0110426Y0153817D02*
X0124938Y0153817D01*
X0125936Y0154815D02*
X0110426Y0154815D01*
X0110426Y0155814D02*
X0186326Y0155814D01*
X0186326Y0155145D02*
X0186981Y0153564D01*
X0188191Y0152355D01*
X0189771Y0151700D01*
X0197482Y0151700D01*
X0199062Y0152355D01*
X0200272Y0153564D01*
X0200926Y0155145D01*
X0200926Y0156855D01*
X0200272Y0158436D01*
X0199062Y0159645D01*
X0197482Y0160300D01*
X0189771Y0160300D01*
X0188191Y0159645D01*
X0186981Y0158436D01*
X0186326Y0156855D01*
X0186326Y0155145D01*
X0186463Y0154815D02*
X0131316Y0154815D01*
X0132315Y0153817D02*
X0186876Y0153817D01*
X0187727Y0152818D02*
X0132852Y0152818D01*
X0133226Y0151820D02*
X0189482Y0151820D01*
X0189771Y0150300D02*
X0188191Y0149645D01*
X0186981Y0148436D01*
X0186326Y0146855D01*
X0186326Y0145145D01*
X0186981Y0143564D01*
X0188191Y0142355D01*
X0189771Y0141700D01*
X0197482Y0141700D01*
X0199062Y0142355D01*
X0200272Y0143564D01*
X0200926Y0145145D01*
X0200926Y0146855D01*
X0200272Y0148436D01*
X0199062Y0149645D01*
X0197482Y0150300D01*
X0189771Y0150300D01*
X0188619Y0149823D02*
X0133118Y0149823D01*
X0133072Y0148824D02*
X0187370Y0148824D01*
X0186728Y0147826D02*
X0134071Y0147826D01*
X0135069Y0146827D02*
X0186326Y0146827D01*
X0186326Y0145829D02*
X0136068Y0145829D01*
X0137066Y0144830D02*
X0186457Y0144830D01*
X0186870Y0143832D02*
X0138065Y0143832D01*
X0139063Y0142833D02*
X0187712Y0142833D01*
X0189446Y0141835D02*
X0139915Y0141835D01*
X0139915Y0140836D02*
X0208733Y0140836D01*
X0208733Y0139838D02*
X0198598Y0139838D01*
X0199062Y0139645D02*
X0197482Y0140300D01*
X0189771Y0140300D01*
X0188191Y0139645D01*
X0186981Y0138436D01*
X0186326Y0136855D01*
X0186326Y0135145D01*
X0186981Y0133564D01*
X0188191Y0132355D01*
X0189771Y0131700D01*
X0197482Y0131700D01*
X0199062Y0132355D01*
X0200272Y0133564D01*
X0200926Y0135145D01*
X0200926Y0136855D01*
X0200272Y0138436D01*
X0199062Y0139645D01*
X0199868Y0138839D02*
X0208733Y0138839D01*
X0208733Y0137841D02*
X0200518Y0137841D01*
X0200926Y0136842D02*
X0208733Y0136842D01*
X0208733Y0135844D02*
X0200926Y0135844D01*
X0200802Y0134845D02*
X0208733Y0134845D01*
X0208733Y0133847D02*
X0200389Y0133847D01*
X0199556Y0132848D02*
X0208733Y0132848D01*
X0208733Y0131850D02*
X0197843Y0131850D01*
X0197482Y0130300D02*
X0199062Y0129645D01*
X0200272Y0128436D01*
X0200926Y0126855D01*
X0200926Y0125145D01*
X0200272Y0123564D01*
X0199062Y0122355D01*
X0197482Y0121700D01*
X0189771Y0121700D01*
X0188191Y0122355D01*
X0186981Y0123564D01*
X0186326Y0125145D01*
X0186326Y0126855D01*
X0186981Y0128436D01*
X0188191Y0129645D01*
X0189771Y0130300D01*
X0197482Y0130300D01*
X0198562Y0129853D02*
X0208733Y0129853D01*
X0208733Y0130851D02*
X0147108Y0130851D01*
X0146110Y0131850D02*
X0189410Y0131850D01*
X0187697Y0132848D02*
X0145111Y0132848D01*
X0144113Y0133847D02*
X0186864Y0133847D01*
X0186450Y0134845D02*
X0143114Y0134845D01*
X0142116Y0135844D02*
X0186326Y0135844D01*
X0186326Y0136842D02*
X0141117Y0136842D01*
X0140119Y0137841D02*
X0186735Y0137841D01*
X0187384Y0138839D02*
X0139915Y0138839D01*
X0139915Y0139838D02*
X0188655Y0139838D01*
X0197807Y0141835D02*
X0208733Y0141835D01*
X0208733Y0142833D02*
X0199541Y0142833D01*
X0200383Y0143832D02*
X0208733Y0143832D01*
X0208733Y0144830D02*
X0200796Y0144830D01*
X0200926Y0145829D02*
X0208733Y0145829D01*
X0208733Y0146827D02*
X0200926Y0146827D01*
X0200524Y0147826D02*
X0208733Y0147826D01*
X0208733Y0148824D02*
X0199883Y0148824D01*
X0198634Y0149823D02*
X0208733Y0149823D01*
X0208733Y0150821D02*
X0133226Y0150821D01*
X0128626Y0150724D02*
X0138115Y0141236D01*
X0138115Y0137299D01*
X0157800Y0117614D01*
X0192012Y0117614D01*
X0193626Y0116000D01*
X0189338Y0111879D02*
X0185765Y0111879D01*
X0186763Y0110881D02*
X0208733Y0110881D01*
X0208733Y0111879D02*
X0197915Y0111879D01*
X0199585Y0112878D02*
X0208733Y0112878D01*
X0208733Y0113876D02*
X0200401Y0113876D01*
X0200815Y0114875D02*
X0208733Y0114875D01*
X0208733Y0115873D02*
X0200926Y0115873D01*
X0200919Y0116872D02*
X0208733Y0116872D01*
X0208733Y0117870D02*
X0200506Y0117870D01*
X0199838Y0118869D02*
X0208733Y0118869D01*
X0208733Y0119868D02*
X0198526Y0119868D01*
X0197879Y0121865D02*
X0208733Y0121865D01*
X0208733Y0122863D02*
X0199571Y0122863D01*
X0200395Y0123862D02*
X0208733Y0123862D01*
X0208733Y0124860D02*
X0200808Y0124860D01*
X0200926Y0125859D02*
X0208733Y0125859D01*
X0208733Y0126857D02*
X0200926Y0126857D01*
X0200512Y0127856D02*
X0208733Y0127856D01*
X0208733Y0128854D02*
X0199853Y0128854D01*
X0208733Y0120866D02*
X0157093Y0120866D01*
X0156095Y0121865D02*
X0189374Y0121865D01*
X0187682Y0122863D02*
X0172399Y0122863D01*
X0172809Y0123033D02*
X0173794Y0124017D01*
X0174326Y0125304D01*
X0174326Y0126696D01*
X0173794Y0127983D01*
X0172809Y0128967D01*
X0171523Y0129500D01*
X0165730Y0129500D01*
X0164444Y0128967D01*
X0163459Y0127983D01*
X0162926Y0126696D01*
X0162926Y0125304D01*
X0163459Y0124017D01*
X0164444Y0123033D01*
X0165730Y0122500D01*
X0171523Y0122500D01*
X0172809Y0123033D01*
X0173638Y0123862D02*
X0186858Y0123862D01*
X0186444Y0124860D02*
X0174143Y0124860D01*
X0174326Y0125859D02*
X0186326Y0125859D01*
X0186327Y0126857D02*
X0174260Y0126857D01*
X0173846Y0127856D02*
X0186741Y0127856D01*
X0187399Y0128854D02*
X0172922Y0128854D01*
X0164331Y0128854D02*
X0149105Y0128854D01*
X0148107Y0129853D02*
X0188691Y0129853D01*
X0188727Y0119868D02*
X0158092Y0119868D01*
X0155096Y0122863D02*
X0164854Y0122863D01*
X0163615Y0123862D02*
X0154098Y0123862D01*
X0153099Y0124860D02*
X0163110Y0124860D01*
X0162926Y0125859D02*
X0152101Y0125859D01*
X0151102Y0126857D02*
X0162993Y0126857D01*
X0163407Y0127856D02*
X0150104Y0127856D01*
X0144128Y0120866D02*
X0133226Y0120866D01*
X0133226Y0121865D02*
X0143130Y0121865D01*
X0142131Y0122863D02*
X0132834Y0122863D01*
X0132270Y0123862D02*
X0141133Y0123862D01*
X0140134Y0124860D02*
X0131272Y0124860D01*
X0133136Y0119868D02*
X0145127Y0119868D01*
X0146125Y0118869D02*
X0132723Y0118869D01*
X0132002Y0117870D02*
X0147124Y0117870D01*
X0148122Y0116872D02*
X0130681Y0116872D01*
X0129541Y0115600D02*
X0127711Y0115600D01*
X0126021Y0114900D01*
X0124727Y0113606D01*
X0124026Y0111915D01*
X0124026Y0110085D01*
X0124727Y0108394D01*
X0126021Y0107100D01*
X0127711Y0106400D01*
X0129541Y0106400D01*
X0131232Y0107100D01*
X0132526Y0108394D01*
X0133226Y0110085D01*
X0133226Y0111915D01*
X0132526Y0113606D01*
X0131232Y0114900D01*
X0129541Y0115600D01*
X0131257Y0114875D02*
X0150119Y0114875D01*
X0149121Y0115873D02*
X0096045Y0115873D01*
X0096021Y0114900D02*
X0094727Y0113606D01*
X0094026Y0111915D01*
X0094026Y0110085D01*
X0094727Y0108394D01*
X0096021Y0107100D01*
X0097711Y0106400D01*
X0099541Y0106400D01*
X0101232Y0107100D01*
X0102526Y0108394D01*
X0103226Y0110085D01*
X0103226Y0111915D01*
X0102526Y0113606D01*
X0101232Y0114900D01*
X0099541Y0115600D01*
X0097711Y0115600D01*
X0096021Y0114900D01*
X0095996Y0114875D02*
X0095047Y0114875D01*
X0094997Y0113876D02*
X0094048Y0113876D01*
X0094425Y0112878D02*
X0093050Y0112878D01*
X0094026Y0111879D02*
X0092051Y0111879D01*
X0091053Y0110881D02*
X0094026Y0110881D01*
X0094110Y0109882D02*
X0090054Y0109882D01*
X0089056Y0108884D02*
X0094524Y0108884D01*
X0095236Y0107885D02*
X0088057Y0107885D01*
X0087059Y0106887D02*
X0096536Y0106887D01*
X0096011Y0104890D02*
X0085062Y0104890D01*
X0086060Y0105888D02*
X0156000Y0105888D01*
X0156000Y0106887D02*
X0130717Y0106887D01*
X0132017Y0107885D02*
X0156000Y0107885D01*
X0156000Y0108884D02*
X0132729Y0108884D01*
X0133142Y0109882D02*
X0155112Y0109882D01*
X0154113Y0110881D02*
X0133226Y0110881D01*
X0133226Y0111879D02*
X0153115Y0111879D01*
X0152116Y0112878D02*
X0132828Y0112878D01*
X0132255Y0113876D02*
X0151118Y0113876D01*
X0157800Y0109740D02*
X0157800Y0105803D01*
X0165674Y0097929D01*
X0158164Y0102893D02*
X0133049Y0102893D01*
X0132459Y0103891D02*
X0157166Y0103891D01*
X0156167Y0104890D02*
X0131439Y0104890D01*
X0129126Y0104890D02*
X0128126Y0104890D01*
X0128126Y0103891D02*
X0129126Y0103891D01*
X0129126Y0102893D02*
X0128126Y0102893D01*
X0128126Y0099897D02*
X0129126Y0099897D01*
X0129126Y0098899D02*
X0128126Y0098899D01*
X0128126Y0097900D02*
X0129126Y0097900D01*
X0129126Y0096902D02*
X0128126Y0096902D01*
X0123908Y0101894D02*
X0103226Y0101894D01*
X0102821Y0102893D02*
X0124204Y0102893D01*
X0124794Y0103891D02*
X0102240Y0103891D01*
X0101242Y0104890D02*
X0125814Y0104890D01*
X0126536Y0106887D02*
X0100717Y0106887D01*
X0102017Y0107885D02*
X0125236Y0107885D01*
X0124524Y0108884D02*
X0102729Y0108884D01*
X0103142Y0109882D02*
X0124110Y0109882D01*
X0124026Y0110881D02*
X0103226Y0110881D01*
X0103226Y0111879D02*
X0124026Y0111879D01*
X0124425Y0112878D02*
X0102828Y0112878D01*
X0102255Y0113876D02*
X0124997Y0113876D01*
X0125996Y0114875D02*
X0101257Y0114875D01*
X0098626Y0121000D02*
X0075122Y0097496D01*
X0075122Y0046748D01*
X0071185Y0042811D01*
X0063311Y0042811D01*
X0056185Y0049937D01*
X0056185Y0055055D01*
X0059180Y0051969D02*
X0063191Y0051969D01*
X0064189Y0050970D02*
X0058182Y0050970D01*
X0058696Y0049972D02*
X0073322Y0049972D01*
X0073322Y0050970D02*
X0068182Y0050970D01*
X0067967Y0050755D02*
X0070485Y0053274D01*
X0070485Y0056836D01*
X0067967Y0059355D01*
X0064404Y0059355D01*
X0061885Y0056836D01*
X0061885Y0053274D01*
X0064404Y0050755D01*
X0067967Y0050755D01*
X0069180Y0051969D02*
X0073322Y0051969D01*
X0073322Y0052967D02*
X0070179Y0052967D01*
X0070485Y0053966D02*
X0073322Y0053966D01*
X0073322Y0054964D02*
X0070485Y0054964D01*
X0070485Y0055963D02*
X0073322Y0055963D01*
X0073322Y0056961D02*
X0070360Y0056961D01*
X0069362Y0057960D02*
X0073322Y0057960D01*
X0073322Y0058958D02*
X0068363Y0058958D01*
X0068049Y0060555D02*
X0070685Y0063191D01*
X0070685Y0064555D01*
X0066685Y0064555D01*
X0066685Y0060555D01*
X0068049Y0060555D01*
X0068450Y0060955D02*
X0073322Y0060955D01*
X0073322Y0059957D02*
X0016067Y0059957D01*
X0016067Y0060955D02*
X0044204Y0060955D01*
X0044404Y0060755D02*
X0047967Y0060755D01*
X0050485Y0063274D01*
X0050485Y0066836D01*
X0047967Y0069355D01*
X0044404Y0069355D01*
X0041885Y0066836D01*
X0041885Y0063274D01*
X0044404Y0060755D01*
X0044404Y0059355D02*
X0041885Y0056836D01*
X0041885Y0053274D01*
X0044404Y0050755D01*
X0047967Y0050755D01*
X0050485Y0053274D01*
X0050485Y0056836D01*
X0047967Y0059355D01*
X0044404Y0059355D01*
X0044008Y0058958D02*
X0016067Y0058958D01*
X0016067Y0057960D02*
X0043009Y0057960D01*
X0042011Y0056961D02*
X0016067Y0056961D01*
X0016067Y0055963D02*
X0041885Y0055963D01*
X0041885Y0054964D02*
X0016067Y0054964D01*
X0016067Y0053966D02*
X0041885Y0053966D01*
X0042192Y0052967D02*
X0016067Y0052967D01*
X0016067Y0051969D02*
X0043191Y0051969D01*
X0044189Y0050970D02*
X0016067Y0050970D01*
X0016067Y0049972D02*
X0054385Y0049972D01*
X0054189Y0050970D02*
X0048182Y0050970D01*
X0049180Y0051969D02*
X0053191Y0051969D01*
X0052192Y0052967D02*
X0050179Y0052967D01*
X0050485Y0053966D02*
X0051885Y0053966D01*
X0051885Y0054964D02*
X0050485Y0054964D01*
X0050485Y0055963D02*
X0051885Y0055963D01*
X0052011Y0056961D02*
X0050360Y0056961D01*
X0049362Y0057960D02*
X0053009Y0057960D01*
X0054008Y0058958D02*
X0048363Y0058958D01*
X0048167Y0060955D02*
X0054204Y0060955D01*
X0053206Y0061954D02*
X0049165Y0061954D01*
X0050164Y0062952D02*
X0052207Y0062952D01*
X0051885Y0063951D02*
X0050485Y0063951D01*
X0050485Y0064949D02*
X0051885Y0064949D01*
X0051885Y0065948D02*
X0050485Y0065948D01*
X0050375Y0066946D02*
X0051996Y0066946D01*
X0052994Y0067945D02*
X0049377Y0067945D01*
X0048378Y0068943D02*
X0053993Y0068943D01*
X0054385Y0069942D02*
X0016067Y0069942D01*
X0016067Y0070940D02*
X0054385Y0070940D01*
X0054385Y0071939D02*
X0016067Y0071939D01*
X0016067Y0072937D02*
X0054385Y0072937D01*
X0054385Y0073936D02*
X0016067Y0073936D01*
X0016067Y0074934D02*
X0054385Y0074934D01*
X0054385Y0075933D02*
X0016067Y0075933D01*
X0016067Y0076932D02*
X0054385Y0076932D01*
X0054385Y0077930D02*
X0016067Y0077930D01*
X0016067Y0078929D02*
X0054385Y0078929D01*
X0054385Y0079927D02*
X0016067Y0079927D01*
X0016067Y0080926D02*
X0054385Y0080926D01*
X0054385Y0081924D02*
X0016067Y0081924D01*
X0016067Y0082923D02*
X0054385Y0082923D01*
X0054385Y0083921D02*
X0016067Y0083921D01*
X0016067Y0084920D02*
X0054385Y0084920D01*
X0054385Y0085918D02*
X0016067Y0085918D01*
X0016067Y0086917D02*
X0054385Y0086917D01*
X0054385Y0087915D02*
X0016067Y0087915D01*
X0016067Y0088914D02*
X0054385Y0088914D01*
X0054385Y0089912D02*
X0016067Y0089912D01*
X0016067Y0090911D02*
X0054385Y0090911D01*
X0054385Y0091909D02*
X0016067Y0091909D01*
X0016067Y0092908D02*
X0054385Y0092908D01*
X0054385Y0093906D02*
X0016067Y0093906D01*
X0016067Y0094905D02*
X0054385Y0094905D01*
X0054385Y0095903D02*
X0016067Y0095903D01*
X0016067Y0096902D02*
X0054385Y0096902D01*
X0054385Y0097900D02*
X0016067Y0097900D01*
X0016067Y0098899D02*
X0054385Y0098899D01*
X0054978Y0099897D02*
X0016067Y0099897D01*
X0016067Y0100896D02*
X0055977Y0100896D01*
X0056975Y0101894D02*
X0016067Y0101894D01*
X0016067Y0102893D02*
X0057974Y0102893D01*
X0058972Y0103891D02*
X0016067Y0103891D01*
X0016067Y0104890D02*
X0059971Y0104890D01*
X0060969Y0105888D02*
X0016067Y0105888D01*
X0016067Y0106887D02*
X0061968Y0106887D01*
X0062966Y0107885D02*
X0016067Y0107885D01*
X0016067Y0108884D02*
X0063965Y0108884D01*
X0064963Y0109882D02*
X0016067Y0109882D01*
X0016067Y0110881D02*
X0065962Y0110881D01*
X0066960Y0111879D02*
X0016067Y0111879D01*
X0016067Y0112878D02*
X0067959Y0112878D01*
X0068957Y0113876D02*
X0016067Y0113876D01*
X0016067Y0114875D02*
X0069956Y0114875D01*
X0070954Y0115873D02*
X0016067Y0115873D01*
X0016067Y0116872D02*
X0071953Y0116872D01*
X0072951Y0117870D02*
X0016067Y0117870D01*
X0016067Y0118869D02*
X0073950Y0118869D01*
X0074948Y0119868D02*
X0016067Y0119868D01*
X0016067Y0120866D02*
X0075947Y0120866D01*
X0076945Y0121865D02*
X0016067Y0121865D01*
X0016067Y0122863D02*
X0077944Y0122863D01*
X0078942Y0123862D02*
X0016067Y0123862D01*
X0016067Y0124860D02*
X0079941Y0124860D01*
X0080939Y0125859D02*
X0055437Y0125859D01*
X0054690Y0125111D02*
X0059200Y0129622D01*
X0059200Y0132311D01*
X0052000Y0132311D01*
X0052000Y0125111D01*
X0054690Y0125111D01*
X0056436Y0126857D02*
X0081938Y0126857D01*
X0082936Y0127856D02*
X0057434Y0127856D01*
X0058433Y0128854D02*
X0083935Y0128854D01*
X0084933Y0129853D02*
X0059200Y0129853D01*
X0059200Y0130851D02*
X0085932Y0130851D01*
X0086930Y0131850D02*
X0059200Y0131850D01*
X0059200Y0133311D02*
X0059200Y0136000D01*
X0054690Y0140511D01*
X0052000Y0140511D01*
X0052000Y0133311D01*
X0051000Y0133311D01*
X0051000Y0132311D01*
X0043800Y0132311D01*
X0043800Y0129622D01*
X0048311Y0125111D01*
X0051000Y0125111D01*
X0051000Y0132311D01*
X0052000Y0132311D01*
X0052000Y0133311D01*
X0059200Y0133311D01*
X0059200Y0133847D02*
X0088927Y0133847D01*
X0087929Y0132848D02*
X0052000Y0132848D01*
X0052000Y0131850D02*
X0051000Y0131850D01*
X0051000Y0132848D02*
X0016067Y0132848D01*
X0016067Y0131850D02*
X0043800Y0131850D01*
X0043800Y0130851D02*
X0016067Y0130851D01*
X0016067Y0129853D02*
X0043800Y0129853D01*
X0044568Y0128854D02*
X0016067Y0128854D01*
X0016067Y0127856D02*
X0045566Y0127856D01*
X0046565Y0126857D02*
X0016067Y0126857D01*
X0016067Y0125859D02*
X0047563Y0125859D01*
X0051000Y0125859D02*
X0052000Y0125859D01*
X0052000Y0126857D02*
X0051000Y0126857D01*
X0051000Y0127856D02*
X0052000Y0127856D01*
X0052000Y0128854D02*
X0051000Y0128854D01*
X0051000Y0129853D02*
X0052000Y0129853D01*
X0052000Y0130851D02*
X0051000Y0130851D01*
X0051000Y0133311D02*
X0043800Y0133311D01*
X0043800Y0136000D01*
X0048311Y0140511D01*
X0051000Y0140511D01*
X0051000Y0133311D01*
X0051000Y0133847D02*
X0052000Y0133847D01*
X0052000Y0134845D02*
X0051000Y0134845D01*
X0051000Y0135844D02*
X0052000Y0135844D01*
X0052000Y0136842D02*
X0051000Y0136842D01*
X0051000Y0137841D02*
X0052000Y0137841D01*
X0052000Y0138839D02*
X0051000Y0138839D01*
X0051000Y0139838D02*
X0052000Y0139838D01*
X0055363Y0139838D02*
X0094129Y0139838D01*
X0094026Y0140836D02*
X0016067Y0140836D01*
X0016067Y0139838D02*
X0047638Y0139838D01*
X0046639Y0138839D02*
X0016067Y0138839D01*
X0016067Y0137841D02*
X0045641Y0137841D01*
X0044642Y0136842D02*
X0016067Y0136842D01*
X0016067Y0135844D02*
X0043800Y0135844D01*
X0043800Y0134845D02*
X0016067Y0134845D01*
X0016067Y0133847D02*
X0043800Y0133847D01*
X0047876Y0145829D02*
X0016067Y0145829D01*
X0016067Y0146827D02*
X0046877Y0146827D01*
X0045879Y0147826D02*
X0016067Y0147826D01*
X0016067Y0148824D02*
X0044880Y0148824D01*
X0044000Y0149823D02*
X0016067Y0149823D01*
X0016067Y0150821D02*
X0044000Y0150821D01*
X0044000Y0151820D02*
X0016067Y0151820D01*
X0016067Y0152818D02*
X0044000Y0152818D01*
X0044000Y0153817D02*
X0016067Y0153817D01*
X0016067Y0154815D02*
X0044000Y0154815D01*
X0044000Y0155814D02*
X0016067Y0155814D01*
X0016067Y0156812D02*
X0044895Y0156812D01*
X0045894Y0157811D02*
X0016067Y0157811D01*
X0016067Y0158809D02*
X0046892Y0158809D01*
X0047891Y0159808D02*
X0016067Y0159808D01*
X0016067Y0160806D02*
X0094026Y0160806D01*
X0094026Y0160085D02*
X0094727Y0158394D01*
X0096021Y0157100D01*
X0097711Y0156400D01*
X0099541Y0156400D01*
X0101232Y0157100D01*
X0102526Y0158394D01*
X0103226Y0160085D01*
X0103226Y0161915D01*
X0102526Y0163606D01*
X0101232Y0164900D01*
X0099541Y0165600D01*
X0097711Y0165600D01*
X0096021Y0164900D01*
X0094727Y0163606D01*
X0094026Y0161915D01*
X0094026Y0160085D01*
X0094141Y0159808D02*
X0055110Y0159808D01*
X0056109Y0158809D02*
X0094555Y0158809D01*
X0095310Y0157811D02*
X0057107Y0157811D01*
X0056362Y0138839D02*
X0093920Y0138839D01*
X0092922Y0137841D02*
X0057360Y0137841D01*
X0058359Y0136842D02*
X0091923Y0136842D01*
X0090924Y0135844D02*
X0059200Y0135844D01*
X0059200Y0134845D02*
X0089926Y0134845D01*
X0094026Y0141835D02*
X0016067Y0141835D01*
X0016067Y0142833D02*
X0094407Y0142833D01*
X0094953Y0143832D02*
X0016067Y0143832D01*
X0016067Y0144830D02*
X0095951Y0144830D01*
X0098626Y0141000D02*
X0056185Y0098559D01*
X0056185Y0065055D01*
X0059165Y0061954D02*
X0062923Y0061954D01*
X0063921Y0060955D02*
X0058167Y0060955D01*
X0058363Y0058958D02*
X0064008Y0058958D01*
X0063009Y0057960D02*
X0059362Y0057960D01*
X0060360Y0056961D02*
X0062011Y0056961D01*
X0061885Y0055963D02*
X0060485Y0055963D01*
X0060485Y0054964D02*
X0061885Y0054964D01*
X0061885Y0053966D02*
X0060485Y0053966D01*
X0060179Y0052967D02*
X0062192Y0052967D01*
X0059695Y0048973D02*
X0073322Y0048973D01*
X0073322Y0047975D02*
X0060693Y0047975D01*
X0061692Y0046976D02*
X0072805Y0046976D01*
X0071806Y0045978D02*
X0062690Y0045978D01*
X0063689Y0044979D02*
X0070808Y0044979D01*
X0072904Y0041984D02*
X0094055Y0041984D01*
X0094026Y0041915D02*
X0094026Y0040085D01*
X0094727Y0038394D01*
X0096021Y0037100D01*
X0097711Y0036400D01*
X0099541Y0036400D01*
X0101232Y0037100D01*
X0102526Y0038394D01*
X0103226Y0040085D01*
X0103226Y0041915D01*
X0102526Y0043606D01*
X0101232Y0044900D01*
X0099541Y0045600D01*
X0097711Y0045600D01*
X0096021Y0044900D01*
X0094727Y0043606D01*
X0094026Y0041915D01*
X0094026Y0040985D02*
X0016067Y0040985D01*
X0016067Y0039987D02*
X0094067Y0039987D01*
X0094481Y0038988D02*
X0016067Y0038988D01*
X0016067Y0037990D02*
X0095131Y0037990D01*
X0096284Y0036991D02*
X0016067Y0036991D01*
X0016067Y0035993D02*
X0138450Y0035993D01*
X0137452Y0036991D02*
X0130968Y0036991D01*
X0132465Y0035600D02*
X0124788Y0035600D01*
X0124026Y0034838D01*
X0124026Y0027162D01*
X0124788Y0026400D01*
X0132465Y0026400D01*
X0133226Y0027162D01*
X0133226Y0034838D01*
X0132465Y0035600D01*
X0133071Y0034994D02*
X0139449Y0034994D01*
X0140252Y0033996D02*
X0133226Y0033996D01*
X0133226Y0032997D02*
X0140252Y0032997D01*
X0140252Y0031999D02*
X0133226Y0031999D01*
X0133226Y0031000D02*
X0140252Y0031000D01*
X0140504Y0030001D02*
X0133226Y0030001D01*
X0133226Y0029003D02*
X0141503Y0029003D01*
X0142502Y0028004D02*
X0133226Y0028004D01*
X0133071Y0027006D02*
X0143500Y0027006D01*
X0145989Y0031000D02*
X0165674Y0031000D01*
X0168548Y0033874D01*
X0168548Y0042811D01*
X0164248Y0041984D02*
X0163048Y0041984D01*
X0163048Y0040985D02*
X0164248Y0040985D01*
X0164248Y0039987D02*
X0163048Y0039987D01*
X0162973Y0038988D02*
X0164248Y0038988D01*
X0164648Y0037990D02*
X0162670Y0037990D01*
X0162061Y0036991D02*
X0165286Y0036991D01*
X0166530Y0035993D02*
X0160948Y0035993D01*
X0165125Y0032997D02*
X0147789Y0032997D01*
X0147789Y0033996D02*
X0166124Y0033996D01*
X0166748Y0034994D02*
X0147789Y0034994D01*
X0139278Y0046976D02*
X0130932Y0046976D01*
X0132106Y0047975D02*
X0138279Y0047975D01*
X0132166Y0053966D02*
X0208733Y0053966D01*
X0208733Y0054964D02*
X0131076Y0054964D01*
X0126177Y0054964D02*
X0101076Y0054964D01*
X0102166Y0053966D02*
X0125087Y0053966D01*
X0124462Y0052967D02*
X0102791Y0052967D01*
X0103204Y0051969D02*
X0124049Y0051969D01*
X0124026Y0050970D02*
X0103226Y0050970D01*
X0103179Y0049972D02*
X0124073Y0049972D01*
X0124487Y0048973D02*
X0102766Y0048973D01*
X0102106Y0047975D02*
X0125146Y0047975D01*
X0126320Y0046976D02*
X0100932Y0046976D01*
X0101040Y0044979D02*
X0126213Y0044979D01*
X0125102Y0043981D02*
X0102151Y0043981D01*
X0102784Y0042982D02*
X0124468Y0042982D01*
X0124055Y0041984D02*
X0103198Y0041984D01*
X0103226Y0040985D02*
X0124026Y0040985D01*
X0124067Y0039987D02*
X0103186Y0039987D01*
X0102772Y0038988D02*
X0124481Y0038988D01*
X0125131Y0037990D02*
X0102121Y0037990D01*
X0100968Y0036991D02*
X0126284Y0036991D01*
X0124182Y0034994D02*
X0101004Y0034994D01*
X0101232Y0034900D02*
X0099541Y0035600D01*
X0097711Y0035600D01*
X0096021Y0034900D01*
X0094727Y0033606D01*
X0094026Y0031915D01*
X0094026Y0030085D01*
X0094727Y0028394D01*
X0096021Y0027100D01*
X0097711Y0026400D01*
X0099541Y0026400D01*
X0101232Y0027100D01*
X0102526Y0028394D01*
X0103226Y0030085D01*
X0103226Y0031915D01*
X0102526Y0033606D01*
X0101232Y0034900D01*
X0102136Y0033996D02*
X0124026Y0033996D01*
X0124026Y0032997D02*
X0102778Y0032997D01*
X0103192Y0031999D02*
X0124026Y0031999D01*
X0124026Y0031000D02*
X0103226Y0031000D01*
X0103192Y0030001D02*
X0124026Y0030001D01*
X0124026Y0029003D02*
X0102778Y0029003D01*
X0102136Y0028004D02*
X0124026Y0028004D01*
X0124182Y0027006D02*
X0101004Y0027006D01*
X0096248Y0027006D02*
X0016067Y0027006D01*
X0016067Y0028004D02*
X0095117Y0028004D01*
X0094475Y0029003D02*
X0016067Y0029003D01*
X0016067Y0030001D02*
X0094061Y0030001D01*
X0094026Y0031000D02*
X0016067Y0031000D01*
X0016067Y0031999D02*
X0094061Y0031999D01*
X0094475Y0032997D02*
X0016067Y0032997D01*
X0016067Y0033996D02*
X0095117Y0033996D01*
X0096248Y0034994D02*
X0016067Y0034994D01*
X0016067Y0041984D02*
X0061593Y0041984D01*
X0060595Y0042982D02*
X0016067Y0042982D01*
X0016067Y0043981D02*
X0059596Y0043981D01*
X0058598Y0044979D02*
X0016067Y0044979D01*
X0016067Y0045978D02*
X0057599Y0045978D01*
X0056601Y0046976D02*
X0016067Y0046976D01*
X0016067Y0047975D02*
X0055602Y0047975D01*
X0054604Y0048973D02*
X0016067Y0048973D01*
X0016067Y0061954D02*
X0043206Y0061954D01*
X0042207Y0062952D02*
X0016067Y0062952D01*
X0016067Y0063951D02*
X0041885Y0063951D01*
X0041885Y0064949D02*
X0016067Y0064949D01*
X0016067Y0065948D02*
X0041885Y0065948D01*
X0041996Y0066946D02*
X0016067Y0066946D01*
X0016067Y0067945D02*
X0042994Y0067945D01*
X0043993Y0068943D02*
X0016067Y0068943D01*
X0057985Y0069942D02*
X0073322Y0069942D01*
X0073322Y0070940D02*
X0057985Y0070940D01*
X0057985Y0071939D02*
X0073322Y0071939D01*
X0073322Y0072937D02*
X0057985Y0072937D01*
X0057985Y0073936D02*
X0073322Y0073936D01*
X0073322Y0074934D02*
X0057985Y0074934D01*
X0057985Y0075933D02*
X0073322Y0075933D01*
X0073322Y0076932D02*
X0057985Y0076932D01*
X0057985Y0077930D02*
X0073322Y0077930D01*
X0073322Y0078929D02*
X0057985Y0078929D01*
X0057985Y0079927D02*
X0073322Y0079927D01*
X0073322Y0080926D02*
X0057985Y0080926D01*
X0057985Y0081924D02*
X0073322Y0081924D01*
X0073322Y0082923D02*
X0057985Y0082923D01*
X0057985Y0083921D02*
X0073322Y0083921D01*
X0073322Y0084920D02*
X0057985Y0084920D01*
X0057985Y0085918D02*
X0073322Y0085918D01*
X0073322Y0086917D02*
X0057985Y0086917D01*
X0057985Y0087915D02*
X0073322Y0087915D01*
X0073322Y0088914D02*
X0057985Y0088914D01*
X0057985Y0089912D02*
X0073322Y0089912D01*
X0073322Y0090911D02*
X0057985Y0090911D01*
X0057985Y0091909D02*
X0073322Y0091909D01*
X0073322Y0092908D02*
X0057985Y0092908D01*
X0057985Y0093906D02*
X0073322Y0093906D01*
X0073322Y0094905D02*
X0057985Y0094905D01*
X0057985Y0095903D02*
X0073322Y0095903D01*
X0073322Y0096902D02*
X0057985Y0096902D01*
X0058072Y0097900D02*
X0073322Y0097900D01*
X0073980Y0098899D02*
X0059071Y0098899D01*
X0060069Y0099897D02*
X0074978Y0099897D01*
X0075977Y0100896D02*
X0061068Y0100896D01*
X0062066Y0101894D02*
X0076975Y0101894D01*
X0077974Y0102893D02*
X0063065Y0102893D01*
X0064063Y0103891D02*
X0078972Y0103891D01*
X0079971Y0104890D02*
X0065062Y0104890D01*
X0066060Y0105888D02*
X0080969Y0105888D01*
X0081968Y0106887D02*
X0067059Y0106887D01*
X0068057Y0107885D02*
X0082966Y0107885D01*
X0083965Y0108884D02*
X0069056Y0108884D01*
X0070054Y0109882D02*
X0084963Y0109882D01*
X0085962Y0110881D02*
X0071053Y0110881D01*
X0072051Y0111879D02*
X0086960Y0111879D01*
X0087959Y0112878D02*
X0073050Y0112878D01*
X0074048Y0113876D02*
X0088957Y0113876D01*
X0089956Y0114875D02*
X0075047Y0114875D01*
X0076045Y0115873D02*
X0090954Y0115873D01*
X0091953Y0116872D02*
X0077044Y0116872D01*
X0078042Y0117870D02*
X0092951Y0117870D01*
X0093950Y0118869D02*
X0079041Y0118869D01*
X0080039Y0119868D02*
X0094116Y0119868D01*
X0094026Y0120866D02*
X0081038Y0120866D01*
X0082036Y0121865D02*
X0094026Y0121865D01*
X0094419Y0122863D02*
X0083035Y0122863D01*
X0084034Y0123862D02*
X0094983Y0123862D01*
X0095981Y0124860D02*
X0085032Y0124860D01*
X0101987Y0127856D02*
X0106826Y0127856D01*
X0106826Y0128854D02*
X0102717Y0128854D01*
X0103130Y0129853D02*
X0106826Y0129853D01*
X0106826Y0130851D02*
X0103226Y0130851D01*
X0103226Y0131850D02*
X0106826Y0131850D01*
X0106826Y0132848D02*
X0102840Y0132848D01*
X0102285Y0133847D02*
X0106826Y0133847D01*
X0106826Y0134845D02*
X0101287Y0134845D01*
X0110426Y0134845D02*
X0125966Y0134845D01*
X0124968Y0133847D02*
X0110426Y0133847D01*
X0110426Y0132848D02*
X0124413Y0132848D01*
X0124026Y0131850D02*
X0110426Y0131850D01*
X0110426Y0130851D02*
X0124026Y0130851D01*
X0124123Y0129853D02*
X0110426Y0129853D01*
X0110426Y0128854D02*
X0124536Y0128854D01*
X0125265Y0127856D02*
X0110426Y0127856D01*
X0108626Y0121000D02*
X0108626Y0158913D01*
X0105148Y0158809D02*
X0102698Y0158809D01*
X0103112Y0159808D02*
X0105232Y0159808D01*
X0105646Y0160806D02*
X0103226Y0160806D01*
X0103226Y0161805D02*
X0106599Y0161805D01*
X0102858Y0162803D02*
X0124394Y0162803D01*
X0124727Y0163606D02*
X0124026Y0161915D01*
X0124026Y0160085D01*
X0124727Y0158394D01*
X0126021Y0157100D01*
X0127711Y0156400D01*
X0129541Y0156400D01*
X0131232Y0157100D01*
X0132526Y0158394D01*
X0133226Y0160085D01*
X0133226Y0161915D01*
X0132526Y0163606D01*
X0131232Y0164900D01*
X0129541Y0165600D01*
X0127711Y0165600D01*
X0126021Y0164900D01*
X0124727Y0163606D01*
X0124923Y0163802D02*
X0102330Y0163802D01*
X0101331Y0164801D02*
X0125922Y0164801D01*
X0124026Y0161805D02*
X0110653Y0161805D01*
X0111607Y0160806D02*
X0124026Y0160806D01*
X0124141Y0159808D02*
X0112020Y0159808D01*
X0112104Y0158809D02*
X0124555Y0158809D01*
X0125310Y0157811D02*
X0111934Y0157811D01*
X0111444Y0156812D02*
X0126716Y0156812D01*
X0130537Y0156812D02*
X0186326Y0156812D01*
X0186722Y0157811D02*
X0131943Y0157811D01*
X0132698Y0158809D02*
X0187355Y0158809D01*
X0188583Y0159808D02*
X0133112Y0159808D01*
X0133226Y0160806D02*
X0208733Y0160806D01*
X0208733Y0159808D02*
X0198670Y0159808D01*
X0199898Y0158809D02*
X0208733Y0158809D01*
X0208733Y0157811D02*
X0200531Y0157811D01*
X0200926Y0156812D02*
X0208733Y0156812D01*
X0208733Y0155814D02*
X0200926Y0155814D01*
X0200790Y0154815D02*
X0208733Y0154815D01*
X0208733Y0153817D02*
X0200376Y0153817D01*
X0199526Y0152818D02*
X0208733Y0152818D01*
X0208733Y0151820D02*
X0197771Y0151820D01*
X0197482Y0161700D02*
X0189771Y0161700D01*
X0188191Y0162355D01*
X0186981Y0163564D01*
X0186326Y0165145D01*
X0186326Y0165754D01*
X0177881Y0174200D01*
X0131645Y0174200D01*
X0131575Y0174030D01*
X0130596Y0173052D01*
X0129318Y0172522D01*
X0127935Y0172522D01*
X0126656Y0173052D01*
X0125678Y0174030D01*
X0125148Y0175308D01*
X0125148Y0176692D01*
X0125678Y0177970D01*
X0126656Y0178948D01*
X0127935Y0179478D01*
X0129318Y0179478D01*
X0130596Y0178948D01*
X0131575Y0177970D01*
X0131645Y0177800D01*
X0179372Y0177800D01*
X0187859Y0169313D01*
X0188191Y0169645D01*
X0189771Y0170300D01*
X0197482Y0170300D01*
X0199062Y0169645D01*
X0200272Y0168436D01*
X0200926Y0166855D01*
X0200926Y0165145D01*
X0200272Y0163564D01*
X0199062Y0162355D01*
X0197482Y0161700D01*
X0197735Y0161805D02*
X0208733Y0161805D01*
X0208733Y0162803D02*
X0199511Y0162803D01*
X0200370Y0163802D02*
X0208733Y0163802D01*
X0208733Y0164801D02*
X0200784Y0164801D01*
X0200926Y0165799D02*
X0208733Y0165799D01*
X0208733Y0166798D02*
X0200926Y0166798D01*
X0200537Y0167796D02*
X0208733Y0167796D01*
X0208733Y0168795D02*
X0199913Y0168795D01*
X0198705Y0169793D02*
X0208733Y0169793D01*
X0208733Y0170792D02*
X0186380Y0170792D01*
X0185382Y0171790D02*
X0189021Y0171790D01*
X0188899Y0171830D02*
X0189573Y0171611D01*
X0190272Y0171500D01*
X0193126Y0171500D01*
X0193126Y0175500D01*
X0186149Y0175500D01*
X0186237Y0174946D01*
X0186456Y0174273D01*
X0186778Y0173641D01*
X0187194Y0173068D01*
X0187695Y0172568D01*
X0188268Y0172151D01*
X0188899Y0171830D01*
X0187474Y0172789D02*
X0184383Y0172789D01*
X0183385Y0173787D02*
X0186703Y0173787D01*
X0186289Y0174786D02*
X0182386Y0174786D01*
X0181388Y0175784D02*
X0193126Y0175784D01*
X0193126Y0175500D02*
X0193126Y0176500D01*
X0186149Y0176500D01*
X0186237Y0177054D01*
X0186456Y0177727D01*
X0186778Y0178359D01*
X0187194Y0178932D01*
X0187695Y0179432D01*
X0188268Y0179849D01*
X0188899Y0180170D01*
X0189573Y0180389D01*
X0190272Y0180500D01*
X0193126Y0180500D01*
X0193126Y0176500D01*
X0194126Y0176500D01*
X0194126Y0180500D01*
X0196981Y0180500D01*
X0197680Y0180389D01*
X0198354Y0180170D01*
X0198985Y0179849D01*
X0199558Y0179432D01*
X0200059Y0178932D01*
X0200475Y0178359D01*
X0200797Y0177727D01*
X0201016Y0177054D01*
X0201103Y0176500D01*
X0194126Y0176500D01*
X0194126Y0175500D01*
X0194126Y0171500D01*
X0196981Y0171500D01*
X0197680Y0171611D01*
X0198354Y0171830D01*
X0198985Y0172151D01*
X0199558Y0172568D01*
X0200059Y0173068D01*
X0200475Y0173641D01*
X0200797Y0174273D01*
X0201016Y0174946D01*
X0201103Y0175500D01*
X0194126Y0175500D01*
X0193126Y0175500D01*
X0193126Y0174786D02*
X0194126Y0174786D01*
X0194126Y0175784D02*
X0208733Y0175784D01*
X0208733Y0174786D02*
X0200963Y0174786D01*
X0200549Y0173787D02*
X0208733Y0173787D01*
X0208733Y0172789D02*
X0199779Y0172789D01*
X0198232Y0171790D02*
X0208733Y0171790D01*
X0208733Y0176783D02*
X0201059Y0176783D01*
X0200769Y0177781D02*
X0208733Y0177781D01*
X0208733Y0178780D02*
X0200169Y0178780D01*
X0199082Y0179778D02*
X0208733Y0179778D01*
X0208733Y0180777D02*
X0118226Y0180777D01*
X0118226Y0180085D02*
X0117526Y0178394D01*
X0116232Y0177100D01*
X0114541Y0176400D01*
X0112711Y0176400D01*
X0111021Y0177100D01*
X0109727Y0178394D01*
X0109026Y0180085D01*
X0109026Y0181915D01*
X0109727Y0183606D01*
X0111021Y0184900D01*
X0112711Y0185600D01*
X0114541Y0185600D01*
X0116232Y0184900D01*
X0117526Y0183606D01*
X0118226Y0181915D01*
X0118226Y0180085D01*
X0118099Y0179778D02*
X0188171Y0179778D01*
X0187084Y0178780D02*
X0130765Y0178780D01*
X0128626Y0176000D02*
X0178626Y0176000D01*
X0188626Y0166000D01*
X0193626Y0166000D01*
X0189518Y0161805D02*
X0133226Y0161805D01*
X0132858Y0162803D02*
X0187742Y0162803D01*
X0186883Y0163802D02*
X0132330Y0163802D01*
X0131331Y0164801D02*
X0186469Y0164801D01*
X0186282Y0165799D02*
X0016067Y0165799D01*
X0016067Y0164801D02*
X0095922Y0164801D01*
X0094923Y0163802D02*
X0016067Y0163802D01*
X0016067Y0162803D02*
X0094394Y0162803D01*
X0094026Y0161805D02*
X0016067Y0161805D01*
X0016067Y0166798D02*
X0185283Y0166798D01*
X0184285Y0167796D02*
X0016067Y0167796D01*
X0016067Y0168795D02*
X0183286Y0168795D01*
X0182288Y0169793D02*
X0016067Y0169793D01*
X0016067Y0170792D02*
X0181289Y0170792D01*
X0180291Y0171790D02*
X0016067Y0171790D01*
X0016067Y0172789D02*
X0127291Y0172789D01*
X0125921Y0173787D02*
X0016067Y0173787D01*
X0021487Y0174786D02*
X0125365Y0174786D01*
X0125148Y0175784D02*
X0023772Y0175784D01*
X0025322Y0176783D02*
X0071788Y0176783D01*
X0071021Y0177100D02*
X0072711Y0176400D01*
X0074541Y0176400D01*
X0076232Y0177100D01*
X0077526Y0178394D01*
X0078226Y0180085D01*
X0078226Y0181915D01*
X0077526Y0183606D01*
X0076232Y0184900D01*
X0074541Y0185600D01*
X0072711Y0185600D01*
X0071021Y0184900D01*
X0069727Y0183606D01*
X0069026Y0181915D01*
X0069026Y0180085D01*
X0069727Y0178394D01*
X0071021Y0177100D01*
X0070340Y0177781D02*
X0026321Y0177781D01*
X0027253Y0178780D02*
X0069567Y0178780D01*
X0069153Y0179778D02*
X0027830Y0179778D01*
X0028406Y0180777D02*
X0069026Y0180777D01*
X0069026Y0181775D02*
X0028797Y0181775D01*
X0029065Y0182774D02*
X0069382Y0182774D01*
X0069893Y0183772D02*
X0029333Y0183772D01*
X0029400Y0184771D02*
X0070892Y0184771D01*
X0076361Y0184771D02*
X0110892Y0184771D01*
X0109893Y0183772D02*
X0077360Y0183772D01*
X0077871Y0182774D02*
X0109382Y0182774D01*
X0109026Y0181775D02*
X0078226Y0181775D01*
X0078226Y0180777D02*
X0109026Y0180777D01*
X0109153Y0179778D02*
X0078099Y0179778D01*
X0077686Y0178780D02*
X0109567Y0178780D01*
X0110340Y0177781D02*
X0076913Y0177781D01*
X0075465Y0176783D02*
X0111788Y0176783D01*
X0115465Y0176783D02*
X0125186Y0176783D01*
X0125600Y0177781D02*
X0116913Y0177781D01*
X0117686Y0178780D02*
X0126487Y0178780D01*
X0129962Y0172789D02*
X0179292Y0172789D01*
X0178294Y0173787D02*
X0131332Y0173787D01*
X0118226Y0181775D02*
X0189589Y0181775D01*
X0189771Y0181700D02*
X0197482Y0181700D01*
X0199062Y0182355D01*
X0200272Y0183564D01*
X0200926Y0185145D01*
X0200926Y0186855D01*
X0200272Y0188436D01*
X0199062Y0189645D01*
X0197482Y0190300D01*
X0189771Y0190300D01*
X0188191Y0189645D01*
X0186981Y0188436D01*
X0186326Y0186855D01*
X0186326Y0185145D01*
X0186981Y0183564D01*
X0188191Y0182355D01*
X0189771Y0181700D01*
X0187772Y0182774D02*
X0117871Y0182774D01*
X0117360Y0183772D02*
X0186895Y0183772D01*
X0186481Y0184771D02*
X0116361Y0184771D01*
X0105319Y0157811D02*
X0101943Y0157811D01*
X0100537Y0156812D02*
X0105809Y0156812D01*
X0110426Y0146827D02*
X0126680Y0146827D01*
X0125951Y0144830D02*
X0110426Y0144830D01*
X0110426Y0143832D02*
X0124953Y0143832D01*
X0124407Y0142833D02*
X0110426Y0142833D01*
X0110426Y0141835D02*
X0124026Y0141835D01*
X0124026Y0140836D02*
X0110426Y0140836D01*
X0110426Y0139838D02*
X0124129Y0139838D01*
X0124542Y0138839D02*
X0110426Y0138839D01*
X0110426Y0137841D02*
X0125280Y0137841D01*
X0130609Y0136842D02*
X0132089Y0136842D01*
X0134185Y0139838D02*
X0136315Y0139838D01*
X0136315Y0138839D02*
X0135183Y0138839D01*
X0136182Y0137841D02*
X0136315Y0137841D01*
X0135969Y0140836D02*
X0133226Y0140836D01*
X0133226Y0141835D02*
X0134970Y0141835D01*
X0133972Y0142833D02*
X0132846Y0142833D01*
X0132973Y0143832D02*
X0132300Y0143832D01*
X0131975Y0144830D02*
X0131301Y0144830D01*
X0130976Y0145829D02*
X0110426Y0145829D01*
X0128626Y0150724D02*
X0128626Y0151000D01*
X0128626Y0131000D02*
X0136540Y0131000D01*
X0157800Y0109740D01*
X0159204Y0110881D02*
X0181672Y0110881D01*
X0183768Y0113876D02*
X0186852Y0113876D01*
X0186438Y0114875D02*
X0182769Y0114875D01*
X0184766Y0112878D02*
X0187667Y0112878D01*
X0187762Y0109882D02*
X0188763Y0109882D01*
X0198490Y0109882D02*
X0208733Y0109882D01*
X0208733Y0108884D02*
X0199824Y0108884D01*
X0200500Y0107885D02*
X0208733Y0107885D01*
X0208733Y0106887D02*
X0200913Y0106887D01*
X0200926Y0105888D02*
X0208733Y0105888D01*
X0208733Y0104890D02*
X0200821Y0104890D01*
X0200407Y0103891D02*
X0208733Y0103891D01*
X0208733Y0102893D02*
X0199600Y0102893D01*
X0198418Y0089912D02*
X0208733Y0089912D01*
X0208733Y0088914D02*
X0199794Y0088914D01*
X0200487Y0087915D02*
X0208733Y0087915D01*
X0208733Y0086917D02*
X0200901Y0086917D01*
X0200926Y0085918D02*
X0208733Y0085918D01*
X0208733Y0084920D02*
X0200833Y0084920D01*
X0200420Y0083921D02*
X0208733Y0083921D01*
X0208733Y0082923D02*
X0199630Y0082923D01*
X0198023Y0081924D02*
X0208733Y0081924D01*
X0208733Y0080926D02*
X0171098Y0080926D01*
X0172096Y0081924D02*
X0189230Y0081924D01*
X0189771Y0080300D02*
X0188191Y0079645D01*
X0186981Y0078436D01*
X0186326Y0076855D01*
X0186326Y0075145D01*
X0186981Y0073564D01*
X0188191Y0072355D01*
X0189771Y0071700D01*
X0197482Y0071700D01*
X0199062Y0072355D01*
X0200272Y0073564D01*
X0200926Y0075145D01*
X0200926Y0076855D01*
X0200272Y0078436D01*
X0199062Y0079645D01*
X0197482Y0080300D01*
X0189771Y0080300D01*
X0188871Y0079927D02*
X0170099Y0079927D01*
X0168626Y0081000D02*
X0173626Y0086000D01*
X0193626Y0086000D01*
X0187623Y0082923D02*
X0173095Y0082923D01*
X0174093Y0083921D02*
X0186833Y0083921D01*
X0187474Y0078929D02*
X0132747Y0078929D01*
X0132062Y0077930D02*
X0186772Y0077930D01*
X0186358Y0076932D02*
X0130825Y0076932D01*
X0131148Y0074934D02*
X0186413Y0074934D01*
X0186326Y0075933D02*
X0076922Y0075933D01*
X0073322Y0068943D02*
X0068661Y0068943D01*
X0068049Y0069555D02*
X0070685Y0066919D01*
X0070685Y0065555D01*
X0066685Y0065555D01*
X0065685Y0065555D01*
X0065685Y0064555D01*
X0061685Y0064555D01*
X0061685Y0063191D01*
X0064321Y0060555D01*
X0065685Y0060555D01*
X0065685Y0064555D01*
X0066685Y0064555D01*
X0066685Y0065555D01*
X0066685Y0069555D01*
X0068049Y0069555D01*
X0066685Y0068943D02*
X0065685Y0068943D01*
X0065685Y0069555D02*
X0064321Y0069555D01*
X0061685Y0066919D01*
X0061685Y0065555D01*
X0065685Y0065555D01*
X0065685Y0069555D01*
X0065685Y0067945D02*
X0066685Y0067945D01*
X0066685Y0066946D02*
X0065685Y0066946D01*
X0065685Y0065948D02*
X0066685Y0065948D01*
X0066685Y0064949D02*
X0073322Y0064949D01*
X0073322Y0063951D02*
X0070685Y0063951D01*
X0070447Y0062952D02*
X0073322Y0062952D01*
X0073322Y0061954D02*
X0069448Y0061954D01*
X0066685Y0061954D02*
X0065685Y0061954D01*
X0065685Y0062952D02*
X0066685Y0062952D01*
X0066685Y0063951D02*
X0065685Y0063951D01*
X0065685Y0064949D02*
X0060485Y0064949D01*
X0060485Y0063951D02*
X0061685Y0063951D01*
X0061924Y0062952D02*
X0060164Y0062952D01*
X0060485Y0065948D02*
X0061685Y0065948D01*
X0061713Y0066946D02*
X0060375Y0066946D01*
X0059377Y0067945D02*
X0062711Y0067945D01*
X0063710Y0068943D02*
X0058378Y0068943D01*
X0065685Y0060955D02*
X0066685Y0060955D01*
X0070685Y0065948D02*
X0073322Y0065948D01*
X0073322Y0066946D02*
X0070658Y0066946D01*
X0069660Y0067945D02*
X0073322Y0067945D01*
X0076922Y0064949D02*
X0096141Y0064949D01*
X0096021Y0064900D02*
X0094727Y0063606D01*
X0094026Y0061915D01*
X0094026Y0060085D01*
X0094727Y0058394D01*
X0096021Y0057100D01*
X0097711Y0056400D01*
X0099541Y0056400D01*
X0101232Y0057100D01*
X0102526Y0058394D01*
X0103226Y0060085D01*
X0103226Y0061915D01*
X0102526Y0063606D01*
X0101232Y0064900D01*
X0099541Y0065600D01*
X0097711Y0065600D01*
X0096021Y0064900D01*
X0095072Y0063951D02*
X0076922Y0063951D01*
X0076922Y0062952D02*
X0094456Y0062952D01*
X0094042Y0061954D02*
X0076922Y0061954D01*
X0076922Y0060955D02*
X0094026Y0060955D01*
X0094079Y0059957D02*
X0076922Y0059957D01*
X0076922Y0058958D02*
X0094493Y0058958D01*
X0095161Y0057960D02*
X0076922Y0057960D01*
X0075899Y0044979D02*
X0096213Y0044979D01*
X0095102Y0043981D02*
X0074901Y0043981D01*
X0073902Y0042982D02*
X0094468Y0042982D01*
X0100896Y0056961D02*
X0126356Y0056961D01*
X0125161Y0057960D02*
X0102092Y0057960D01*
X0102760Y0058958D02*
X0124493Y0058958D01*
X0124079Y0059957D02*
X0103173Y0059957D01*
X0103226Y0060955D02*
X0124026Y0060955D01*
X0124042Y0061954D02*
X0103210Y0061954D01*
X0102797Y0062952D02*
X0124456Y0062952D01*
X0125072Y0063951D02*
X0102181Y0063951D01*
X0101112Y0064949D02*
X0126141Y0064949D01*
X0126392Y0066946D02*
X0100861Y0066946D01*
X0102077Y0067945D02*
X0125176Y0067945D01*
X0124499Y0068943D02*
X0102754Y0068943D01*
X0103167Y0069942D02*
X0124086Y0069942D01*
X0124026Y0070940D02*
X0103226Y0070940D01*
X0103216Y0071939D02*
X0124036Y0071939D01*
X0124450Y0072937D02*
X0102803Y0072937D01*
X0102196Y0073936D02*
X0125057Y0073936D01*
X0126105Y0074934D02*
X0101148Y0074934D01*
X0100825Y0076932D02*
X0126428Y0076932D01*
X0125191Y0077930D02*
X0102062Y0077930D01*
X0102747Y0078929D02*
X0124505Y0078929D01*
X0124092Y0079927D02*
X0103161Y0079927D01*
X0103226Y0080926D02*
X0124026Y0080926D01*
X0124030Y0081924D02*
X0103223Y0081924D01*
X0102809Y0082923D02*
X0124444Y0082923D01*
X0125042Y0083921D02*
X0102211Y0083921D01*
X0101184Y0084920D02*
X0126069Y0084920D01*
X0126464Y0086917D02*
X0101172Y0086917D01*
X0102318Y0087915D02*
X0125206Y0087915D01*
X0124512Y0088914D02*
X0102950Y0088914D01*
X0099126Y0088914D02*
X0098126Y0088914D01*
X0098126Y0089912D02*
X0099126Y0089912D01*
X0099126Y0087915D02*
X0098126Y0087915D01*
X0098126Y0086917D02*
X0099126Y0086917D01*
X0096080Y0086917D02*
X0076922Y0086917D01*
X0076922Y0087915D02*
X0094935Y0087915D01*
X0094302Y0088914D02*
X0076922Y0088914D01*
X0076922Y0089912D02*
X0093939Y0089912D01*
X0098126Y0092908D02*
X0099126Y0092908D01*
X0099126Y0093906D02*
X0098126Y0093906D01*
X0098126Y0094905D02*
X0099126Y0094905D01*
X0096500Y0096902D02*
X0077074Y0096902D01*
X0078072Y0097900D02*
X0095221Y0097900D01*
X0094518Y0098899D02*
X0079071Y0098899D01*
X0080069Y0099897D02*
X0094104Y0099897D01*
X0094026Y0100896D02*
X0081068Y0100896D01*
X0082066Y0101894D02*
X0094026Y0101894D01*
X0094431Y0102893D02*
X0083065Y0102893D01*
X0084063Y0103891D02*
X0095012Y0103891D01*
X0128626Y0081000D02*
X0168626Y0081000D01*
X0168003Y0082923D02*
X0132809Y0082923D01*
X0132211Y0083921D02*
X0169002Y0083921D01*
X0170000Y0084920D02*
X0131184Y0084920D01*
X0132196Y0073936D02*
X0186827Y0073936D01*
X0187608Y0072937D02*
X0132803Y0072937D01*
X0133216Y0071939D02*
X0189194Y0071939D01*
X0193126Y0069942D02*
X0194126Y0069942D01*
X0194126Y0068943D02*
X0193126Y0068943D01*
X0193126Y0067945D02*
X0194126Y0067945D01*
X0194126Y0064949D02*
X0193126Y0064949D01*
X0193126Y0063951D02*
X0194126Y0063951D01*
X0194126Y0062952D02*
X0193126Y0062952D01*
X0193126Y0061954D02*
X0194126Y0061954D01*
X0198597Y0061954D02*
X0208733Y0061954D01*
X0208733Y0062952D02*
X0199943Y0062952D01*
X0200633Y0063951D02*
X0208733Y0063951D01*
X0208733Y0064949D02*
X0201016Y0064949D01*
X0198059Y0071939D02*
X0208733Y0071939D01*
X0208733Y0072937D02*
X0199645Y0072937D01*
X0200426Y0073936D02*
X0208733Y0073936D01*
X0208733Y0074934D02*
X0200839Y0074934D01*
X0200926Y0075933D02*
X0208733Y0075933D01*
X0208733Y0076932D02*
X0200895Y0076932D01*
X0200481Y0077930D02*
X0208733Y0077930D01*
X0208733Y0078929D02*
X0199779Y0078929D01*
X0198382Y0079927D02*
X0208733Y0079927D01*
X0208733Y0048973D02*
X0191467Y0048973D01*
X0192306Y0047975D02*
X0208733Y0047975D01*
X0208520Y0046976D02*
X0192719Y0046976D01*
X0192848Y0045978D02*
X0207418Y0045978D01*
X0206316Y0044979D02*
X0192848Y0044979D01*
X0192848Y0043981D02*
X0205214Y0043981D01*
X0204245Y0042982D02*
X0192848Y0042982D01*
X0192848Y0041984D02*
X0203246Y0041984D01*
X0202248Y0040985D02*
X0192848Y0040985D01*
X0192848Y0039987D02*
X0201249Y0039987D01*
X0200251Y0038988D02*
X0192848Y0038988D01*
X0192447Y0037990D02*
X0199252Y0037990D01*
X0198253Y0036991D02*
X0191809Y0036991D01*
X0190565Y0035993D02*
X0197255Y0035993D01*
X0178548Y0032063D02*
X0173548Y0027063D01*
X0178548Y0032063D02*
X0178548Y0042811D01*
X0187379Y0169793D02*
X0188547Y0169793D01*
X0193126Y0171790D02*
X0194126Y0171790D01*
X0194126Y0172789D02*
X0193126Y0172789D01*
X0193126Y0173787D02*
X0194126Y0173787D01*
X0194126Y0176783D02*
X0193126Y0176783D01*
X0193126Y0177781D02*
X0194126Y0177781D01*
X0194126Y0178780D02*
X0193126Y0178780D01*
X0193126Y0179778D02*
X0194126Y0179778D01*
X0197663Y0181775D02*
X0208733Y0181775D01*
X0208733Y0182774D02*
X0199481Y0182774D01*
X0200358Y0183772D02*
X0208733Y0183772D01*
X0208733Y0184771D02*
X0200771Y0184771D01*
X0200926Y0185769D02*
X0208733Y0185769D01*
X0208733Y0186768D02*
X0200926Y0186768D01*
X0200549Y0187766D02*
X0208733Y0187766D01*
X0208733Y0188765D02*
X0199943Y0188765D01*
X0198777Y0189763D02*
X0208733Y0189763D01*
X0208733Y0190762D02*
X0028095Y0190762D01*
X0028653Y0189763D02*
X0188475Y0189763D01*
X0187310Y0188765D02*
X0028921Y0188765D01*
X0029188Y0187766D02*
X0186704Y0187766D01*
X0186326Y0186768D02*
X0029400Y0186768D01*
X0029400Y0185769D02*
X0186326Y0185769D01*
X0189625Y0191760D02*
X0027519Y0191760D01*
X0026781Y0192759D02*
X0187786Y0192759D01*
X0188191Y0192355D02*
X0189771Y0191700D01*
X0197482Y0191700D01*
X0199062Y0192355D01*
X0200272Y0193564D01*
X0200926Y0195145D01*
X0200926Y0196855D01*
X0200272Y0198436D01*
X0199062Y0199645D01*
X0197482Y0200300D01*
X0189771Y0200300D01*
X0188191Y0199645D01*
X0186981Y0198436D01*
X0186326Y0196855D01*
X0186326Y0195145D01*
X0186981Y0193564D01*
X0188191Y0192355D01*
X0186901Y0193757D02*
X0025782Y0193757D01*
X0024569Y0194756D02*
X0186487Y0194756D01*
X0186326Y0195754D02*
X0022839Y0195754D01*
X0016067Y0196753D02*
X0186326Y0196753D01*
X0186698Y0197751D02*
X0016067Y0197751D01*
X0016067Y0198750D02*
X0187295Y0198750D01*
X0188439Y0199748D02*
X0016067Y0199748D01*
X0016067Y0200747D02*
X0208733Y0200747D01*
X0208733Y0201745D02*
X0197591Y0201745D01*
X0197482Y0201700D02*
X0199062Y0202355D01*
X0200272Y0203564D01*
X0200926Y0205145D01*
X0200926Y0206855D01*
X0200272Y0208436D01*
X0199062Y0209645D01*
X0197482Y0210300D01*
X0189771Y0210300D01*
X0188191Y0209645D01*
X0186981Y0208436D01*
X0186326Y0206855D01*
X0186326Y0205145D01*
X0186981Y0203564D01*
X0188191Y0202355D01*
X0189771Y0201700D01*
X0197482Y0201700D01*
X0199451Y0202744D02*
X0208733Y0202744D01*
X0208733Y0203742D02*
X0200346Y0203742D01*
X0200759Y0204741D02*
X0208733Y0204741D01*
X0208733Y0205739D02*
X0200926Y0205739D01*
X0200926Y0206738D02*
X0208733Y0206738D01*
X0208733Y0207737D02*
X0200561Y0207737D01*
X0199972Y0208735D02*
X0208733Y0208735D01*
X0208733Y0209734D02*
X0198849Y0209734D01*
X0198049Y0211731D02*
X0208733Y0211731D01*
X0208733Y0212729D02*
X0199719Y0212729D01*
X0199558Y0212568D02*
X0200059Y0213068D01*
X0200475Y0213641D01*
X0200797Y0214273D01*
X0201016Y0214946D01*
X0201103Y0215500D01*
X0194126Y0215500D01*
X0194126Y0211500D01*
X0196981Y0211500D01*
X0197680Y0211611D01*
X0198354Y0211830D01*
X0198985Y0212151D01*
X0199558Y0212568D01*
X0200519Y0213728D02*
X0208733Y0213728D01*
X0208733Y0214726D02*
X0200944Y0214726D01*
X0201103Y0216500D02*
X0201016Y0217054D01*
X0200797Y0217727D01*
X0200475Y0218359D01*
X0200059Y0218932D01*
X0199558Y0219432D01*
X0198985Y0219849D01*
X0198354Y0220170D01*
X0197680Y0220389D01*
X0196981Y0220500D01*
X0194126Y0220500D01*
X0194126Y0216500D01*
X0193126Y0216500D01*
X0193126Y0215500D01*
X0186149Y0215500D01*
X0186237Y0214946D01*
X0186456Y0214273D01*
X0186778Y0213641D01*
X0187194Y0213068D01*
X0187695Y0212568D01*
X0188268Y0212151D01*
X0188899Y0211830D01*
X0189573Y0211611D01*
X0190272Y0211500D01*
X0193126Y0211500D01*
X0193126Y0215500D01*
X0194126Y0215500D01*
X0194126Y0216500D01*
X0201103Y0216500D01*
X0201068Y0216723D02*
X0208733Y0216723D01*
X0208733Y0215725D02*
X0194126Y0215725D01*
X0194126Y0216723D02*
X0193126Y0216723D01*
X0193126Y0216500D02*
X0193126Y0220500D01*
X0190272Y0220500D01*
X0189573Y0220389D01*
X0188899Y0220170D01*
X0188268Y0219849D01*
X0187695Y0219432D01*
X0187194Y0218932D01*
X0186778Y0218359D01*
X0186456Y0217727D01*
X0186237Y0217054D01*
X0186149Y0216500D01*
X0193126Y0216500D01*
X0193126Y0215725D02*
X0016067Y0215725D01*
X0016067Y0216723D02*
X0186185Y0216723D01*
X0186454Y0217722D02*
X0016067Y0217722D01*
X0016067Y0218720D02*
X0187040Y0218720D01*
X0188089Y0219719D02*
X0016067Y0219719D01*
X0016067Y0220717D02*
X0208733Y0220717D01*
X0208733Y0219719D02*
X0199164Y0219719D01*
X0200212Y0218720D02*
X0208733Y0218720D01*
X0208733Y0217722D02*
X0200799Y0217722D01*
X0194126Y0217722D02*
X0193126Y0217722D01*
X0193126Y0218720D02*
X0194126Y0218720D01*
X0194126Y0219719D02*
X0193126Y0219719D01*
X0193126Y0214726D02*
X0194126Y0214726D01*
X0194126Y0213728D02*
X0193126Y0213728D01*
X0193126Y0212729D02*
X0194126Y0212729D01*
X0194126Y0211731D02*
X0193126Y0211731D01*
X0189204Y0211731D02*
X0016067Y0211731D01*
X0016067Y0212729D02*
X0187533Y0212729D01*
X0186734Y0213728D02*
X0016067Y0213728D01*
X0016067Y0214726D02*
X0186309Y0214726D01*
X0188403Y0209734D02*
X0016067Y0209734D01*
X0016067Y0210732D02*
X0208733Y0210732D01*
X0208733Y0199748D02*
X0198813Y0199748D01*
X0199958Y0198750D02*
X0208733Y0198750D01*
X0208733Y0197751D02*
X0200555Y0197751D01*
X0200926Y0196753D02*
X0208733Y0196753D01*
X0208733Y0195754D02*
X0200926Y0195754D01*
X0200765Y0194756D02*
X0208733Y0194756D01*
X0208733Y0193757D02*
X0200352Y0193757D01*
X0199466Y0192759D02*
X0208733Y0192759D01*
X0208733Y0191760D02*
X0197627Y0191760D01*
X0189661Y0201745D02*
X0016067Y0201745D01*
X0016067Y0202744D02*
X0187801Y0202744D01*
X0186907Y0203742D02*
X0016067Y0203742D01*
X0016067Y0204741D02*
X0186494Y0204741D01*
X0186326Y0205739D02*
X0016067Y0205739D01*
X0016067Y0206738D02*
X0186326Y0206738D01*
X0186691Y0207737D02*
X0016067Y0207737D01*
X0016067Y0208735D02*
X0187280Y0208735D01*
X0208733Y0221716D02*
X0016067Y0221716D01*
X0016067Y0222714D02*
X0208733Y0222714D01*
X0208733Y0223713D02*
X0016067Y0223713D01*
X0016067Y0224711D02*
X0208733Y0224711D01*
X0208733Y0225710D02*
X0021204Y0225710D01*
X0023641Y0226708D02*
X0208733Y0226708D01*
X0208733Y0227707D02*
X0025246Y0227707D01*
X0026245Y0228705D02*
X0208733Y0228705D01*
X0208733Y0229704D02*
X0027209Y0229704D01*
X0027786Y0230702D02*
X0208733Y0230702D01*
X0208733Y0231701D02*
X0028362Y0231701D01*
X0028777Y0232699D02*
X0208733Y0232699D01*
X0208733Y0233698D02*
X0029045Y0233698D01*
X0029312Y0234696D02*
X0208733Y0234696D01*
X0208733Y0235695D02*
X0029400Y0235695D01*
X0029400Y0236693D02*
X0208733Y0236693D01*
X0208733Y0237692D02*
X0029400Y0237692D01*
X0029209Y0238690D02*
X0208733Y0238690D01*
X0208733Y0239689D02*
X0028941Y0239689D01*
X0028673Y0240687D02*
X0208733Y0240687D01*
X0208733Y0241686D02*
X0028139Y0241686D01*
X0027562Y0242684D02*
X0208733Y0242684D01*
X0186483Y0177781D02*
X0179391Y0177781D01*
X0180389Y0176783D02*
X0186194Y0176783D01*
M02*
