%
M48
M72
T01C0.02400
T02C0.02756
T03C0.04000
T04C0.04400
T05C0.13400
%
T01
X176500Y106000
X176500Y126000
T02
X157800Y141236
X136500Y176000
X153863Y196354
X116500Y158913
X116500Y121000
X161737Y97929
X82996Y231787
T03
X54059Y55055
X54059Y65055
X64059Y65055
X64059Y55055
X74059Y55055
X74059Y65055
X201500Y66000
X201500Y76000
X201500Y86000
X201500Y96000
X201500Y106000
X201500Y116000
X201500Y126000
X201500Y136000
X201500Y146000
X201500Y156000
X201500Y166000
X201500Y176000
X201500Y186000
X201500Y196000
X201500Y206000
X201500Y216000
T04
X136500Y161000
X136500Y151000
X136500Y141000
X136500Y131000
X136500Y121000
X136500Y111000
X136500Y101000
X136500Y91000
X136500Y81000
X136500Y71000
X136500Y61000
X136500Y51000
X136500Y41000
X136500Y31000
X106500Y31000
X106500Y41000
X106500Y51000
X106500Y61000
X106500Y71000
X106500Y81000
X106500Y91000
X106500Y101000
X106500Y111000
X106500Y121000
X106500Y131000
X106500Y141000
X106500Y151000
X106500Y161000
X121500Y181000
X81500Y181000
X51500Y141000
X51500Y121000
T05
X18200Y185500
X18200Y236500
M30
