G75*
%MOIN*%
%OFA0B0*%
%FSLAX25Y25*%
%IPPOS*%
%LPD*%
%AMOC8*
5,1,8,0,0,1.08239X$1,22.5*
%
%ADD10C,0.07400*%
%ADD11OC8,0.13200*%
%ADD12OC8,0.06800*%
%ADD13C,0.05200*%
%ADD14R,0.07400X0.07400*%
%ADD15C,0.14200*%
%ADD16C,0.06800*%
%ADD17C,0.05156*%
D10*
X0098626Y0031000D03*
X0098626Y0041000D03*
X0098626Y0051000D03*
X0098626Y0061000D03*
X0098626Y0071000D03*
X0098626Y0081000D03*
X0098626Y0091000D03*
X0098626Y0101000D03*
X0098626Y0111000D03*
X0098626Y0121000D03*
X0098626Y0131000D03*
X0098626Y0141000D03*
X0098626Y0151000D03*
X0098626Y0161000D03*
X0113626Y0181000D03*
X0128626Y0161000D03*
X0128626Y0151000D03*
X0128626Y0141000D03*
X0128626Y0131000D03*
X0128626Y0121000D03*
X0128626Y0111000D03*
X0128626Y0101000D03*
X0128626Y0091000D03*
X0128626Y0081000D03*
X0128626Y0071000D03*
X0128626Y0061000D03*
X0128626Y0051000D03*
X0128626Y0041000D03*
X0073626Y0181000D03*
D11*
X0051500Y0152811D03*
X0051500Y0132811D03*
D12*
X0046185Y0055055D03*
X0046185Y0065055D03*
X0056185Y0065055D03*
X0056185Y0055055D03*
X0066185Y0055055D03*
X0066185Y0065055D03*
D13*
X0166426Y0106000D02*
X0170826Y0106000D01*
X0170826Y0126000D02*
X0166426Y0126000D01*
D14*
X0128626Y0031000D03*
D15*
X0018200Y0185500D03*
X0018200Y0236500D03*
D16*
X0158548Y0045811D02*
X0158548Y0039811D01*
X0168548Y0039811D02*
X0168548Y0045811D01*
X0178548Y0045811D02*
X0178548Y0039811D01*
X0188548Y0039811D02*
X0188548Y0045811D01*
X0190626Y0066000D02*
X0196626Y0066000D01*
X0196626Y0076000D02*
X0190626Y0076000D01*
X0190626Y0086000D02*
X0196626Y0086000D01*
X0196626Y0096000D02*
X0190626Y0096000D01*
X0190626Y0106000D02*
X0196626Y0106000D01*
X0196626Y0116000D02*
X0190626Y0116000D01*
X0190626Y0126000D02*
X0196626Y0126000D01*
X0196626Y0136000D02*
X0190626Y0136000D01*
X0190626Y0146000D02*
X0196626Y0146000D01*
X0196626Y0156000D02*
X0190626Y0156000D01*
X0190626Y0166000D02*
X0196626Y0166000D01*
X0196626Y0176000D02*
X0190626Y0176000D01*
X0190626Y0186000D02*
X0196626Y0186000D01*
X0196626Y0196000D02*
X0190626Y0196000D01*
X0190626Y0206000D02*
X0196626Y0206000D01*
X0196626Y0216000D02*
X0190626Y0216000D01*
D17*
X0145989Y0196354D03*
X0128626Y0176000D03*
X0108626Y0158913D03*
X0108626Y0121000D03*
X0149926Y0141236D03*
X0153863Y0097929D03*
X0086933Y0231787D03*
M02*
