G75*
%MOIN*%
%OFA0B0*%
%FSLAX25Y25*%
%IPPOS*%
%LPD*%
%AMOC8*
5,1,8,0,0,1.08239X$1,22.5*
%
%ADD10C,0.00000*%
%ADD11C,0.00600*%
%ADD12R,0.03937X0.04331*%
%ADD13R,0.04331X0.03937*%
%ADD14C,0.06600*%
%ADD15OC8,0.12400*%
%ADD16R,0.21260X0.24409*%
%ADD17R,0.03937X0.06299*%
%ADD18OC8,0.06000*%
%ADD19C,0.04400*%
%ADD20R,0.06600X0.06600*%
%ADD21R,0.21000X0.06500*%
%ADD22C,0.06000*%
%ADD23C,0.01000*%
%ADD24C,0.04356*%
D10*
X0016500Y0001000D02*
X0016500Y0250961D01*
X0221107Y0250961D01*
X0221107Y0045173D01*
X0216500Y0041000D01*
X0176500Y0001000D01*
X0016500Y0001000D01*
X0011500Y0185500D02*
X0011502Y0185664D01*
X0011508Y0185829D01*
X0011518Y0185993D01*
X0011532Y0186157D01*
X0011550Y0186320D01*
X0011573Y0186483D01*
X0011599Y0186645D01*
X0011629Y0186807D01*
X0011663Y0186968D01*
X0011701Y0187128D01*
X0011743Y0187287D01*
X0011788Y0187445D01*
X0011838Y0187602D01*
X0011892Y0187757D01*
X0011949Y0187911D01*
X0012010Y0188064D01*
X0012075Y0188215D01*
X0012143Y0188365D01*
X0012215Y0188512D01*
X0012291Y0188658D01*
X0012370Y0188802D01*
X0012453Y0188944D01*
X0012539Y0189084D01*
X0012629Y0189222D01*
X0012722Y0189358D01*
X0012819Y0189491D01*
X0012918Y0189622D01*
X0013021Y0189750D01*
X0013127Y0189876D01*
X0013236Y0189999D01*
X0013348Y0190120D01*
X0013462Y0190238D01*
X0013580Y0190352D01*
X0013701Y0190464D01*
X0013824Y0190573D01*
X0013950Y0190679D01*
X0014078Y0190782D01*
X0014209Y0190881D01*
X0014342Y0190978D01*
X0014478Y0191071D01*
X0014616Y0191161D01*
X0014756Y0191247D01*
X0014898Y0191330D01*
X0015042Y0191409D01*
X0015188Y0191485D01*
X0015335Y0191557D01*
X0015485Y0191625D01*
X0015636Y0191690D01*
X0015789Y0191751D01*
X0015943Y0191808D01*
X0016098Y0191862D01*
X0016255Y0191912D01*
X0016413Y0191957D01*
X0016572Y0191999D01*
X0016732Y0192037D01*
X0016893Y0192071D01*
X0017055Y0192101D01*
X0017217Y0192127D01*
X0017380Y0192150D01*
X0017543Y0192168D01*
X0017707Y0192182D01*
X0017871Y0192192D01*
X0018036Y0192198D01*
X0018200Y0192200D01*
X0018364Y0192198D01*
X0018529Y0192192D01*
X0018693Y0192182D01*
X0018857Y0192168D01*
X0019020Y0192150D01*
X0019183Y0192127D01*
X0019345Y0192101D01*
X0019507Y0192071D01*
X0019668Y0192037D01*
X0019828Y0191999D01*
X0019987Y0191957D01*
X0020145Y0191912D01*
X0020302Y0191862D01*
X0020457Y0191808D01*
X0020611Y0191751D01*
X0020764Y0191690D01*
X0020915Y0191625D01*
X0021065Y0191557D01*
X0021212Y0191485D01*
X0021358Y0191409D01*
X0021502Y0191330D01*
X0021644Y0191247D01*
X0021784Y0191161D01*
X0021922Y0191071D01*
X0022058Y0190978D01*
X0022191Y0190881D01*
X0022322Y0190782D01*
X0022450Y0190679D01*
X0022576Y0190573D01*
X0022699Y0190464D01*
X0022820Y0190352D01*
X0022938Y0190238D01*
X0023052Y0190120D01*
X0023164Y0189999D01*
X0023273Y0189876D01*
X0023379Y0189750D01*
X0023482Y0189622D01*
X0023581Y0189491D01*
X0023678Y0189358D01*
X0023771Y0189222D01*
X0023861Y0189084D01*
X0023947Y0188944D01*
X0024030Y0188802D01*
X0024109Y0188658D01*
X0024185Y0188512D01*
X0024257Y0188365D01*
X0024325Y0188215D01*
X0024390Y0188064D01*
X0024451Y0187911D01*
X0024508Y0187757D01*
X0024562Y0187602D01*
X0024612Y0187445D01*
X0024657Y0187287D01*
X0024699Y0187128D01*
X0024737Y0186968D01*
X0024771Y0186807D01*
X0024801Y0186645D01*
X0024827Y0186483D01*
X0024850Y0186320D01*
X0024868Y0186157D01*
X0024882Y0185993D01*
X0024892Y0185829D01*
X0024898Y0185664D01*
X0024900Y0185500D01*
X0024898Y0185336D01*
X0024892Y0185171D01*
X0024882Y0185007D01*
X0024868Y0184843D01*
X0024850Y0184680D01*
X0024827Y0184517D01*
X0024801Y0184355D01*
X0024771Y0184193D01*
X0024737Y0184032D01*
X0024699Y0183872D01*
X0024657Y0183713D01*
X0024612Y0183555D01*
X0024562Y0183398D01*
X0024508Y0183243D01*
X0024451Y0183089D01*
X0024390Y0182936D01*
X0024325Y0182785D01*
X0024257Y0182635D01*
X0024185Y0182488D01*
X0024109Y0182342D01*
X0024030Y0182198D01*
X0023947Y0182056D01*
X0023861Y0181916D01*
X0023771Y0181778D01*
X0023678Y0181642D01*
X0023581Y0181509D01*
X0023482Y0181378D01*
X0023379Y0181250D01*
X0023273Y0181124D01*
X0023164Y0181001D01*
X0023052Y0180880D01*
X0022938Y0180762D01*
X0022820Y0180648D01*
X0022699Y0180536D01*
X0022576Y0180427D01*
X0022450Y0180321D01*
X0022322Y0180218D01*
X0022191Y0180119D01*
X0022058Y0180022D01*
X0021922Y0179929D01*
X0021784Y0179839D01*
X0021644Y0179753D01*
X0021502Y0179670D01*
X0021358Y0179591D01*
X0021212Y0179515D01*
X0021065Y0179443D01*
X0020915Y0179375D01*
X0020764Y0179310D01*
X0020611Y0179249D01*
X0020457Y0179192D01*
X0020302Y0179138D01*
X0020145Y0179088D01*
X0019987Y0179043D01*
X0019828Y0179001D01*
X0019668Y0178963D01*
X0019507Y0178929D01*
X0019345Y0178899D01*
X0019183Y0178873D01*
X0019020Y0178850D01*
X0018857Y0178832D01*
X0018693Y0178818D01*
X0018529Y0178808D01*
X0018364Y0178802D01*
X0018200Y0178800D01*
X0018036Y0178802D01*
X0017871Y0178808D01*
X0017707Y0178818D01*
X0017543Y0178832D01*
X0017380Y0178850D01*
X0017217Y0178873D01*
X0017055Y0178899D01*
X0016893Y0178929D01*
X0016732Y0178963D01*
X0016572Y0179001D01*
X0016413Y0179043D01*
X0016255Y0179088D01*
X0016098Y0179138D01*
X0015943Y0179192D01*
X0015789Y0179249D01*
X0015636Y0179310D01*
X0015485Y0179375D01*
X0015335Y0179443D01*
X0015188Y0179515D01*
X0015042Y0179591D01*
X0014898Y0179670D01*
X0014756Y0179753D01*
X0014616Y0179839D01*
X0014478Y0179929D01*
X0014342Y0180022D01*
X0014209Y0180119D01*
X0014078Y0180218D01*
X0013950Y0180321D01*
X0013824Y0180427D01*
X0013701Y0180536D01*
X0013580Y0180648D01*
X0013462Y0180762D01*
X0013348Y0180880D01*
X0013236Y0181001D01*
X0013127Y0181124D01*
X0013021Y0181250D01*
X0012918Y0181378D01*
X0012819Y0181509D01*
X0012722Y0181642D01*
X0012629Y0181778D01*
X0012539Y0181916D01*
X0012453Y0182056D01*
X0012370Y0182198D01*
X0012291Y0182342D01*
X0012215Y0182488D01*
X0012143Y0182635D01*
X0012075Y0182785D01*
X0012010Y0182936D01*
X0011949Y0183089D01*
X0011892Y0183243D01*
X0011838Y0183398D01*
X0011788Y0183555D01*
X0011743Y0183713D01*
X0011701Y0183872D01*
X0011663Y0184032D01*
X0011629Y0184193D01*
X0011599Y0184355D01*
X0011573Y0184517D01*
X0011550Y0184680D01*
X0011532Y0184843D01*
X0011518Y0185007D01*
X0011508Y0185171D01*
X0011502Y0185336D01*
X0011500Y0185500D01*
X0011500Y0236500D02*
X0011502Y0236664D01*
X0011508Y0236829D01*
X0011518Y0236993D01*
X0011532Y0237157D01*
X0011550Y0237320D01*
X0011573Y0237483D01*
X0011599Y0237645D01*
X0011629Y0237807D01*
X0011663Y0237968D01*
X0011701Y0238128D01*
X0011743Y0238287D01*
X0011788Y0238445D01*
X0011838Y0238602D01*
X0011892Y0238757D01*
X0011949Y0238911D01*
X0012010Y0239064D01*
X0012075Y0239215D01*
X0012143Y0239365D01*
X0012215Y0239512D01*
X0012291Y0239658D01*
X0012370Y0239802D01*
X0012453Y0239944D01*
X0012539Y0240084D01*
X0012629Y0240222D01*
X0012722Y0240358D01*
X0012819Y0240491D01*
X0012918Y0240622D01*
X0013021Y0240750D01*
X0013127Y0240876D01*
X0013236Y0240999D01*
X0013348Y0241120D01*
X0013462Y0241238D01*
X0013580Y0241352D01*
X0013701Y0241464D01*
X0013824Y0241573D01*
X0013950Y0241679D01*
X0014078Y0241782D01*
X0014209Y0241881D01*
X0014342Y0241978D01*
X0014478Y0242071D01*
X0014616Y0242161D01*
X0014756Y0242247D01*
X0014898Y0242330D01*
X0015042Y0242409D01*
X0015188Y0242485D01*
X0015335Y0242557D01*
X0015485Y0242625D01*
X0015636Y0242690D01*
X0015789Y0242751D01*
X0015943Y0242808D01*
X0016098Y0242862D01*
X0016255Y0242912D01*
X0016413Y0242957D01*
X0016572Y0242999D01*
X0016732Y0243037D01*
X0016893Y0243071D01*
X0017055Y0243101D01*
X0017217Y0243127D01*
X0017380Y0243150D01*
X0017543Y0243168D01*
X0017707Y0243182D01*
X0017871Y0243192D01*
X0018036Y0243198D01*
X0018200Y0243200D01*
X0018364Y0243198D01*
X0018529Y0243192D01*
X0018693Y0243182D01*
X0018857Y0243168D01*
X0019020Y0243150D01*
X0019183Y0243127D01*
X0019345Y0243101D01*
X0019507Y0243071D01*
X0019668Y0243037D01*
X0019828Y0242999D01*
X0019987Y0242957D01*
X0020145Y0242912D01*
X0020302Y0242862D01*
X0020457Y0242808D01*
X0020611Y0242751D01*
X0020764Y0242690D01*
X0020915Y0242625D01*
X0021065Y0242557D01*
X0021212Y0242485D01*
X0021358Y0242409D01*
X0021502Y0242330D01*
X0021644Y0242247D01*
X0021784Y0242161D01*
X0021922Y0242071D01*
X0022058Y0241978D01*
X0022191Y0241881D01*
X0022322Y0241782D01*
X0022450Y0241679D01*
X0022576Y0241573D01*
X0022699Y0241464D01*
X0022820Y0241352D01*
X0022938Y0241238D01*
X0023052Y0241120D01*
X0023164Y0240999D01*
X0023273Y0240876D01*
X0023379Y0240750D01*
X0023482Y0240622D01*
X0023581Y0240491D01*
X0023678Y0240358D01*
X0023771Y0240222D01*
X0023861Y0240084D01*
X0023947Y0239944D01*
X0024030Y0239802D01*
X0024109Y0239658D01*
X0024185Y0239512D01*
X0024257Y0239365D01*
X0024325Y0239215D01*
X0024390Y0239064D01*
X0024451Y0238911D01*
X0024508Y0238757D01*
X0024562Y0238602D01*
X0024612Y0238445D01*
X0024657Y0238287D01*
X0024699Y0238128D01*
X0024737Y0237968D01*
X0024771Y0237807D01*
X0024801Y0237645D01*
X0024827Y0237483D01*
X0024850Y0237320D01*
X0024868Y0237157D01*
X0024882Y0236993D01*
X0024892Y0236829D01*
X0024898Y0236664D01*
X0024900Y0236500D01*
X0024898Y0236336D01*
X0024892Y0236171D01*
X0024882Y0236007D01*
X0024868Y0235843D01*
X0024850Y0235680D01*
X0024827Y0235517D01*
X0024801Y0235355D01*
X0024771Y0235193D01*
X0024737Y0235032D01*
X0024699Y0234872D01*
X0024657Y0234713D01*
X0024612Y0234555D01*
X0024562Y0234398D01*
X0024508Y0234243D01*
X0024451Y0234089D01*
X0024390Y0233936D01*
X0024325Y0233785D01*
X0024257Y0233635D01*
X0024185Y0233488D01*
X0024109Y0233342D01*
X0024030Y0233198D01*
X0023947Y0233056D01*
X0023861Y0232916D01*
X0023771Y0232778D01*
X0023678Y0232642D01*
X0023581Y0232509D01*
X0023482Y0232378D01*
X0023379Y0232250D01*
X0023273Y0232124D01*
X0023164Y0232001D01*
X0023052Y0231880D01*
X0022938Y0231762D01*
X0022820Y0231648D01*
X0022699Y0231536D01*
X0022576Y0231427D01*
X0022450Y0231321D01*
X0022322Y0231218D01*
X0022191Y0231119D01*
X0022058Y0231022D01*
X0021922Y0230929D01*
X0021784Y0230839D01*
X0021644Y0230753D01*
X0021502Y0230670D01*
X0021358Y0230591D01*
X0021212Y0230515D01*
X0021065Y0230443D01*
X0020915Y0230375D01*
X0020764Y0230310D01*
X0020611Y0230249D01*
X0020457Y0230192D01*
X0020302Y0230138D01*
X0020145Y0230088D01*
X0019987Y0230043D01*
X0019828Y0230001D01*
X0019668Y0229963D01*
X0019507Y0229929D01*
X0019345Y0229899D01*
X0019183Y0229873D01*
X0019020Y0229850D01*
X0018857Y0229832D01*
X0018693Y0229818D01*
X0018529Y0229808D01*
X0018364Y0229802D01*
X0018200Y0229800D01*
X0018036Y0229802D01*
X0017871Y0229808D01*
X0017707Y0229818D01*
X0017543Y0229832D01*
X0017380Y0229850D01*
X0017217Y0229873D01*
X0017055Y0229899D01*
X0016893Y0229929D01*
X0016732Y0229963D01*
X0016572Y0230001D01*
X0016413Y0230043D01*
X0016255Y0230088D01*
X0016098Y0230138D01*
X0015943Y0230192D01*
X0015789Y0230249D01*
X0015636Y0230310D01*
X0015485Y0230375D01*
X0015335Y0230443D01*
X0015188Y0230515D01*
X0015042Y0230591D01*
X0014898Y0230670D01*
X0014756Y0230753D01*
X0014616Y0230839D01*
X0014478Y0230929D01*
X0014342Y0231022D01*
X0014209Y0231119D01*
X0014078Y0231218D01*
X0013950Y0231321D01*
X0013824Y0231427D01*
X0013701Y0231536D01*
X0013580Y0231648D01*
X0013462Y0231762D01*
X0013348Y0231880D01*
X0013236Y0232001D01*
X0013127Y0232124D01*
X0013021Y0232250D01*
X0012918Y0232378D01*
X0012819Y0232509D01*
X0012722Y0232642D01*
X0012629Y0232778D01*
X0012539Y0232916D01*
X0012453Y0233056D01*
X0012370Y0233198D01*
X0012291Y0233342D01*
X0012215Y0233488D01*
X0012143Y0233635D01*
X0012075Y0233785D01*
X0012010Y0233936D01*
X0011949Y0234089D01*
X0011892Y0234243D01*
X0011838Y0234398D01*
X0011788Y0234555D01*
X0011743Y0234713D01*
X0011701Y0234872D01*
X0011663Y0235032D01*
X0011629Y0235193D01*
X0011599Y0235355D01*
X0011573Y0235517D01*
X0011550Y0235680D01*
X0011532Y0235843D01*
X0011518Y0236007D01*
X0011508Y0236171D01*
X0011502Y0236336D01*
X0011500Y0236500D01*
D11*
X0185659Y0234556D02*
X0185659Y0228150D01*
X0189929Y0228150D02*
X0189929Y0234556D01*
X0187794Y0232421D01*
X0185659Y0234556D01*
X0192104Y0231353D02*
X0192104Y0229218D01*
X0193172Y0228150D01*
X0195307Y0228150D01*
X0196374Y0230286D02*
X0192104Y0230286D01*
X0192104Y0231353D02*
X0193172Y0232421D01*
X0195307Y0232421D01*
X0196374Y0231353D01*
X0196374Y0230286D01*
X0198550Y0231353D02*
X0198550Y0229218D01*
X0199617Y0228150D01*
X0201752Y0228150D01*
X0202820Y0229218D01*
X0202820Y0231353D01*
X0201752Y0232421D01*
X0199617Y0232421D01*
X0198550Y0231353D01*
X0204995Y0232421D02*
X0204995Y0229218D01*
X0206063Y0228150D01*
X0207130Y0229218D01*
X0208198Y0228150D01*
X0209265Y0229218D01*
X0209265Y0232421D01*
D12*
X0187721Y0194937D03*
X0181028Y0194937D03*
X0148626Y0132260D03*
X0148626Y0125567D03*
X0156500Y0109346D03*
X0156500Y0102654D03*
X0182091Y0076000D03*
X0188784Y0076000D03*
X0173036Y0066000D03*
X0166343Y0066000D03*
X0093311Y0076906D03*
X0093311Y0083598D03*
D13*
X0132091Y0194937D03*
X0138784Y0194937D03*
X0162091Y0194937D03*
X0168784Y0194937D03*
D14*
X0136500Y0161000D03*
X0136500Y0151000D03*
X0136500Y0141000D03*
X0136500Y0131000D03*
X0136500Y0121000D03*
X0136500Y0111000D03*
X0136500Y0101000D03*
X0136500Y0091000D03*
X0136500Y0081000D03*
X0136500Y0071000D03*
X0136500Y0061000D03*
X0136500Y0051000D03*
X0136500Y0041000D03*
X0106500Y0041000D03*
X0106500Y0031000D03*
X0106500Y0051000D03*
X0106500Y0061000D03*
X0106500Y0071000D03*
X0106500Y0081000D03*
X0106500Y0091000D03*
X0106500Y0101000D03*
X0106500Y0111000D03*
X0106500Y0121000D03*
X0106500Y0131000D03*
X0106500Y0141000D03*
X0106500Y0151000D03*
X0106500Y0161000D03*
X0121500Y0181000D03*
X0081500Y0181000D03*
D15*
X0051500Y0141000D03*
X0051500Y0121000D03*
D16*
X0154374Y0230843D03*
D17*
X0145398Y0202102D03*
X0163351Y0202102D03*
D18*
X0074059Y0065055D03*
X0074059Y0055055D03*
X0064059Y0055055D03*
X0054059Y0055055D03*
X0054059Y0065055D03*
X0064059Y0065055D03*
D19*
X0174300Y0106000D02*
X0178700Y0106000D01*
X0178700Y0126000D02*
X0174300Y0126000D01*
D20*
X0136500Y0031000D03*
D21*
X0064000Y0191000D03*
X0064000Y0201000D03*
X0064000Y0211000D03*
X0064000Y0221000D03*
X0064000Y0231000D03*
D22*
X0198500Y0216000D02*
X0204500Y0216000D01*
X0204500Y0206000D02*
X0198500Y0206000D01*
X0198500Y0196000D02*
X0204500Y0196000D01*
X0204500Y0186000D02*
X0198500Y0186000D01*
X0198500Y0176000D02*
X0204500Y0176000D01*
X0204500Y0166000D02*
X0198500Y0166000D01*
X0198500Y0156000D02*
X0204500Y0156000D01*
X0204500Y0146000D02*
X0198500Y0146000D01*
X0198500Y0136000D02*
X0204500Y0136000D01*
X0204500Y0126000D02*
X0198500Y0126000D01*
X0198500Y0116000D02*
X0204500Y0116000D01*
X0204500Y0106000D02*
X0198500Y0106000D01*
X0198500Y0096000D02*
X0204500Y0096000D01*
X0204500Y0086000D02*
X0198500Y0086000D01*
X0198500Y0076000D02*
X0204500Y0076000D01*
X0204500Y0066000D02*
X0198500Y0066000D01*
D23*
X0201500Y0066000D02*
X0173036Y0066000D01*
X0166343Y0066000D02*
X0166343Y0061827D01*
X0169611Y0058559D01*
X0209059Y0058559D01*
X0211500Y0061000D01*
X0211500Y0201000D01*
X0206500Y0206000D01*
X0201500Y0206000D01*
X0196500Y0206000D01*
X0191500Y0211000D01*
X0171500Y0211000D01*
X0171500Y0210252D01*
X0167544Y0206295D01*
X0168784Y0205055D01*
X0168784Y0194937D01*
X0181028Y0194937D01*
X0187721Y0194937D02*
X0188784Y0196000D01*
X0201500Y0196000D01*
X0201500Y0186000D02*
X0176500Y0186000D01*
X0171500Y0181000D01*
X0151500Y0181000D01*
X0141500Y0171000D01*
X0136500Y0171000D01*
X0131500Y0166000D01*
X0131500Y0146000D01*
X0116500Y0131000D01*
X0106500Y0131000D01*
X0104926Y0129425D01*
X0102681Y0129425D01*
X0043626Y0070370D01*
X0043626Y0058559D01*
X0047130Y0055055D01*
X0054059Y0055055D01*
X0054059Y0065055D02*
X0054059Y0076866D01*
X0086933Y0109740D01*
X0105241Y0109740D01*
X0106500Y0111000D01*
X0116500Y0111000D01*
X0136500Y0091000D01*
X0166500Y0091000D01*
X0181500Y0076000D01*
X0182091Y0076000D01*
X0171304Y0076000D01*
X0165674Y0070370D01*
X0165674Y0066669D01*
X0166343Y0066000D01*
X0149926Y0058559D02*
X0149926Y0023126D01*
X0138115Y0011315D01*
X0059374Y0011315D01*
X0031815Y0038874D01*
X0031815Y0164858D01*
X0047563Y0180606D01*
X0047563Y0204228D01*
X0055437Y0212102D01*
X0062898Y0212102D01*
X0064000Y0211000D01*
X0064000Y0201000D02*
X0086225Y0201000D01*
X0098744Y0188480D01*
X0098744Y0176669D01*
X0102681Y0172732D01*
X0106619Y0172732D01*
X0116500Y0162850D01*
X0116500Y0158913D01*
X0126500Y0166000D02*
X0136500Y0176000D01*
X0128154Y0181000D02*
X0132091Y0184937D01*
X0132091Y0194937D01*
X0132091Y0198205D01*
X0134178Y0200291D01*
X0143587Y0200291D01*
X0145398Y0202102D01*
X0138784Y0194937D02*
X0152445Y0194937D01*
X0153863Y0196354D01*
X0154374Y0196866D01*
X0154374Y0230843D01*
X0153863Y0234268D01*
X0167544Y0206295D02*
X0163351Y0202102D01*
X0162091Y0194937D02*
X0155280Y0194937D01*
X0153863Y0196354D01*
X0128154Y0181000D02*
X0121500Y0181000D01*
X0126500Y0166000D02*
X0126500Y0146000D01*
X0121500Y0141000D01*
X0106500Y0141000D01*
X0116500Y0121000D02*
X0116500Y0111000D01*
X0106500Y0101000D02*
X0101815Y0101000D01*
X0094807Y0093992D01*
X0094807Y0085094D01*
X0093311Y0083598D01*
X0098744Y0082339D02*
X0098744Y0090055D01*
X0099689Y0091000D01*
X0106500Y0091000D01*
X0098744Y0082339D02*
X0093311Y0076906D01*
X0074059Y0055055D02*
X0074059Y0024189D01*
X0079059Y0019189D01*
X0134178Y0019189D01*
X0138115Y0023126D01*
X0138115Y0029386D01*
X0136500Y0031000D01*
X0145989Y0027063D02*
X0134178Y0015252D01*
X0063311Y0015252D01*
X0035752Y0042811D01*
X0035752Y0160921D01*
X0063311Y0188480D01*
X0063311Y0190311D01*
X0064000Y0191000D01*
X0081500Y0181000D02*
X0081500Y0146000D01*
X0076500Y0141000D01*
X0051500Y0141000D01*
X0064000Y0231000D02*
X0082996Y0231000D01*
X0082996Y0231787D01*
X0157800Y0141236D02*
X0148823Y0132260D01*
X0148626Y0132260D01*
X0149059Y0126000D02*
X0176500Y0126000D01*
X0176500Y0106000D02*
X0159847Y0106000D01*
X0156500Y0109346D01*
X0138154Y0109346D01*
X0136500Y0111000D01*
X0136500Y0121000D02*
X0144059Y0121000D01*
X0148626Y0125567D01*
X0149059Y0126000D01*
X0156500Y0102654D02*
X0157012Y0102654D01*
X0161737Y0097929D01*
X0156500Y0101000D02*
X0156500Y0102654D01*
X0137485Y0071000D02*
X0149926Y0058559D01*
X0145989Y0054622D02*
X0145989Y0027063D01*
X0145989Y0054622D02*
X0139611Y0061000D01*
X0136500Y0061000D01*
X0136500Y0071000D02*
X0137485Y0071000D01*
X0188784Y0076000D02*
X0201500Y0076000D01*
D24*
X0161737Y0097929D03*
X0157800Y0141236D03*
X0136500Y0176000D03*
X0153863Y0196354D03*
X0116500Y0158913D03*
X0116500Y0121000D03*
X0082996Y0231787D03*
M02*
