G75*
%MOIN*%
%OFA0B0*%
%FSLAX25Y25*%
%IPPOS*%
%LPD*%
%AMOC8*
5,1,8,0,0,1.08239X$1,22.5*
%
%ADD10C,0.07400*%
%ADD11OC8,0.13200*%
%ADD12OC8,0.06800*%
%ADD13C,0.05200*%
%ADD14R,0.07400X0.07400*%
%ADD15C,0.14200*%
%ADD16C,0.06800*%
%ADD17C,0.05156*%
D10*
X0098626Y0032996D03*
X0098626Y0042996D03*
X0098626Y0052996D03*
X0098626Y0062996D03*
X0098626Y0072996D03*
X0098626Y0082996D03*
X0098626Y0092996D03*
X0098626Y0102996D03*
X0098626Y0112996D03*
X0098626Y0122996D03*
X0098626Y0132996D03*
X0098626Y0142996D03*
X0098626Y0152996D03*
X0098626Y0162996D03*
X0113626Y0182996D03*
X0128626Y0162996D03*
X0128626Y0152996D03*
X0128626Y0142996D03*
X0128626Y0132996D03*
X0128626Y0122996D03*
X0128626Y0112996D03*
X0128626Y0102996D03*
X0128626Y0092996D03*
X0128626Y0082996D03*
X0128626Y0072996D03*
X0128626Y0062996D03*
X0128626Y0052996D03*
X0128626Y0042996D03*
X0073626Y0182996D03*
D11*
X0051500Y0154807D03*
X0051500Y0134807D03*
D12*
X0046185Y0057051D03*
X0046185Y0067051D03*
X0056185Y0067051D03*
X0056185Y0057051D03*
X0066185Y0057051D03*
X0066185Y0067051D03*
D13*
X0166426Y0107996D02*
X0170826Y0107996D01*
X0170826Y0127996D02*
X0166426Y0127996D01*
D14*
X0128626Y0032996D03*
D15*
X0018200Y0187496D03*
X0018200Y0238496D03*
D16*
X0158548Y0047807D02*
X0158548Y0041807D01*
X0168548Y0041807D02*
X0168548Y0047807D01*
X0178548Y0047807D02*
X0178548Y0041807D01*
X0188548Y0041807D02*
X0188548Y0047807D01*
X0190626Y0067996D02*
X0196626Y0067996D01*
X0196626Y0077996D02*
X0190626Y0077996D01*
X0190626Y0087996D02*
X0196626Y0087996D01*
X0196626Y0097996D02*
X0190626Y0097996D01*
X0190626Y0107996D02*
X0196626Y0107996D01*
X0196626Y0117996D02*
X0190626Y0117996D01*
X0190626Y0127996D02*
X0196626Y0127996D01*
X0196626Y0137996D02*
X0190626Y0137996D01*
X0190626Y0147996D02*
X0196626Y0147996D01*
X0196626Y0157996D02*
X0190626Y0157996D01*
X0190626Y0167996D02*
X0196626Y0167996D01*
X0196626Y0177996D02*
X0190626Y0177996D01*
X0190626Y0187996D02*
X0196626Y0187996D01*
X0196626Y0197996D02*
X0190626Y0197996D01*
X0190626Y0207996D02*
X0196626Y0207996D01*
X0196626Y0217996D02*
X0190626Y0217996D01*
D17*
X0145989Y0198350D03*
X0128626Y0177996D03*
X0108626Y0160909D03*
X0108626Y0122996D03*
X0149926Y0143232D03*
X0153863Y0099925D03*
X0086933Y0233783D03*
M02*
