<?xml version="1.0" encoding="UTF-8" standalone="no"?>
<!-- Created with Inkscape (http://www.inkscape.org/) -->

<svg
   xmlns:dc="http://purl.org/dc/elements/1.1/"
   xmlns:cc="http://creativecommons.org/ns#"
   xmlns:rdf="http://www.w3.org/1999/02/22-rdf-syntax-ns#"
   xmlns:svg="http://www.w3.org/2000/svg"
   xmlns="http://www.w3.org/2000/svg"
   xmlns:sodipodi="http://sodipodi.sourceforge.net/DTD/sodipodi-0.dtd"
   xmlns:inkscape="http://www.inkscape.org/namespaces/inkscape"
   width="5cm"
   height="3cm"
   viewBox="0 0 50 29.999998"
   version="1.1"
   id="svg4545"
   inkscape:version="0.92.1 r15371"
   sodipodi:docname="Grouping Connector.svg">
  <defs
     id="defs4539" />
  <sodipodi:namedview
     id="base"
     pagecolor="#ffffff"
     bordercolor="#666666"
     borderopacity="1.0"
     inkscape:pageopacity="0.0"
     inkscape:pageshadow="2"
     inkscape:zoom="1.440439"
     inkscape:cx="262.77013"
     inkscape:cy="117.30228"
     inkscape:document-units="cm"
     inkscape:current-layer="layer1"
     showgrid="false"
     inkscape:window-width="2560"
     inkscape:window-height="1351"
     inkscape:window-x="-11"
     inkscape:window-y="-11"
     inkscape:window-maximized="1"
     units="cm" />
  <metadata
     id="metadata4542">
    <rdf:RDF>
      <cc:Work
         rdf:about="">
        <dc:format>image/svg+xml</dc:format>
        <dc:type
           rdf:resource="http://purl.org/dc/dcmitype/StillImage" />
        <dc:title></dc:title>
      </cc:Work>
    </rdf:RDF>
  </metadata>
  <g
     inkscape:label="Layer 1"
     inkscape:groupmode="layer"
     id="layer1"
     transform="translate(0,-267.00012)">
    <rect
       style="opacity:0.73400005;fill:#000000;fill-opacity:1;stroke:#000000;stroke-width:1.66999996;stroke-linecap:square;stroke-linejoin:miter;stroke-miterlimit:4;stroke-dasharray:none;stroke-opacity:1;paint-order:fill markers stroke"
       id="rect5090"
       width="45.920605"
       height="26.633951"
       x="2.2041912"
       y="268.71292"
       ry="2.0888166" />
    <path
       inkscape:connector-curvature="0"
       d="m 13.668437,273.87824 c -0.601655,0.30352 -6.3985175,4.72314 -6.3985175,4.72314 z m 0.914524,2.36564 a 4.0390182,3.2710046 0 0 1 -4.039019,3.27101 4.0390182,3.2710046 0 0 1 -4.0390205,-3.27101 4.0390182,3.2710046 0 0 1 4.0390205,-3.271 4.0390182,3.2710046 0 0 1 4.039019,3.271 z"
       style="fill:#8c8c8c;fill-opacity:1;stroke:#675c5f;stroke-width:1.17790234;stroke-linecap:butt;stroke-linejoin:miter;stroke-miterlimit:4;stroke-dasharray:none;stroke-opacity:1"
       id="path4780-2-8-5-2-1" />
    <path
       inkscape:connector-curvature="0"
       d="m 26.305498,273.87824 c -0.601655,0.30352 -6.398517,4.72314 -6.398517,4.72314 z m 0.914524,2.36564 a 4.0390183,3.2710046 0 0 1 -4.039019,3.27101 4.0390183,3.2710046 0 0 1 -4.03902,-3.27101 4.0390183,3.2710046 0 0 1 4.03902,-3.271 4.0390183,3.2710046 0 0 1 4.039019,3.271 z"
       style="fill:#8c8c8c;fill-opacity:1;stroke:#675c5f;stroke-width:1.17790234;stroke-linecap:butt;stroke-linejoin:miter;stroke-miterlimit:4;stroke-dasharray:none;stroke-opacity:1"
       id="path4780-2-8-5-2-1-0" />
    <path
       inkscape:connector-curvature="0"
       d="m 38.942569,273.87824 c -0.60165,0.30352 -6.398514,4.72314 -6.398514,4.72314 z m 0.91453,2.36564 a 4.0390183,3.2710046 0 0 1 -4.03902,3.27101 4.0390183,3.2710046 0 0 1 -4.039022,-3.27101 4.0390183,3.2710046 0 0 1 4.039022,-3.271 4.0390183,3.2710046 0 0 1 4.03902,3.271 z"
       style="fill:#8c8c8c;fill-opacity:1;stroke:#675c5f;stroke-width:1.17790234;stroke-linecap:butt;stroke-linejoin:miter;stroke-miterlimit:4;stroke-dasharray:none;stroke-opacity:1"
       id="path4780-2-8-5-2-1-8" />
    <path
       inkscape:connector-curvature="0"
       d="m 13.815098,286.55232 c -0.601655,0.30352 -6.3985175,4.72314 -6.3985175,4.72314 z m 0.914525,2.36564 a 4.0390183,3.2710046 0 0 1 -4.03902,3.27101 4.0390183,3.2710046 0 0 1 -4.0390205,-3.27101 4.0390183,3.2710046 0 0 1 4.0390205,-3.271 4.0390183,3.2710046 0 0 1 4.03902,3.271 z"
       style="fill:#8c8c8c;fill-opacity:1;stroke:#675c5f;stroke-width:1.17790234;stroke-linecap:butt;stroke-linejoin:miter;stroke-miterlimit:4;stroke-dasharray:none;stroke-opacity:1"
       id="path4780-2-8-5-2-1-5" />
    <path
       inkscape:connector-curvature="0"
       d="m 26.452159,286.55232 c -0.601655,0.30352 -6.398517,4.72314 -6.398517,4.72314 z m 0.914524,2.36564 a 4.0390183,3.2710046 0 0 1 -4.039019,3.27101 4.0390183,3.2710046 0 0 1 -4.03902,-3.27101 4.0390183,3.2710046 0 0 1 4.03902,-3.271 4.0390183,3.2710046 0 0 1 4.039019,3.271 z"
       style="fill:#8c8c8c;fill-opacity:1;stroke:#675c5f;stroke-width:1.17790234;stroke-linecap:butt;stroke-linejoin:miter;stroke-miterlimit:4;stroke-dasharray:none;stroke-opacity:1"
       id="path4780-2-8-5-2-1-0-2" />
    <path
       inkscape:connector-curvature="0"
       d="m 39.089229,286.55232 c -0.60165,0.30352 -6.398512,4.72314 -6.398512,4.72314 z m 0.91453,2.36564 a 4.0390183,3.2710046 0 0 1 -4.03902,3.27101 4.0390183,3.2710046 0 0 1 -4.039021,-3.27101 4.0390183,3.2710046 0 0 1 4.039021,-3.271 4.0390183,3.2710046 0 0 1 4.03902,3.271 z"
       style="fill:#8c8c8c;fill-opacity:1;stroke:#675c5f;stroke-width:1.17790234;stroke-linecap:butt;stroke-linejoin:miter;stroke-miterlimit:4;stroke-dasharray:none;stroke-opacity:1"
       id="path4780-2-8-5-2-1-8-5" />
    <path
       style="opacity:0.73400005;fill:#ffffff;fill-opacity:1;stroke:#000000;stroke-width:1.66999996;stroke-linecap:square;stroke-linejoin:miter;stroke-miterlimit:4;stroke-dasharray:none;stroke-opacity:1;paint-order:fill markers stroke"
       id="path5157"
       sodipodi:type="arc"
       sodipodi:cx="44.954117"
       sodipodi:cy="275.87653"
       sodipodi:rx="2.8470776"
       sodipodi:ry="2.7552364"
       sodipodi:start="0"
       sodipodi:end="6.0896108"
       sodipodi:open="true"
       d="m 47.801194,275.87653 a 2.8470776,2.7552364 0 0 1 -2.709351,2.75201 2.8470776,2.7552364 0 0 1 -2.971479,-2.48576 2.8470776,2.7552364 0 0 1 2.421862,-2.9925 2.8470776,2.7552364 0 0 1 3.205793,2.19623" />
    <path
       style="opacity:0.73400005;fill:#ffffff;fill-opacity:1;stroke:#000000;stroke-width:1.66999996;stroke-linecap:square;stroke-linejoin:miter;stroke-miterlimit:4;stroke-dasharray:none;stroke-opacity:1;paint-order:fill markers stroke"
       id="path5157-2"
       sodipodi:type="arc"
       sodipodi:cx="45.137909"
       sodipodi:cy="288.36694"
       sodipodi:rx="2.8470776"
       sodipodi:ry="2.7552364"
       sodipodi:start="0"
       sodipodi:end="6.0896108"
       sodipodi:open="true"
       d="m 47.984987,288.36694 a 2.8470776,2.7552364 0 0 1 -2.709351,2.75201 2.8470776,2.7552364 0 0 1 -2.97148,-2.48575 2.8470776,2.7552364 0 0 1 2.421862,-2.99251 2.8470776,2.7552364 0 0 1 3.205793,2.19623" />
  </g>
</svg>
