<?xml version="1.0" encoding="UTF-8" standalone="no"?>
<!-- Created with Inkscape (http://www.inkscape.org/) -->

<svg
   xmlns:dc="http://purl.org/dc/elements/1.1/"
   xmlns:cc="http://creativecommons.org/ns#"
   xmlns:rdf="http://www.w3.org/1999/02/22-rdf-syntax-ns#"
   xmlns:svg="http://www.w3.org/2000/svg"
   xmlns="http://www.w3.org/2000/svg"
   xmlns:sodipodi="http://sodipodi.sourceforge.net/DTD/sodipodi-0.dtd"
   xmlns:inkscape="http://www.inkscape.org/namespaces/inkscape"
   width="200mm"
   height="200mm"
   viewBox="0 0 200 199.99999"
   version="1.1"
   id="svg8"
   inkscape:version="0.92.1 r15371"
   sodipodi:docname="24V Rail.svg">
  <defs
     id="defs2" />
  <sodipodi:namedview
     id="base"
     pagecolor="#ffffff"
     bordercolor="#666666"
     borderopacity="1.0"
     inkscape:pageopacity="0.0"
     inkscape:pageshadow="2"
     inkscape:zoom="0.73"
     inkscape:cx="-291.61363"
     inkscape:cy="348.77646"
     inkscape:document-units="mm"
     inkscape:current-layer="layer2"
     showgrid="false"
     units="mm"
     inkscape:window-width="2560"
     inkscape:window-height="1351"
     inkscape:window-x="-11"
     inkscape:window-y="-11"
     inkscape:window-maximized="1"
     inkscape:measure-start="-133.353,309.965"
     inkscape:measure-end="0,0" />
  <metadata
     id="metadata5">
    <rdf:RDF>
      <cc:Work
         rdf:about="">
        <dc:format>image/svg+xml</dc:format>
        <dc:type
           rdf:resource="http://purl.org/dc/dcmitype/StillImage" />
        <dc:title />
      </cc:Work>
    </rdf:RDF>
  </metadata>
  <g
     inkscape:label="Layer 1"
     inkscape:groupmode="layer"
     id="layer1"
     transform="translate(0,-97.000009)">
    <g
       id="g4514"
       transform="translate(12.02652,10.422983)">
      <rect
         y="112.99433"
         x="19.643307"
         height="169.97475"
         width="132.69254"
         id="rect4485"
         style="opacity:0.906;fill:#000000;fill-opacity:1;stroke-width:0.23860484" />
      <rect
         y="112.99432"
         x="2.0044188"
         height="169.97475"
         width="17.638887"
         id="rect4489"
         style="opacity:1;fill:#1a1a1a;fill-opacity:1;stroke-width:0.29922897" />
      <rect
         y="154.08113"
         x="27.209381"
         height="116.78898"
         width="117.27224"
         id="rect4493"
         style="opacity:1;fill:#000000;fill-opacity:1;stroke-width:0.34100983" />
      <rect
         y="112.99433"
         x="152.33585"
         height="169.97475"
         width="17.638887"
         id="rect4489-1"
         style="opacity:1;fill:#1a1a1a;fill-opacity:1;stroke-width:0.29922897" />
    </g>
    <g
       transform="matrix(1.9398187,0,0,1.9398187,-496.97948,-660.56003)"
       id="H13xpin-9-94">
      <path
         style="fill:#c0bfbf"
         inkscape:connector-curvature="0"
         d="m 280.782,451.892 c 0.661,0 1.197,0.536 1.197,1.196 h 1.196 c 0,-1.321 -1.071,-2.393 -2.393,-2.393 -1.321,0 -2.393,1.071 -2.393,2.393 h 1.196 c 0,-0.66 0.536,-1.196 1.197,-1.196 z"
         id="path1654-8-0" />
      <path
         style="fill:#e6e6e5"
         inkscape:connector-curvature="0"
         d="m 280.782,455.481 c 1.322,0 2.393,-1.071 2.393,-2.394 h -1.196 c 0,0.661 -0.536,1.197 -1.197,1.197 -0.661,0 -1.197,-0.536 -1.197,-1.197 h -1.196 c 0,1.323 1.071,2.394 2.393,2.394 z"
         id="path1656-9-7" />
      <circle
         style="fill:#383938"
         cx="280.78201"
         cy="453.08801"
         r="1.197"
         id="circle1658-1-7" />
    </g>
    <g
       transform="matrix(1.9398187,0,0,1.9398187,-466.97948,-660.55733)"
       id="H13xpin-9-9-6">
      <path
         style="fill:#c0bfbf"
         inkscape:connector-curvature="0"
         d="m 280.782,451.892 c 0.661,0 1.197,0.536 1.197,1.196 h 1.196 c 0,-1.321 -1.071,-2.393 -2.393,-2.393 -1.321,0 -2.393,1.071 -2.393,2.393 h 1.196 c 0,-0.66 0.536,-1.196 1.197,-1.196 z"
         id="path1654-8-3-7" />
      <path
         style="fill:#e6e6e5"
         inkscape:connector-curvature="0"
         d="m 280.782,455.481 c 1.322,0 2.393,-1.071 2.393,-2.394 h -1.196 c 0,0.661 -0.536,1.197 -1.197,1.197 -0.661,0 -1.197,-0.536 -1.197,-1.197 h -1.196 c 0,1.323 1.071,2.394 2.393,2.394 z"
         id="path1656-9-6-06" />
      <circle
         style="fill:#383938"
         cx="280.78201"
         cy="453.08801"
         r="1.197"
         id="circle1658-1-5-3" />
    </g>
    <g
       transform="matrix(1.9398187,0,0,1.9398187,-496.97948,-643.16277)"
       id="H13xpin-9-7">
      <path
         style="fill:#c0bfbf"
         inkscape:connector-curvature="0"
         d="m 280.782,451.892 c 0.661,0 1.197,0.536 1.197,1.196 h 1.196 c 0,-1.321 -1.071,-2.393 -2.393,-2.393 -1.321,0 -2.393,1.071 -2.393,2.393 h 1.196 c 0,-0.66 0.536,-1.196 1.197,-1.196 z"
         id="path1654-8-7" />
      <path
         style="fill:#e6e6e5"
         inkscape:connector-curvature="0"
         d="m 280.782,455.481 c 1.322,0 2.393,-1.071 2.393,-2.394 h -1.196 c 0,0.661 -0.536,1.197 -1.197,1.197 -0.661,0 -1.197,-0.536 -1.197,-1.197 h -1.196 c 0,1.323 1.071,2.394 2.393,2.394 z"
         id="path1656-9-1" />
      <circle
         style="fill:#383938"
         cx="280.78201"
         cy="453.08801"
         r="1.197"
         id="circle1658-1-2" />
    </g>
    <g
       transform="matrix(1.9398187,0,0,1.9398187,-466.97948,-643.16007)"
       id="H13xpin-9-9-7">
      <path
         style="fill:#c0bfbf"
         inkscape:connector-curvature="0"
         d="m 280.782,451.892 c 0.661,0 1.197,0.536 1.197,1.196 h 1.196 c 0,-1.321 -1.071,-2.393 -2.393,-2.393 -1.321,0 -2.393,1.071 -2.393,2.393 h 1.196 c 0,-0.66 0.536,-1.196 1.197,-1.196 z"
         id="path1654-8-3-5" />
      <path
         style="fill:#e6e6e5"
         inkscape:connector-curvature="0"
         d="m 280.782,455.481 c 1.322,0 2.393,-1.071 2.393,-2.394 h -1.196 c 0,0.661 -0.536,1.197 -1.197,1.197 -0.661,0 -1.197,-0.536 -1.197,-1.197 h -1.196 c 0,1.323 1.071,2.394 2.393,2.394 z"
         id="path1656-9-6-4" />
      <circle
         style="fill:#383938"
         cx="280.78201"
         cy="453.08801"
         r="1.197"
         id="circle1658-1-5-2" />
    </g>
    <g
       transform="matrix(1.9398187,0,0,1.9398187,-496.97948,-622.86597)"
       id="H13xpin-9-12">
      <path
         style="fill:#c0bfbf"
         inkscape:connector-curvature="0"
         d="m 280.782,451.892 c 0.661,0 1.197,0.536 1.197,1.196 h 1.196 c 0,-1.321 -1.071,-2.393 -2.393,-2.393 -1.321,0 -2.393,1.071 -2.393,2.393 h 1.196 c 0,-0.66 0.536,-1.196 1.197,-1.196 z"
         id="path1654-8-5" />
      <path
         style="fill:#e6e6e5"
         inkscape:connector-curvature="0"
         d="m 280.782,455.481 c 1.322,0 2.393,-1.071 2.393,-2.394 h -1.196 c 0,0.661 -0.536,1.197 -1.197,1.197 -0.661,0 -1.197,-0.536 -1.197,-1.197 h -1.196 c 0,1.323 1.071,2.394 2.393,2.394 z"
         id="path1656-9-2" />
      <circle
         style="fill:#383938"
         cx="280.78201"
         cy="453.08801"
         r="1.197"
         id="circle1658-1-00" />
    </g>
    <g
       transform="matrix(1.9398187,0,0,1.9398187,-466.97948,-622.86327)"
       id="H13xpin-9-9-61">
      <path
         style="fill:#c0bfbf"
         inkscape:connector-curvature="0"
         d="m 280.782,451.892 c 0.661,0 1.197,0.536 1.197,1.196 h 1.196 c 0,-1.321 -1.071,-2.393 -2.393,-2.393 -1.321,0 -2.393,1.071 -2.393,2.393 h 1.196 c 0,-0.66 0.536,-1.196 1.197,-1.196 z"
         id="path1654-8-3-2" />
      <path
         style="fill:#e6e6e5"
         inkscape:connector-curvature="0"
         d="m 280.782,455.481 c 1.322,0 2.393,-1.071 2.393,-2.394 h -1.196 c 0,0.661 -0.536,1.197 -1.197,1.197 -0.661,0 -1.197,-0.536 -1.197,-1.197 h -1.196 c 0,1.323 1.071,2.394 2.393,2.394 z"
         id="path1656-9-6-6" />
      <circle
         style="fill:#383938"
         cx="280.78201"
         cy="453.08801"
         r="1.197"
         id="circle1658-1-5-5" />
    </g>
  </g>
  <g
     inkscape:groupmode="layer"
     id="layer2"
     inkscape:label="Layer 2">
    <rect
       style="opacity:0.906;fill:#8c8c8c;fill-opacity:1;stroke-width:0.26458332"
       id="rect4491"
       width="16.83712"
       height="15.634469"
       x="89.644203"
       y="51.030468" />
    <rect
       style="opacity:1;fill:#8c8c8c;fill-opacity:1;stroke-width:0.18247125"
       id="rect4487"
       width="32.070702"
       height="32.070702"
       x="149.93056"
       y="26.417305" />
    <rect
       style="opacity:0.906;fill:#8c8c8c;fill-opacity:1;stroke-width:0.19871996"
       id="rect4491-5"
       width="16.83712"
       height="8.8194447"
       x="19.242432"
       y="76.126907" />
    <rect
       style="opacity:0.906;fill:#8c8c8c;fill-opacity:1;stroke-width:0.19871996"
       id="rect4491-5-2"
       width="16.83712"
       height="8.8194447"
       x="18.841537"
       y="97.173302" />
    <rect
       style="opacity:0.906;fill:#8c8c8c;fill-opacity:1;stroke-width:0.19871996"
       id="rect4491-5-4"
       width="16.83712"
       height="8.8194447"
       x="18.841541"
       y="115.01261" />
    <rect
       style="opacity:0.906;fill:#8c8c8c;fill-opacity:1;stroke-width:0.19871996"
       id="rect4491-5-0"
       width="16.83712"
       height="8.8194447"
       x="18.440657"
       y="133.45328" />
    <rect
       style="opacity:0.906;fill:#8c8c8c;fill-opacity:1;stroke-width:0.19871996"
       id="rect4491-5-7"
       width="16.83712"
       height="8.8194447"
       x="18.440657"
       y="154.29924" />
    <rect
       style="opacity:0.906;fill:#8c8c8c;fill-opacity:1;stroke-width:0.19871996"
       id="rect4491-5-8"
       width="16.83712"
       height="8.8194447"
       x="18.440657"
       y="172.7399" />
    <rect
       style="opacity:0.906;fill:#8c8c8c;fill-opacity:1;stroke-width:0.19871996"
       id="rect4491-5-09"
       width="16.83712"
       height="8.8194447"
       x="159.15088"
       y="76.126907" />
    <rect
       style="opacity:0.906;fill:#8c8c8c;fill-opacity:1;stroke-width:0.19871996"
       id="rect4491-5-2-0"
       width="16.83712"
       height="8.8194447"
       x="158.74998"
       y="97.173302" />
    <rect
       style="opacity:0.906;fill:#8c8c8c;fill-opacity:1;stroke-width:0.19871996"
       id="rect4491-5-4-3"
       width="16.83712"
       height="8.8194447"
       x="158.74998"
       y="115.01261" />
    <rect
       style="opacity:0.906;fill:#8c8c8c;fill-opacity:1;stroke-width:0.19871996"
       id="rect4491-5-0-5"
       width="16.83712"
       height="8.8194447"
       x="158.34911"
       y="133.45328" />
    <rect
       style="opacity:0.906;fill:#8c8c8c;fill-opacity:1;stroke-width:0.19871996"
       id="rect4491-5-7-8"
       width="16.83712"
       height="8.8194447"
       x="158.34911"
       y="154.29922" />
    <rect
       style="opacity:0.906;fill:#8c8c8c;fill-opacity:1;stroke-width:0.19871996"
       id="rect4491-5-8-3"
       width="16.83712"
       height="8.8194447"
       x="158.34911"
       y="172.73988" />
    <g
       transform="matrix(1.9398187,0,0,1.9398187,-496.97948,-795.99762)"
       id="H13xpin-9">
      <path
         style="fill:#c0bfbf"
         inkscape:connector-curvature="0"
         d="m 280.782,451.892 c 0.661,0 1.197,0.536 1.197,1.196 h 1.196 c 0,-1.321 -1.071,-2.393 -2.393,-2.393 -1.321,0 -2.393,1.071 -2.393,2.393 h 1.196 c 0,-0.66 0.536,-1.196 1.197,-1.196 z"
         id="path1654-8" />
      <path
         style="fill:#e6e6e5"
         inkscape:connector-curvature="0"
         d="m 280.782,455.481 c 1.322,0 2.393,-1.071 2.393,-2.394 h -1.196 c 0,0.661 -0.536,1.197 -1.197,1.197 -0.661,0 -1.197,-0.536 -1.197,-1.197 h -1.196 c 0,1.323 1.071,2.394 2.393,2.394 z"
         id="path1656-9" />
      <circle
         style="fill:#383938"
         cx="280.78201"
         cy="453.08801"
         r="1.197"
         id="circle1658-1" />
    </g>
    <g
       transform="matrix(1.9398187,0,0,1.9398187,-466.97948,-795.99492)"
       id="H13xpin-9-9">
      <path
         style="fill:#c0bfbf"
         inkscape:connector-curvature="0"
         d="m 280.782,451.892 c 0.661,0 1.197,0.536 1.197,1.196 h 1.196 c 0,-1.321 -1.071,-2.393 -2.393,-2.393 -1.321,0 -2.393,1.071 -2.393,2.393 h 1.196 c 0,-0.66 0.536,-1.196 1.197,-1.196 z"
         id="path1654-8-3" />
      <path
         style="fill:#e6e6e5"
         inkscape:connector-curvature="0"
         d="m 280.782,455.481 c 1.322,0 2.393,-1.071 2.393,-2.394 h -1.196 c 0,0.661 -0.536,1.197 -1.197,1.197 -0.661,0 -1.197,-0.536 -1.197,-1.197 h -1.196 c 0,1.323 1.071,2.394 2.393,2.394 z"
         id="path1656-9-6" />
      <circle
         style="fill:#383938"
         cx="280.78201"
         cy="453.08801"
         r="1.197"
         id="circle1658-1-5" />
    </g>
    <g
       transform="matrix(1.9398187,0,0,1.9398187,-496.97948,-776.40707)"
       id="H13xpin-9-1">
      <path
         style="fill:#c0bfbf"
         inkscape:connector-curvature="0"
         d="m 280.782,451.892 c 0.661,0 1.197,0.536 1.197,1.196 h 1.196 c 0,-1.321 -1.071,-2.393 -2.393,-2.393 -1.321,0 -2.393,1.071 -2.393,2.393 h 1.196 c 0,-0.66 0.536,-1.196 1.197,-1.196 z"
         id="path1654-8-4" />
      <path
         style="fill:#e6e6e5"
         inkscape:connector-curvature="0"
         d="m 280.782,455.481 c 1.322,0 2.393,-1.071 2.393,-2.394 h -1.196 c 0,0.661 -0.536,1.197 -1.197,1.197 -0.661,0 -1.197,-0.536 -1.197,-1.197 h -1.196 c 0,1.323 1.071,2.394 2.393,2.394 z"
         id="path1656-9-0" />
      <circle
         style="fill:#383938"
         cx="280.78201"
         cy="453.08801"
         r="1.197"
         id="circle1658-1-0" />
    </g>
    <g
       transform="matrix(1.9398187,0,0,1.9398187,-466.97948,-776.40437)"
       id="H13xpin-9-9-5">
      <path
         style="fill:#c0bfbf"
         inkscape:connector-curvature="0"
         d="m 280.782,451.892 c 0.661,0 1.197,0.536 1.197,1.196 h 1.196 c 0,-1.321 -1.071,-2.393 -2.393,-2.393 -1.321,0 -2.393,1.071 -2.393,2.393 h 1.196 c 0,-0.66 0.536,-1.196 1.197,-1.196 z"
         id="path1654-8-3-4" />
      <path
         style="fill:#e6e6e5"
         inkscape:connector-curvature="0"
         d="m 280.782,455.481 c 1.322,0 2.393,-1.071 2.393,-2.394 h -1.196 c 0,0.661 -0.536,1.197 -1.197,1.197 -0.661,0 -1.197,-0.536 -1.197,-1.197 h -1.196 c 0,1.323 1.071,2.394 2.393,2.394 z"
         id="path1656-9-6-0" />
      <circle
         style="fill:#383938"
         cx="280.78201"
         cy="453.08801"
         r="1.197"
         id="circle1658-1-5-7" />
    </g>
    <g
       transform="matrix(1.9398187,0,0,1.9398187,-496.97948,-701.79458)"
       id="H13xpin-9-73">
      <path
         style="fill:#c0bfbf"
         inkscape:connector-curvature="0"
         d="m 280.782,451.892 c 0.661,0 1.197,0.536 1.197,1.196 h 1.196 c 0,-1.321 -1.071,-2.393 -2.393,-2.393 -1.321,0 -2.393,1.071 -2.393,2.393 h 1.196 c 0,-0.66 0.536,-1.196 1.197,-1.196 z"
         id="path1654-8-07" />
      <path
         style="fill:#e6e6e5"
         inkscape:connector-curvature="0"
         d="m 280.782,455.481 c 1.322,0 2.393,-1.071 2.393,-2.394 h -1.196 c 0,0.661 -0.536,1.197 -1.197,1.197 -0.661,0 -1.197,-0.536 -1.197,-1.197 h -1.196 c 0,1.323 1.071,2.394 2.393,2.394 z"
         id="path1656-9-13" />
      <circle
         style="fill:#383938"
         cx="280.78201"
         cy="453.08801"
         r="1.197"
         id="circle1658-1-75" />
    </g>
    <g
       transform="matrix(1.9398187,0,0,1.9398187,-466.97948,-701.79188)"
       id="H13xpin-9-9-4">
      <path
         style="fill:#c0bfbf"
         inkscape:connector-curvature="0"
         d="m 280.782,451.892 c 0.661,0 1.197,0.536 1.197,1.196 h 1.196 c 0,-1.321 -1.071,-2.393 -2.393,-2.393 -1.321,0 -2.393,1.071 -2.393,2.393 h 1.196 c 0,-0.66 0.536,-1.196 1.197,-1.196 z"
         id="path1654-8-3-9" />
      <path
         style="fill:#e6e6e5"
         inkscape:connector-curvature="0"
         d="m 280.782,455.481 c 1.322,0 2.393,-1.071 2.393,-2.394 h -1.196 c 0,0.661 -0.536,1.197 -1.197,1.197 -0.661,0 -1.197,-0.536 -1.197,-1.197 h -1.196 c 0,1.323 1.071,2.394 2.393,2.394 z"
         id="path1656-9-6-5" />
      <circle
         style="fill:#383938"
         cx="280.78201"
         cy="453.08801"
         r="1.197"
         id="circle1658-1-5-29" />
    </g>
    <g
       transform="matrix(1.9398187,0,0,1.9398187,-427.73696,-796.20371)"
       id="H13xpin-9-2">
      <path
         style="fill:#c0bfbf"
         inkscape:connector-curvature="0"
         d="m 280.782,451.892 c 0.661,0 1.197,0.536 1.197,1.196 h 1.196 c 0,-1.321 -1.071,-2.393 -2.393,-2.393 -1.321,0 -2.393,1.071 -2.393,2.393 h 1.196 c 0,-0.66 0.536,-1.196 1.197,-1.196 z"
         id="path1654-8-47" />
      <path
         style="fill:#e6e6e5"
         inkscape:connector-curvature="0"
         d="m 280.782,455.481 c 1.322,0 2.393,-1.071 2.393,-2.394 h -1.196 c 0,0.661 -0.536,1.197 -1.197,1.197 -0.661,0 -1.197,-0.536 -1.197,-1.197 h -1.196 c 0,1.323 1.071,2.394 2.393,2.394 z"
         id="path1656-9-3" />
      <circle
         style="fill:#383938"
         cx="280.78201"
         cy="453.08801"
         r="1.197"
         id="circle1658-1-6" />
    </g>
    <g
       transform="matrix(1.9398187,0,0,1.9398187,-397.73696,-796.201)"
       id="H13xpin-9-9-68">
      <path
         style="fill:#c0bfbf"
         inkscape:connector-curvature="0"
         d="m 280.782,451.892 c 0.661,0 1.197,0.536 1.197,1.196 h 1.196 c 0,-1.321 -1.071,-2.393 -2.393,-2.393 -1.321,0 -2.393,1.071 -2.393,2.393 h 1.196 c 0,-0.66 0.536,-1.196 1.197,-1.196 z"
         id="path1654-8-3-94" />
      <path
         style="fill:#e6e6e5"
         inkscape:connector-curvature="0"
         d="m 280.782,455.481 c 1.322,0 2.393,-1.071 2.393,-2.394 h -1.196 c 0,0.661 -0.536,1.197 -1.197,1.197 -0.661,0 -1.197,-0.536 -1.197,-1.197 h -1.196 c 0,1.323 1.071,2.394 2.393,2.394 z"
         id="path1656-9-6-7" />
      <circle
         style="fill:#383938"
         cx="280.78201"
         cy="453.08801"
         r="1.197"
         id="circle1658-1-5-1" />
    </g>
    <g
       transform="matrix(1.9398187,0,0,1.9398187,-427.73696,-776.76952)"
       id="H13xpin-9-4">
      <path
         style="fill:#c0bfbf"
         inkscape:connector-curvature="0"
         d="m 280.782,451.892 c 0.661,0 1.197,0.536 1.197,1.196 h 1.196 c 0,-1.321 -1.071,-2.393 -2.393,-2.393 -1.321,0 -2.393,1.071 -2.393,2.393 h 1.196 c 0,-0.66 0.536,-1.196 1.197,-1.196 z"
         id="path1654-8-34" />
      <path
         style="fill:#e6e6e5"
         inkscape:connector-curvature="0"
         d="m 280.782,455.481 c 1.322,0 2.393,-1.071 2.393,-2.394 h -1.196 c 0,0.661 -0.536,1.197 -1.197,1.197 -0.661,0 -1.197,-0.536 -1.197,-1.197 h -1.196 c 0,1.323 1.071,2.394 2.393,2.394 z"
         id="path1656-9-03" />
      <circle
         style="fill:#383938"
         cx="280.78201"
         cy="453.08801"
         r="1.197"
         id="circle1658-1-9" />
    </g>
    <g
       transform="matrix(1.9398187,0,0,1.9398187,-397.73696,-776.76682)"
       id="H13xpin-9-9-79">
      <path
         style="fill:#c0bfbf"
         inkscape:connector-curvature="0"
         d="m 280.782,451.892 c 0.661,0 1.197,0.536 1.197,1.196 h 1.196 c 0,-1.321 -1.071,-2.393 -2.393,-2.393 -1.321,0 -2.393,1.071 -2.393,2.393 h 1.196 c 0,-0.66 0.536,-1.196 1.197,-1.196 z"
         id="path1654-8-3-6" />
      <path
         style="fill:#e6e6e5"
         inkscape:connector-curvature="0"
         d="m 280.782,455.481 c 1.322,0 2.393,-1.071 2.393,-2.394 h -1.196 c 0,0.661 -0.536,1.197 -1.197,1.197 -0.661,0 -1.197,-0.536 -1.197,-1.197 h -1.196 c 0,1.323 1.071,2.394 2.393,2.394 z"
         id="path1656-9-6-3" />
      <circle
         style="fill:#383938"
         cx="280.78201"
         cy="453.08801"
         r="1.197"
         id="circle1658-1-5-8" />
    </g>
    <g
       transform="matrix(1.9398187,0,0,1.9398187,-427.73696,-758.28493)"
       id="H13xpin-9-8">
      <path
         style="fill:#c0bfbf"
         inkscape:connector-curvature="0"
         d="m 280.782,451.892 c 0.661,0 1.197,0.536 1.197,1.196 h 1.196 c 0,-1.321 -1.071,-2.393 -2.393,-2.393 -1.321,0 -2.393,1.071 -2.393,2.393 h 1.196 c 0,-0.66 0.536,-1.196 1.197,-1.196 z"
         id="path1654-8-6" />
      <path
         style="fill:#e6e6e5"
         inkscape:connector-curvature="0"
         d="m 280.782,455.481 c 1.322,0 2.393,-1.071 2.393,-2.394 h -1.196 c 0,0.661 -0.536,1.197 -1.197,1.197 -0.661,0 -1.197,-0.536 -1.197,-1.197 h -1.196 c 0,1.323 1.071,2.394 2.393,2.394 z"
         id="path1656-9-11" />
      <circle
         style="fill:#383938"
         cx="280.78201"
         cy="453.08801"
         r="1.197"
         id="circle1658-1-56" />
    </g>
    <g
       transform="matrix(1.9398187,0,0,1.9398187,-397.73696,-758.28223)"
       id="H13xpin-9-9-8">
      <path
         style="fill:#c0bfbf"
         inkscape:connector-curvature="0"
         d="m 280.782,451.892 c 0.661,0 1.197,0.536 1.197,1.196 h 1.196 c 0,-1.321 -1.071,-2.393 -2.393,-2.393 -1.321,0 -2.393,1.071 -2.393,2.393 h 1.196 c 0,-0.66 0.536,-1.196 1.197,-1.196 z"
         id="path1654-8-3-61" />
      <path
         style="fill:#e6e6e5"
         inkscape:connector-curvature="0"
         d="m 280.782,455.481 c 1.322,0 2.393,-1.071 2.393,-2.394 h -1.196 c 0,0.661 -0.536,1.197 -1.197,1.197 -0.661,0 -1.197,-0.536 -1.197,-1.197 h -1.196 c 0,1.323 1.071,2.394 2.393,2.394 z"
         id="path1656-9-6-74" />
      <circle
         style="fill:#383938"
         cx="280.78201"
         cy="453.08801"
         r="1.197"
         id="circle1658-1-5-10" />
    </g>
    <g
       transform="matrix(1.9398187,0,0,1.9398187,-427.73696,-740.52523)"
       id="H13xpin-9-93">
      <path
         style="fill:#c0bfbf"
         inkscape:connector-curvature="0"
         d="m 280.782,451.892 c 0.661,0 1.197,0.536 1.197,1.196 h 1.196 c 0,-1.321 -1.071,-2.393 -2.393,-2.393 -1.321,0 -2.393,1.071 -2.393,2.393 h 1.196 c 0,-0.66 0.536,-1.196 1.197,-1.196 z"
         id="path1654-8-08" />
      <path
         style="fill:#e6e6e5"
         inkscape:connector-curvature="0"
         d="m 280.782,455.481 c 1.322,0 2.393,-1.071 2.393,-2.394 h -1.196 c 0,0.661 -0.536,1.197 -1.197,1.197 -0.661,0 -1.197,-0.536 -1.197,-1.197 h -1.196 c 0,1.323 1.071,2.394 2.393,2.394 z"
         id="path1656-9-32" />
      <circle
         style="fill:#383938"
         cx="280.78201"
         cy="453.08801"
         r="1.197"
         id="circle1658-1-52" />
    </g>
    <g
       transform="matrix(1.9398187,0,0,1.9398187,-397.73696,-740.52253)"
       id="H13xpin-9-9-53">
      <path
         style="fill:#c0bfbf"
         inkscape:connector-curvature="0"
         d="m 280.782,451.892 c 0.661,0 1.197,0.536 1.197,1.196 h 1.196 c 0,-1.321 -1.071,-2.393 -2.393,-2.393 -1.321,0 -2.393,1.071 -2.393,2.393 h 1.196 c 0,-0.66 0.536,-1.196 1.197,-1.196 z"
         id="path1654-8-3-1" />
      <path
         style="fill:#e6e6e5"
         inkscape:connector-curvature="0"
         d="m 280.782,455.481 c 1.322,0 2.393,-1.071 2.393,-2.394 h -1.196 c 0,0.661 -0.536,1.197 -1.197,1.197 -0.661,0 -1.197,-0.536 -1.197,-1.197 h -1.196 c 0,1.323 1.071,2.394 2.393,2.394 z"
         id="path1656-9-6-43" />
      <circle
         style="fill:#383938"
         cx="280.78201"
         cy="453.08801"
         r="1.197"
         id="circle1658-1-5-34" />
    </g>
    <g
       transform="matrix(1.9398187,0,0,1.9398187,-427.73696,-719.86598)"
       id="H13xpin-9-95">
      <path
         style="fill:#c0bfbf"
         inkscape:connector-curvature="0"
         d="m 280.782,451.892 c 0.661,0 1.197,0.536 1.197,1.196 h 1.196 c 0,-1.321 -1.071,-2.393 -2.393,-2.393 -1.321,0 -2.393,1.071 -2.393,2.393 h 1.196 c 0,-0.66 0.536,-1.196 1.197,-1.196 z"
         id="path1654-8-8" />
      <path
         style="fill:#e6e6e5"
         inkscape:connector-curvature="0"
         d="m 280.782,455.481 c 1.322,0 2.393,-1.071 2.393,-2.394 h -1.196 c 0,0.661 -0.536,1.197 -1.197,1.197 -0.661,0 -1.197,-0.536 -1.197,-1.197 h -1.196 c 0,1.323 1.071,2.394 2.393,2.394 z"
         id="path1656-9-26" />
      <circle
         style="fill:#383938"
         cx="280.78201"
         cy="453.08801"
         r="1.197"
         id="circle1658-1-1" />
    </g>
    <g
       transform="matrix(1.9398187,0,0,1.9398187,-397.73696,-719.86328)"
       id="H13xpin-9-9-0">
      <path
         style="fill:#c0bfbf"
         inkscape:connector-curvature="0"
         d="m 280.782,451.892 c 0.661,0 1.197,0.536 1.197,1.196 h 1.196 c 0,-1.321 -1.071,-2.393 -2.393,-2.393 -1.321,0 -2.393,1.071 -2.393,2.393 h 1.196 c 0,-0.66 0.536,-1.196 1.197,-1.196 z"
         id="path1654-8-3-3" />
      <path
         style="fill:#e6e6e5"
         inkscape:connector-curvature="0"
         d="m 280.782,455.481 c 1.322,0 2.393,-1.071 2.393,-2.394 h -1.196 c 0,0.661 -0.536,1.197 -1.197,1.197 -0.661,0 -1.197,-0.536 -1.197,-1.197 h -1.196 c 0,1.323 1.071,2.394 2.393,2.394 z"
         id="path1656-9-6-01" />
      <circle
         style="fill:#383938"
         cx="280.78201"
         cy="453.08801"
         r="1.197"
         id="circle1658-1-5-4" />
    </g>
    <g
       transform="matrix(1.9398187,0,0,1.9398187,-427.73696,-701.74383)"
       id="H13xpin-9-22">
      <path
         style="fill:#c0bfbf"
         inkscape:connector-curvature="0"
         d="m 280.782,451.892 c 0.661,0 1.197,0.536 1.197,1.196 h 1.196 c 0,-1.321 -1.071,-2.393 -2.393,-2.393 -1.321,0 -2.393,1.071 -2.393,2.393 h 1.196 c 0,-0.66 0.536,-1.196 1.197,-1.196 z"
         id="path1654-8-87" />
      <path
         style="fill:#e6e6e5"
         inkscape:connector-curvature="0"
         d="m 280.782,455.481 c 1.322,0 2.393,-1.071 2.393,-2.394 h -1.196 c 0,0.661 -0.536,1.197 -1.197,1.197 -0.661,0 -1.197,-0.536 -1.197,-1.197 h -1.196 c 0,1.323 1.071,2.394 2.393,2.394 z"
         id="path1656-9-23" />
      <circle
         style="fill:#383938"
         cx="280.78201"
         cy="453.08801"
         r="1.197"
         id="circle1658-1-17" />
    </g>
    <g
       transform="matrix(1.9398187,0,0,1.9398187,-397.73696,-701.74113)"
       id="H13xpin-9-9-1">
      <path
         style="fill:#c0bfbf"
         inkscape:connector-curvature="0"
         d="m 280.782,451.892 c 0.661,0 1.197,0.536 1.197,1.196 h 1.196 c 0,-1.321 -1.071,-2.393 -2.393,-2.393 -1.321,0 -2.393,1.071 -2.393,2.393 h 1.196 c 0,-0.66 0.536,-1.196 1.197,-1.196 z"
         id="path1654-8-3-42" />
      <path
         style="fill:#e6e6e5"
         inkscape:connector-curvature="0"
         d="m 280.782,455.481 c 1.322,0 2.393,-1.071 2.393,-2.394 h -1.196 c 0,0.661 -0.536,1.197 -1.197,1.197 -0.661,0 -1.197,-0.536 -1.197,-1.197 h -1.196 c 0,1.323 1.071,2.394 2.393,2.394 z"
         id="path1656-9-6-50" />
      <circle
         style="fill:#383938"
         cx="280.78201"
         cy="453.08801"
         r="1.197"
         id="circle1658-1-5-44" />
    </g>
  </g>
</svg>
