<?xml version="1.0" encoding="UTF-8" standalone="no"?>
<!-- Created with Inkscape (http://www.inkscape.org/) -->

<svg
   xmlns:dc="http://purl.org/dc/elements/1.1/"
   xmlns:cc="http://creativecommons.org/ns#"
   xmlns:rdf="http://www.w3.org/1999/02/22-rdf-syntax-ns#"
   xmlns:svg="http://www.w3.org/2000/svg"
   xmlns="http://www.w3.org/2000/svg"
   xmlns:sodipodi="http://sodipodi.sourceforge.net/DTD/sodipodi-0.dtd"
   xmlns:inkscape="http://www.inkscape.org/namespaces/inkscape"
   width="21cm"
   height="29.700001cm"
   viewBox="0 0 210 297"
   version="1.1"
   id="svg8"
   inkscape:version="0.92.0 r15299"
   sodipodi:docname="fuse connector.svg">
  <defs
     id="defs2" />
  <sodipodi:namedview
     id="base"
     pagecolor="#ffffff"
     bordercolor="#666666"
     borderopacity="1.0"
     inkscape:pageopacity="0.0"
     inkscape:pageshadow="2"
     inkscape:zoom="0.94316065"
     inkscape:cx="349.36257"
     inkscape:cy="925.79134"
     inkscape:document-units="cm"
     inkscape:current-layer="layer1"
     showgrid="false"
     units="cm"
     showguides="false"
     inkscape:window-width="689"
     inkscape:window-height="427"
     inkscape:window-x="355"
     inkscape:window-y="200"
     inkscape:window-maximized="0" />
  <metadata
     id="metadata5">
    <rdf:RDF>
      <cc:Work
         rdf:about="">
        <dc:format>image/svg+xml</dc:format>
        <dc:type
           rdf:resource="http://purl.org/dc/dcmitype/StillImage" />
        <dc:title></dc:title>
      </cc:Work>
    </rdf:RDF>
  </metadata>
  <g
     inkscape:label="Layer 1"
     inkscape:groupmode="layer"
     id="layer1">
    <g
       id="g4713"
       transform="translate(140.50665,-49.89002)">
      <g
         id="H13xpin-9"
         transform="matrix(1.9398187,0,0,1.9398187,-600.02419,-772.71326)">
        <path
           id="path1654-8"
           d="m 280.782,451.892 c 0.661,0 1.197,0.536 1.197,1.196 h 1.196 c 0,-1.321 -1.071,-2.393 -2.393,-2.393 -1.321,0 -2.393,1.071 -2.393,2.393 h 1.196 c 0,-0.66 0.536,-1.196 1.197,-1.196 z"
           inkscape:connector-curvature="0"
           style="fill:#c0bfbf" />
        <path
           id="path1656-9"
           d="m 280.782,455.481 c 1.322,0 2.393,-1.071 2.393,-2.394 h -1.196 c 0,0.661 -0.536,1.197 -1.197,1.197 -0.661,0 -1.197,-0.536 -1.197,-1.197 h -1.196 c 0,1.323 1.071,2.394 2.393,2.394 z"
           inkscape:connector-curvature="0"
           style="fill:#e6e6e5" />
        <circle
           id="circle1658-1"
           r="1.197"
           cy="453.08801"
           cx="280.78201"
           style="fill:#383938" />
      </g>
      <g
         id="H13xpin-9-9"
         transform="matrix(1.9398187,0,0,1.9398187,-570.02419,-772.71056)">
        <path
           id="path1654-8-3"
           d="m 280.782,451.892 c 0.661,0 1.197,0.536 1.197,1.196 h 1.196 c 0,-1.321 -1.071,-2.393 -2.393,-2.393 -1.321,0 -2.393,1.071 -2.393,2.393 h 1.196 c 0,-0.66 0.536,-1.196 1.197,-1.196 z"
           inkscape:connector-curvature="0"
           style="fill:#c0bfbf" />
        <path
           id="path1656-9-6"
           d="m 280.782,455.481 c 1.322,0 2.393,-1.071 2.393,-2.394 h -1.196 c 0,0.661 -0.536,1.197 -1.197,1.197 -0.661,0 -1.197,-0.536 -1.197,-1.197 h -1.196 c 0,1.323 1.071,2.394 2.393,2.394 z"
           inkscape:connector-curvature="0"
           style="fill:#e6e6e5" />
        <circle
           id="circle1658-1-5"
           r="1.197"
           cy="453.08801"
           cx="280.78201"
           style="fill:#383938" />
      </g>
    </g>
  </g>
</svg>
