<?xml version="1.0" encoding="UTF-8" standalone="no"?>
<!-- Created with Inkscape (http://www.inkscape.org/) -->

<svg
   xmlns:dc="http://purl.org/dc/elements/1.1/"
   xmlns:cc="http://creativecommons.org/ns#"
   xmlns:rdf="http://www.w3.org/1999/02/22-rdf-syntax-ns#"
   xmlns:svg="http://www.w3.org/2000/svg"
   xmlns="http://www.w3.org/2000/svg"
   xmlns:sodipodi="http://sodipodi.sourceforge.net/DTD/sodipodi-0.dtd"
   xmlns:inkscape="http://www.inkscape.org/namespaces/inkscape"
   width="15mm"
   height="45mm"
   viewBox="0 0 15 45"
   version="1.1"
   id="svg4965"
   inkscape:version="0.92.1 r15371"
   sodipodi:docname="Ground Bar.svg">
  <defs
     id="defs4959" />
  <sodipodi:namedview
     id="base"
     pagecolor="#ffffff"
     bordercolor="#666666"
     borderopacity="1.0"
     inkscape:pageopacity="0.0"
     inkscape:pageshadow="2"
     inkscape:zoom="1.979899"
     inkscape:cx="62.486717"
     inkscape:cy="84.592404"
     inkscape:document-units="mm"
     inkscape:current-layer="layer2"
     showgrid="false"
     inkscape:window-width="1920"
     inkscape:window-height="1017"
     inkscape:window-x="-8"
     inkscape:window-y="-8"
     inkscape:window-maximized="1" />
  <metadata
     id="metadata4962">
    <rdf:RDF>
      <cc:Work
         rdf:about="">
        <dc:format>image/svg+xml</dc:format>
        <dc:type
           rdf:resource="http://purl.org/dc/dcmitype/StillImage" />
        <dc:title></dc:title>
      </cc:Work>
    </rdf:RDF>
  </metadata>
  <g
     inkscape:label="Layer 1"
     inkscape:groupmode="layer"
     id="layer1"
     transform="translate(0,-252)" />
  <g
     inkscape:groupmode="layer"
     id="layer2"
     inkscape:label="Layer 2"
     transform="translate(0,-252)">
    <g
       id="g5168"
       transform="matrix(-0.24305499,0,0,0.13138709,15.246593,254.46706)">
      <rect
         ry="3.449029"
         y="46.023808"
         x="20.410715"
         height="239.6369"
         width="24.190477"
         id="rect5148"
         style="fill:#00000d;fill-opacity:1;stroke:none;stroke-width:4.35699987;stroke-miterlimit:4;stroke-dasharray:none;stroke-opacity:1" />
      <path
         inkscape:connector-curvature="0"
         d="m 41.532946,154.84992 c -1.738249,0.87692 -18.485982,13.64568 -18.485982,13.64568 z m 2.642152,6.83461 a 11.669142,9.4502712 0 0 1 -11.669145,9.45027 11.669142,9.4502712 0 0 1 -11.669146,-9.45027 11.669142,9.4502712 0 0 1 11.669146,-9.45028 11.669142,9.4502712 0 0 1 11.669145,9.45028 z"
         style="fill:#8c8c8c;fill-opacity:1;stroke:#675c5f;stroke-width:3.40308166;stroke-linecap:butt;stroke-linejoin:miter;stroke-miterlimit:4;stroke-dasharray:none;stroke-opacity:1"
         id="path4780-2-8-5" />
      <path
         inkscape:connector-curvature="0"
         d="m 41.532944,120.83206 c -1.73825,0.87692 -18.48599,13.64567 -18.48599,13.64567 z m 2.64215,6.83461 a 11.669142,9.4502713 0 0 1 -11.66915,9.45026 11.669142,9.4502713 0 0 1 -11.66914,-9.45026 11.669142,9.4502713 0 0 1 11.66914,-9.45028 11.669142,9.4502713 0 0 1 11.66915,9.45028 z"
         style="fill:#8c8c8c;fill-opacity:1;stroke:#675c5f;stroke-width:3.40308189;stroke-linecap:butt;stroke-linejoin:miter;stroke-miterlimit:4;stroke-dasharray:none;stroke-opacity:1"
         id="path4780-2-8-5-25" />
      <path
         inkscape:connector-curvature="0"
         d="m 41.532938,222.12968 c -1.73824,0.87692 -18.48598,13.64568 -18.48598,13.64568 z m 2.64216,6.83461 a 11.669142,9.4502713 0 0 1 -11.66915,9.45027 11.669142,9.4502713 0 0 1 -11.669145,-9.45027 11.669142,9.4502713 0 0 1 11.669145,-9.45028 11.669142,9.4502713 0 0 1 11.66915,9.45028 z"
         style="fill:#8c8c8c;fill-opacity:1;stroke:#675c5f;stroke-width:3.40308189;stroke-linecap:butt;stroke-linejoin:miter;stroke-miterlimit:4;stroke-dasharray:none;stroke-opacity:1"
         id="path4780-2-8-5-7" />
      <path
         inkscape:connector-curvature="0"
         d="m 41.532945,187.35587 c -1.73825,0.87692 -18.48598,13.64568 -18.48598,13.64568 z m 2.64215,6.83461 a 11.669142,9.4502713 0 0 1 -11.66914,9.45027 11.669142,9.4502713 0 0 1 -11.66915,-9.45027 11.669142,9.4502713 0 0 1 11.66915,-9.45028 11.669142,9.4502713 0 0 1 11.66914,9.45028 z"
         style="fill:#8c8c8c;fill-opacity:1;stroke:#675c5f;stroke-width:3.40308189;stroke-linecap:butt;stroke-linejoin:miter;stroke-miterlimit:4;stroke-dasharray:none;stroke-opacity:1"
         id="path4780-2-8-5-8" />
      <path
         d="m 43.845237,264.11606 a 11.717261,12.473214 0 0 1 -11.150442,12.45861 11.717261,12.473214 0 0 1 -12.229241,-11.25325 11.717261,12.473214 0 0 1 9.967269,-13.54735 11.717261,12.473214 0 0 1 13.193569,9.94254"
         sodipodi:open="true"
         sodipodi:end="6.0896108"
         sodipodi:start="0"
         sodipodi:ry="12.473214"
         sodipodi:rx="11.717261"
         sodipodi:cy="264.11606"
         sodipodi:cx="32.127975"
         sodipodi:type="arc"
         id="path5128"
         style="fill:#8c8c8c;fill-opacity:1;stroke:none;stroke-width:4.35699987;stroke-miterlimit:4;stroke-dasharray:none;stroke-opacity:1" />
      <path
         d="M 43.467263,64.166664 A 11.717261,12.473214 0 0 1 32.316821,76.625275 11.717261,12.473214 0 0 1 20.08758,65.372028 a 11.717261,12.473214 0 0 1 9.967269,-13.547357 11.717261,12.473214 0 0 1 13.19357,9.942548"
         sodipodi:open="true"
         sodipodi:end="6.0896108"
         sodipodi:start="0"
         sodipodi:ry="12.473214"
         sodipodi:rx="11.717261"
         sodipodi:cy="64.166664"
         sodipodi:cx="31.750002"
         sodipodi:type="arc"
         id="path5128-8"
         style="fill:#8c8c8c;fill-opacity:1;stroke:none;stroke-width:4.35699987;stroke-miterlimit:4;stroke-dasharray:none;stroke-opacity:1" />
      <path
         inkscape:connector-curvature="0"
         d="m 41.532946,89.082061 c -1.738249,0.87692 -18.485982,13.645679 -18.485982,13.645679 z m 2.642152,6.83461 a 11.669142,9.4502713 0 0 1 -11.669145,9.450269 11.669142,9.4502713 0 0 1 -11.669146,-9.450269 11.669142,9.4502713 0 0 1 11.669146,-9.45028 11.669142,9.4502713 0 0 1 11.669145,9.45028 z"
         style="fill:#8c8c8c;fill-opacity:1;stroke:#675c5f;stroke-width:3.40308189;stroke-linecap:butt;stroke-linejoin:miter;stroke-miterlimit:4;stroke-dasharray:none;stroke-opacity:1"
         id="path4780-2-8-5-2" />
    </g>
  </g>
</svg>
