<?xml version="1.0" encoding="UTF-8" standalone="no"?>
<svg
   xmlns:dc="http://purl.org/dc/elements/1.1/"
   xmlns:cc="http://creativecommons.org/ns#"
   xmlns:rdf="http://www.w3.org/1999/02/22-rdf-syntax-ns#"
   xmlns:svg="http://www.w3.org/2000/svg"
   xmlns="http://www.w3.org/2000/svg"
   xmlns:sodipodi="http://sodipodi.sourceforge.net/DTD/sodipodi-0.dtd"
   xmlns:inkscape="http://www.inkscape.org/namespaces/inkscape"
   id="svg4566"
   version="1.1"
   viewBox="0 0 500 499.99999"
   height="50cm"
   width="50cm"
   sodipodi:docname="Switch BB.svg"
   inkscape:version="0.92.1 r15371">
  <sodipodi:namedview
     pagecolor="#ffffff"
     bordercolor="#666666"
     borderopacity="1"
     objecttolerance="10"
     gridtolerance="10"
     guidetolerance="10"
     inkscape:pageopacity="0"
     inkscape:pageshadow="2"
     inkscape:window-width="2560"
     inkscape:window-height="1351"
     id="namedview14"
     showgrid="false"
     inkscape:zoom="0.048832446"
     inkscape:cx="944.88189"
     inkscape:cy="2121.0687"
     inkscape:window-x="-11"
     inkscape:window-y="-11"
     inkscape:window-maximized="1"
     inkscape:current-layer="svg4566" />
  <defs
     id="defs4560" />
  <metadata
     id="metadata4563">
    <rdf:RDF>
      <cc:Work
         rdf:about="">
        <dc:format>image/svg+xml</dc:format>
        <dc:type
           rdf:resource="http://purl.org/dc/dcmitype/StillImage" />
        <dc:title />
      </cc:Work>
    </rdf:RDF>
  </metadata>
  <g
     transform="matrix(0.54249654,0,0,0.54249654,65.019964,163.539)"
     id="layer1">
    <ellipse
       ry="104.69941"
       rx="108.63634"
       cy="59.252991"
       cx="250.7554"
       id="path5111"
       style="fill:#808080;fill-opacity:1;stroke-width:0.30136764;stroke-miterlimit:4;stroke-dasharray:none" />
    <path
       d="m 251.09176,-21.547645 a 82.649551,81.732675 0 0 0 -81.86994,72.329952 c 0.14046,-0.100068 0.28115,-0.199988 0.40721,-0.31161 0.23232,-0.03065 0.46367,-0.07294 0.69556,-0.108519 -0.76705,-0.120312 -1.31497,-0.359365 -0.52244,-1.057818 0.11525,-0.101571 0.20953,-0.234807 0.34623,-0.30489 0.65567,-0.336142 1.03775,-0.365834 1.70015,-0.341066 0.652,-2.1e-5 1.30394,-5e-5 1.95595,0 0.6468,-1.1e-5 1.29366,-5.29e-4 1.94045,0 0.71034,0.0016 1.42082,6.6e-5 2.13114,-0.0036 0.53568,0.0016 1.07115,0.03435 1.60662,0.0083 0.33941,-0.03919 0.68463,-0.07913 1.02784,-0.06821 0.11441,0.0037 0.22833,0.01302 0.3421,0.02997 0.24628,0.03669 0.48839,0.100422 0.72761,0.169497 0.0659,0.01902 0.2209,0.04967 0.24339,0.08268 0.26664,-0.01185 0.52814,0.003 0.80719,0.06977 0.10842,0.02595 0.21184,0.06925 0.31781,0.10387 0.0663,0.02859 0.12889,0.06838 0.19895,0.08578 0.11624,0.02886 0.23363,0.05214 0.3514,0.0739 0.39158,-0.06144 0.77731,-0.117941 1.07797,-0.147278 0.12459,-0.01214 0.29251,-0.091 0.40721,-0.0708 0.0382,0.0067 0.0702,0.024 0.093,0.05891 0.0661,0.100978 0.11603,0.213384 0.15968,0.330213 0.0999,0.0087 0.16484,0.0136 0.34778,0.02739 0.08,0.02021 0.16041,0.03864 0.24081,0.05736 -0.15203,-0.09509 -0.37662,-0.128598 -0.53536,-0.218075 0.75486,0.135197 0.95917,0.184616 1.43143,0.502296 0.11204,0.04999 0.22278,0.102793 0.33383,0.154511 0.0599,0.02791 0.10755,0.08067 0.17002,0.10232 1.15745,0.401129 -0.15195,-0.222642 1.27279,0.532267 0.13237,0.133808 0.26503,0.267719 0.39739,0.401527 -0.0546,-0.0091 -0.19889,-0.06963 -0.16381,-0.02687 0.0256,0.03124 0.0907,0.05404 0.15089,0.0739 0.13869,0.01675 0.30805,0.04321 0.47129,0.0677 0.19604,-0.199739 0.46763,-0.320495 0.79014,-0.313158 0.38747,0.0088 0.84393,0.197676 1.31671,0.641302 0.88581,0.831181 2.5198,1.553075 2.73472,2.939873 0.0142,0.09174 0.0139,0.183475 0.008,0.275437 0.31875,0.242715 0.60309,0.657418 0.77308,1.280025 h 5.3e-4 c 0.12095,0.44301 0.24889,0.884052 0.3638,1.3286 0.18432,0.335258 0.24687,0.657068 0.21446,0.93741 0.012,0.06448 0.0273,0.12844 0.0372,0.193271 0.028,0.183329 0.12669,0.401497 0.0496,0.562239 0.01,0.116655 0.0212,0.230349 0.045,0.306441 0.0235,0.987493 0.39727,1.785829 0.26769,2.780194 -0.0429,0.443661 -0.007,0.892569 -0.002,1.337889 -0.003,0.611717 -0.005,1.223327 -0.004,1.835044 0.0435,0.460878 -0.0241,0.821531 -0.15089,1.17565 0.0165,0.893392 -0.0482,1.802077 -0.0894,2.70629 -0.15222,0.728848 0.14195,2.275999 -0.19379,2.933145 -0.5096,0.997373 -0.81892,1.087199 -1.31671,1.436608 -0.28499,0.807958 -0.69091,1.587632 -1.06712,2.313543 -0.16879,0.251804 -0.29284,0.540411 -0.50643,0.755518 -1.03,1.037272 -2.13022,1.409805 -3.47214,1.848987 -1.47731,0.4835 -0.84582,0.290777 -2.45153,0.714164 -0.5815,0.08112 -1.16136,0.186663 -1.6707,0.191214 -0.31329,0.07808 -0.63211,0.136075 -0.9462,0.211349 -0.99808,0.258022 -2.00545,0.242808 -3.0148,0.186558 -0.0452,-8e-5 -0.0636,1.32e-4 -0.10645,0 -0.2837,0.149701 -0.60645,0.247756 -0.85835,0.340016 -0.1901,0.07421 -0.37084,0.177668 -0.56999,0.222223 -0.48161,0.107712 -0.97372,0.163513 -1.46244,0.232013 -1.7571,0.246328 -3.26616,0.29517 -5.03225,0.234104 -0.68105,-0.04937 -1.1842,0 -1.71256,-0.117316 a 82.649551,81.732675 0 0 0 79.76519,61.373535 82.649551,81.732675 0 0 0 82.64974,-81.732987 82.649551,81.732675 0 0 0 -82.64974,-81.732479 z m -67.31321,78.402449 c -0.0767,0.0076 -0.15333,0.01418 -0.22996,0.02273 0.0625,0.01873 0.17764,0.0093 0.2651,-0.0057 -0.0117,-0.0057 -0.0234,-0.01125 -0.0351,-0.01707 z m 5.62757,9.610786 c -0.002,0.0029 -0.005,0.0074 -0.007,0.01032 -0.005,0.04046 -0.009,0.11057 0.005,0.25064 0.009,0.08805 0.001,-0.160708 0.002,-0.260958 z m -0.0734,0.116787 c -0.0249,0.03966 -0.038,0.05802 -0.0687,0.108532 0.005,-0.0037 0.012,-0.0061 0.0155,-0.01138 0.0272,-0.04218 0.0363,-0.06525 0.0532,-0.09716 z m -0.94309,1.890844 c -0.004,0 -0.007,0.03868 -0.009,0.05736 0.0114,0.02408 0.0285,0.04768 0.0605,0.07027 -0.0308,-0.08916 -0.0436,-0.129037 -0.0512,-0.127635 z m -1.19373,3.973407 c -0.0274,0.02794 -0.0405,0.04395 -0.0703,0.0739 0.13326,0.120518 0.0982,0.08919 0.0703,-0.0739 z m 3.59255,2.097537 c -0.0351,0.01958 -0.0563,0.03307 -0.0977,0.0553 0.003,0.03117 0.005,0.06263 0.004,0.09403 0.0303,-0.05051 0.0612,-0.100594 0.0935,-0.149331 z m -17.81131,0.529167 v 0 c -0.0152,0.01085 -0.0316,0.02302 -0.0465,0.0336 0.0606,0 0.12126,1.32e-4 0.1819,-0.0026 -0.0453,-0.01032 -0.0902,-0.02117 -0.13539,-0.03151 z m 1.23609,0.04445 c 0.0499,0.0026 0.15172,0.01191 0.21136,0.01587 5.3e-4,-0.0056 0.001,-0.01138 0.002,-0.01587 z m 3.75378,5.016738 c 0.0812,0.05218 0.29637,0.05641 0.22324,0.04495 -0.0606,-0.0095 -0.1463,-0.02905 -0.22324,-0.04495 z"
       style="fill:#d40000;fill-opacity:1;stroke-width:0.30479997;stroke-miterlimit:4;stroke-dasharray:none"
       id="path5162"
       inkscape:connector-curvature="0" />
    <ellipse
       ry="14.262936"
       rx="14.411366"
       cy="63.997402"
       cx="181.27551"
       id="path5262"
       style="fill:#00ff00;fill-opacity:1;stroke-width:0.30479997;stroke-miterlimit:4;stroke-dasharray:none" />
    <rect
       transform="matrix(0.79035939,-0.61264349,0.62905666,0.77735945,0,0)"
       y="133.87906"
       x="151.71631"
       height="136.79323"
       width="17.2593"
       id="rect5264"
       style="fill:#999999;fill-opacity:1;stroke-width:0.35144094;stroke-miterlimit:4;stroke-dasharray:none" />
    <rect
       y="-51.935635"
       x="221.62129"
       height="13.884075"
       width="63.395214"
       id="rect5266"
       style="fill:#000000;fill-opacity:1;stroke-width:0.30479997;stroke-miterlimit:4;stroke-dasharray:none" />
    <rect
       y="158.94513"
       x="221.09735"
       height="9.9546204"
       width="67.324669"
       id="rect5268"
       style="fill:#000000;fill-opacity:1;stroke-width:0.30479997;stroke-miterlimit:4;stroke-dasharray:none" />
    <rect
       y="-86.252876"
       x="245.19801"
       height="38.508663"
       width="17.027641"
       id="rect5270"
       style="fill:#8c8c8c;fill-opacity:1;stroke-width:0.30479997;stroke-miterlimit:4;stroke-dasharray:none" />
    <rect
       y="167.58995"
       x="247.55569"
       height="30.387789"
       width="13.360148"
       id="rect5272"
       style="fill:#8c8c8c;fill-opacity:1;stroke-width:0.30479997;stroke-miterlimit:4;stroke-dasharray:none" />
  </g>
</svg>
