<?xml version="1.0" encoding="UTF-8" standalone="no"?>
<!-- Created with Inkscape (http://www.inkscape.org/) -->

<svg
   xmlns:osb="http://www.openswatchbook.org/uri/2009/osb"
   xmlns:dc="http://purl.org/dc/elements/1.1/"
   xmlns:cc="http://creativecommons.org/ns#"
   xmlns:rdf="http://www.w3.org/1999/02/22-rdf-syntax-ns#"
   xmlns:svg="http://www.w3.org/2000/svg"
   xmlns="http://www.w3.org/2000/svg"
   xmlns:sodipodi="http://sodipodi.sourceforge.net/DTD/sodipodi-0.dtd"
   xmlns:inkscape="http://www.inkscape.org/namespaces/inkscape"
   width="11cm"
   height="17.700001cm"
   viewBox="0 0 110 177"
   version="1.1"
   id="svg4560"
   inkscape:version="0.92.1 r15371"
   sodipodi:docname="Solenoid Version 2.svg">
  <defs
     id="defs4554">
    <linearGradient
       id="linearGradient5233"
       osb:paint="solid">
      <stop
         style="stop-color:#000000;stop-opacity:1;"
         offset="0"
         id="stop5231" />
    </linearGradient>
    <linearGradient
       id="linearGradient5225"
       osb:paint="solid">
      <stop
         style="stop-color:#000000;stop-opacity:1;"
         offset="0"
         id="stop5223" />
    </linearGradient>
    <linearGradient
       id="linearGradient5219"
       osb:paint="solid">
      <stop
         style="stop-color:#bde326;stop-opacity:1;"
         offset="0"
         id="stop5217" />
    </linearGradient>
  </defs>
  <sodipodi:namedview
     id="base"
     pagecolor="#ffffff"
     bordercolor="#666666"
     borderopacity="1.0"
     inkscape:pageopacity="0.0"
     inkscape:pageshadow="2"
     inkscape:zoom="1.9"
     inkscape:cx="366.82477"
     inkscape:cy="398.40503"
     inkscape:document-units="cm"
     inkscape:current-layer="layer1"
     showgrid="false"
     units="cm"
     inkscape:window-width="2560"
     inkscape:window-height="1351"
     inkscape:window-x="-11"
     inkscape:window-y="-11"
     inkscape:window-maximized="1" />
  <metadata
     id="metadata4557">
    <rdf:RDF>
      <cc:Work
         rdf:about="">
        <dc:format>image/svg+xml</dc:format>
        <dc:type
           rdf:resource="http://purl.org/dc/dcmitype/StillImage" />
        <dc:title></dc:title>
      </cc:Work>
    </rdf:RDF>
  </metadata>
  <g
     inkscape:label="Layer 1"
     inkscape:groupmode="layer"
     id="layer1"
     transform="translate(0,-120.00018)">
    <g
       id="g958"
       transform="matrix(0.26458333,0,0,0.26458333,-13.769719,22.835805)">
      <rect
         y="477.97049"
         x="202.43903"
         height="379.26828"
         width="251.21951"
         id="rect2993"
         style="fill:#333333;stroke-width:1.14795327" />
      <ellipse
         transform="matrix(0.96774194,0,0,0.94838709,8.8512975,354.6342)"
         id="path2995"
         style="fill:#000000"
         cx="331.09756"
         cy="140.97845"
         rx="132.31708"
         ry="94.512192" />
      <ellipse
         ry="89.63414"
         rx="126.82927"
         cy="870.65344"
         cx="327.26828"
         id="path2995-1"
         style="fill:#000000;stroke-width:0.95344275" />
      <path
         sodipodi:nodetypes="ccccc"
         inkscape:connector-curvature="0"
         id="path3025"
         d="m 225.09262,614.24406 c 65.88493,23.23938 136.08723,24.25515 211.44707,-1.27718 L 438.31657,729.19 c -66.99877,39.44689 -136.15712,41.83941 -207.89335,0 z"
         style="fill:none;stroke:#000000;stroke-width:1.23528397px;stroke-linecap:butt;stroke-linejoin:miter;stroke-opacity:1" />
      <path
         transform="translate(0,343.69935)"
         inkscape:connector-curvature="0"
         id="path3027"
         d="m 307.08719,412.57398 c -12.25697,-2.05249 -22.0526,-4.63442 -35.66105,-9.39951 -10.9779,-3.844 -33.20795,-14.11508 -37.4651,-17.31023 -2.24626,-1.68589 -2.55561,-5.22034 -4.99868,-57.11094 -1.43233,-30.42261 -2.41611,-55.53914 -2.18618,-55.81451 0.22993,-0.27537 6.04641,1.19179 12.92551,3.26036 58.47144,17.58259 123.97161,16.87475 184.5851,-1.99474 l 11.10203,-3.45616 0.88411,56.48983 c 0.48626,31.0694 0.58414,56.97516 0.21753,57.56835 -1.1658,1.88629 -27.76361,14.44085 -39.15937,18.4838 -21.5344,7.63991 -34.38473,9.93376 -58.53658,10.44908 -14.75818,0.3149 -25.14813,-0.0669 -31.70732,-1.16533 z"
         style="fill:#ffffff" />
      <g
         transform="translate(264.3332,-188.9091)"
         id="g877">
        <path
           style="fill:none;stroke:#000000;stroke-width:0.72915858px;stroke-linecap:butt;stroke-linejoin:miter;stroke-opacity:1"
           d="m 69.405229,835.09699 -45.350107,41.79323 27.565751,0.88922 0.889218,41.79323 35.568709,-0.88922 -0.889216,-41.79323 22.230436,0.88922 z"
           id="path818"
           inkscape:connector-curvature="0" />
        <path
           style="opacity:0.52000002;fill:#8c8c8c;fill-opacity:1;stroke-width:1.21951222"
           d="m 87.671276,558.45979 c 0.05852,-1.42067 0.347488,-1.70964 0.736788,-0.73679 0.352282,0.88033 0.308957,1.93216 -0.09628,2.3374 -0.405234,0.40523 -0.693464,-0.31504 -0.640511,-1.60061 z"
           id="path820"
           inkscape:connector-curvature="0"
           transform="translate(0,343.69935)" />
        <path
           style="opacity:0.52000002;fill:#000000;fill-opacity:1;stroke-width:1.21951222"
           d="m 53.047681,554.73757 c -0.419458,-11.158 -0.997453,-20.52207 -1.284434,-20.80905 -0.28698,-0.28698 -5.970581,-0.89856 -12.630224,-1.35908 l -12.108442,-0.8373 20.593539,-18.90243 c 11.326448,-10.39635 20.983231,-19.0435 21.45952,-19.21591 0.750177,-0.27155 10.048561,9.3459 32.13753,33.2403 l 5.63683,6.09756 -10.407658,-0.43657 -10.407662,-0.43656 0.538488,20.69715 0.538487,20.69716 -10.932286,0.77599 c -6.012756,0.4268 -13.506003,0.776 -16.651661,0.776 h -5.719375 z"
           id="path822"
           inkscape:connector-curvature="0"
           transform="translate(0,343.69935)" />
        <path
           style="opacity:0.52000002;fill:#000000;fill-opacity:1;stroke-width:1.21951222"
           d="m 54.586025,574.70834 c -0.03418,-0.1613 -0.504811,-9.22427 -1.045848,-20.13993 -0.541038,-10.91566 -1.310365,-20.17332 -1.709616,-20.57257 -0.39925,-0.39925 -5.50956,-1.21078 -11.356243,-1.8034 -5.846684,-0.59262 -10.795494,-1.24265 -10.997356,-1.44451 -0.451587,-0.45159 38.013762,-35.41046 39.511582,-35.90973 0.919906,-0.30664 29.233978,28.91488 34.406606,35.50931 1.71361,2.18462 1.40217,2.25644 -7.932893,1.82927 l -9.716527,-0.44464 0.453247,20.36636 0.453246,20.36636 -2.892271,0.59236 c -3.193444,0.65404 -29.074822,2.11882 -29.173927,1.65112 z"
           id="path824"
           inkscape:connector-curvature="0"
           transform="translate(0,343.69935)" />
        <path
           style="opacity:0.52000002;fill:#000000;fill-opacity:1;stroke-width:1.21951222"
           d="m 54.066381,556.26873 c -0.482159,-9.64513 -1.523162,-18.8372 -2.31334,-20.42683 -1.254464,-2.52366 -2.740769,-3.04492 -11.718418,-4.10976 l -10.281732,-1.21951 18.065592,-16.46341 c 9.936077,-9.05488 18.949603,-16.96909 20.030061,-17.58715 1.565047,-0.89524 5.381879,2.42663 18.772291,16.33795 9.244303,9.60392 16.807825,17.97654 16.807825,18.60583 0,0.6884 -3.693893,0.798 -9.273502,0.27515 l -9.273498,-0.869 0.884751,20.69953 0.884751,20.69952 -6.550277,0.78653 c -3.602652,0.4326 -10.73698,0.7913 -15.854063,0.79714 l -9.303787,0.0106 z"
           id="path826"
           inkscape:connector-curvature="0"
           transform="translate(0,343.69935)" />
        <path
           style="opacity:0.52000002;fill:#000000;fill-opacity:1;stroke-width:1.21951222"
           d="m 54.199486,556.53752 c -1.09214,-22.87846 -1.314433,-23.2918 -13.2773,-24.6888 -5.194612,-0.60661 -9.444748,-1.46292 -9.444748,-1.90291 0,-0.43999 7.006706,-7.07782 15.570457,-14.75073 23.014938,-20.62081 20.543611,-18.88341 24.130073,-16.96399 3.512666,1.87992 29.488982,29.2346 30.052702,31.64737 0.27871,1.1929 -1.688225,1.51513 -8.057221,1.31996 l -8.425941,-0.25821 0.811545,20.64321 0.811547,20.64321 -9.337895,0.78934 c -5.135843,0.43414 -12.188875,0.78935 -15.673404,0.78935 h -6.335509 z"
           id="path828"
           inkscape:connector-curvature="0"
           transform="translate(0,343.69935)" />
        <path
           style="opacity:0.52000002;fill:#000000;fill-opacity:1;stroke-width:1.21951222"
           d="m 54.594618,563.74434 c -0.08321,-15.63375 -1.825672,-27.97704 -4.193867,-29.70871 -1.121337,-0.81994 -4.877445,-1.85055 -8.346907,-2.29023 -11.523719,-1.46041 -11.480077,-1.28385 -2.389154,-9.6662 17.565422,-16.19632 27.840349,-25.04863 29.105096,-25.07534 1.699734,-0.0359 32.219844,31.0169 32.219844,32.78221 0,0.83491 -3.045705,1.33632 -8.117178,1.33632 h -8.117179 l 0.738407,20.55347 0.738409,20.55348 -11.101259,0.78799 c -6.105691,0.43339 -13.212073,0.78799 -15.79196,0.78799 h -4.690701 z"
           id="path830"
           inkscape:connector-curvature="0"
           transform="translate(0,343.69935)" />
        <path
           style="opacity:0.52000002;fill:#000000;fill-opacity:1;stroke-width:1.21951222"
           d="m 54.608268,563.13458 c -0.05816,-15.55284 -1.803255,-27.34091 -4.319962,-29.18117 -1.151287,-0.84184 -5.318211,-1.89548 -9.259834,-2.34143 -3.941623,-0.44594 -7.425838,-1.23028 -7.742699,-1.74297 -0.620008,-1.0032 16.205695,-17.33236 27.811818,-26.99108 5.520887,-4.59452 7.574477,-5.66163 9.210521,-4.78604 2.984589,1.5973 30.681518,30.29705 30.681518,31.7924 0,0.71378 -3.437479,1.2381 -8.117178,1.2381 h -8.117179 l 0.738407,20.55347 0.738409,20.55348 -11.101259,0.78799 c -6.105691,0.43339 -13.212073,0.78799 -15.79196,0.78799 h -4.690701 z"
           id="path832"
           inkscape:connector-curvature="0"
           transform="translate(0,343.69935)" />
        <path
           style="opacity:0.52000002;fill:#000000;fill-opacity:1;stroke-width:1.21951222"
           d="m 54.610516,563.74434 c -0.05554,-14.8406 -2.008696,-28.06701 -4.406143,-29.83761 -1.105123,-0.81617 -5.234278,-1.8488 -9.175901,-2.29475 -3.941623,-0.44594 -7.425838,-1.23028 -7.742699,-1.74297 -0.620008,-1.0032 16.205695,-17.33236 27.811818,-26.99108 5.520887,-4.59452 7.574477,-5.66163 9.210521,-4.78604 2.984589,1.5973 30.681518,30.29705 30.681518,31.7924 0,0.71381 -3.437996,1.2381 -8.118778,1.2381 H 84.75207 l 0.775909,20.55092 0.775909,20.55093 -11.137158,0.79054 c -6.125436,0.43479 -13.247973,0.79054 -15.82786,0.79054 h -4.690701 z"
           id="path834"
           inkscape:connector-curvature="0"
           transform="translate(0,343.69935)" />
        <path
           style="opacity:0.52000002;fill:#000000;fill-opacity:1;stroke-width:1.21951222"
           d="m 54.242416,557.46058 c -0.767835,-16.01015 -2.032664,-22.39139 -4.774032,-24.08565 -0.752765,-0.46523 -4.560881,-1.21638 -8.46248,-1.6692 -3.901601,-0.45283 -7.364364,-1.26108 -7.695031,-1.79611 -0.640618,-1.03654 15.983526,-17.20897 27.786718,-27.03169 5.520887,-4.59452 7.574477,-5.66163 9.210521,-4.78604 2.984589,1.5973 30.681518,30.29705 30.681518,31.7924 0,0.71379 -3.437575,1.2381 -8.117479,1.2381 H 84.75467 l 0.807897,20.55038 0.807895,20.55037 -10.068463,0.78378 c -5.537655,0.43108 -12.590093,0.78707 -15.672085,0.79109 l -5.603619,0.007 z"
           id="path836"
           inkscape:connector-curvature="0"
           transform="translate(0,343.69935)" />
        <path
           style="opacity:0.52000002;fill:#000000;fill-opacity:1;stroke-width:1.21951222"
           d="m 54.242416,557.46058 c -0.767835,-16.01015 -2.032664,-22.39139 -4.774032,-24.08565 -0.752765,-0.46523 -4.560881,-1.21638 -8.46248,-1.6692 -3.901601,-0.45283 -7.358215,-1.25113 -7.681365,-1.774 -0.662644,-1.07218 15.527146,-16.90147 27.186224,-26.58086 5.997811,-4.9794 8.155573,-6.13764 9.797349,-5.25898 2.984589,1.5973 30.681518,30.29705 30.681518,31.7924 0,0.71372 -3.436206,1.2381 -8.113241,1.2381 h -8.113244 l 0.834189,20.54955 0.834188,20.54954 -9.368356,0.79192 c -5.152597,0.43555 -12.218772,0.79192 -15.702614,0.79192 h -6.334257 z"
           id="path838"
           inkscape:connector-curvature="0"
           transform="translate(0,343.69935)" />
        <path
           style="opacity:0.52000002;fill:#000000;fill-opacity:1;stroke-width:1.21951222"
           d="m 54.626503,566.18336 c -0.03847,-13.53378 -2.154843,-29.09104 -4.276387,-31.43532 -1.248196,-1.37924 -4.650986,-2.49761 -9.20888,-3.02661 -3.976033,-0.46147 -7.493547,-1.26683 -7.816697,-1.7897 -0.662644,-1.07218 15.527146,-16.90147 27.186224,-26.58086 5.928125,-4.92155 8.16519,-6.13125 9.756098,-5.27565 3.08907,1.66132 30.722769,30.19664 30.722769,31.72518 0,0.81688 -3.09325,1.32199 -8.095852,1.32199 h -8.095855 l 0.869371,20.5469 0.86937,20.5469 -8.322296,0.78589 c -4.577263,0.43224 -11.752174,0.7898 -15.944248,0.79457 l -7.621951,0.009 z"
           id="path840"
           inkscape:connector-curvature="0"
           transform="translate(0,343.69935)" />
        <path
           style="opacity:0.52000002;fill:#000000;fill-opacity:1;stroke-width:1.21951222"
           d="m 54.626503,566.18336 c -0.01192,-4.19207 -0.538795,-12.56097 -1.170841,-18.59756 -1.355276,-12.94404 -2.634859,-14.52686 -12.767221,-15.79281 -3.703444,-0.46272 -7.011724,-1.29142 -7.351734,-1.84157 -0.6849,-1.10819 19.254701,-20.57281 28.821431,-28.13488 4.567896,-3.61071 6.611487,-4.54667 8.136478,-3.72647 3.0697,1.65102 30.695014,30.19011 30.695014,31.71033 0,0.81667 -3.089539,1.32199 -8.082674,1.32199 H 84.82428 l 0.878198,20.54621 0.878199,20.54621 -7.60856,0.79525 c -4.184709,0.43739 -11.369522,0.79526 -15.966254,0.79526 h -8.357694 z"
           id="path842"
           inkscape:connector-curvature="0"
           transform="translate(0,343.69935)" />
        <path
           style="opacity:0.52000002;fill:#000000;fill-opacity:1;stroke-width:1.21951222"
           d="m 54.177799,558.86629 c -0.951011,-16.9877 -2.353381,-23.56162 -5.363733,-25.14373 -1.150999,-0.60491 -4.97321,-1.48883 -8.493803,-1.96426 -3.520592,-0.47542 -6.678344,-1.31304 -7.017225,-1.86136 -0.720642,-1.16602 24.425326,-25.24571 31.4402,-30.10702 l 4.788479,-3.31842 15.728958,15.97469 c 8.650927,8.78607 15.728955,16.58252 15.728955,17.32544 0,0.85154 -2.974179,1.35076 -8.047351,1.35076 h -8.047352 l 0.878041,20.54253 0.878042,20.54254 -7.643727,0.79893 c -4.204049,0.43941 -11.322349,0.79893 -15.818444,0.79893 h -8.174717 z"
           id="path844"
           inkscape:connector-curvature="0"
           transform="translate(0,343.69935)" />
        <path
           style="opacity:0.52000002;fill:#000000;fill-opacity:1;stroke-width:1.21951222"
           d="M 54.147044,558.86629 C 53.179449,541.7931 51.8006,535.29215 48.814066,533.72256 c -1.150999,-0.60491 -4.97321,-1.48883 -8.493803,-1.96426 -3.520592,-0.47542 -6.676379,-1.30986 -7.01286,-1.8543 -0.737213,-1.19283 24.066641,-25.00722 31.182261,-29.93835 l 5.042053,-3.49415 15.728958,15.97469 c 8.650927,8.78607 15.728955,16.58252 15.728955,17.32544 0,0.85154 -2.974179,1.35076 -8.047351,1.35076 h -8.047352 l 0.878118,20.54433 0.878117,20.54433 -6.550277,0.78653 c -3.602652,0.4326 -10.725584,0.7913 -15.828736,0.79714 l -9.27846,0.0106 z"
           id="path846"
           inkscape:connector-curvature="0"
           transform="translate(0,343.69935)" />
        <path
           style="opacity:0.52000002;fill:#000000;fill-opacity:1;stroke-width:1.21951222"
           d="m 54.095831,559.30043 c -1.014941,-17.00498 -2.24224,-23.31073 -4.917785,-25.26714 -1.070107,-0.78248 -4.933084,-1.79594 -8.584394,-2.25215 -3.651309,-0.4562 -6.922084,-1.28791 -7.268388,-1.84824 -0.750539,-1.21439 23.955886,-24.97175 31.1644,-29.96725 l 5.042053,-3.49415 15.728958,15.97469 c 8.650927,8.78607 15.728955,16.58252 15.728955,17.32544 0,0.85116 -2.96824,1.35076 -8.025235,1.35076 h -8.025238 l 0.869196,20.54277 0.869196,20.54277 -6.56347,0.78809 c -3.609909,0.43345 -10.746007,0.79286 -15.857996,0.7987 l -9.294527,0.0106 z"
           id="path848"
           inkscape:connector-curvature="0"
           transform="translate(0,343.69935)" />
        <path
           style="opacity:0.52000002;fill:#000000;fill-opacity:1;stroke-width:1.21951222"
           d="m 54.082902,559.47605 c -0.900122,-15.03796 -2.180072,-23.05022 -3.967845,-24.83799 -0.587183,-0.58719 -4.334883,-1.66283 -8.328222,-2.39031 -3.993339,-0.72749 -7.701985,-1.74711 -8.241435,-2.26583 -1.118049,-1.07508 24.171353,-25.62207 31.271196,-30.35318 l 4.680623,-3.11902 15.746206,15.87384 c 8.660415,8.73061 15.746205,16.51846 15.746205,17.30633 0,0.95141 -2.686758,1.4325 -8.000185,1.4325 h -8.000188 l 0.854455,20.54246 0.854455,20.54246 -5.829354,0.799 c -3.206145,0.43945 -10.351596,0.79901 -15.878782,0.79901 H 54.940605 Z"
           id="path850"
           inkscape:connector-curvature="0"
           transform="translate(0,343.69935)" />
        <path
           style="opacity:0.52000002;fill:#000000;fill-opacity:1;stroke-width:1.21951222"
           d="m 54.082902,559.47605 c -0.900122,-15.03796 -2.180072,-23.05022 -3.967845,-24.83799 -0.587183,-0.58719 -4.334883,-1.66283 -8.328222,-2.39031 -3.993339,-0.72749 -7.701985,-1.74711 -8.241435,-2.26583 -1.118049,-1.07508 24.171353,-25.62207 31.271196,-30.35318 l 4.680623,-3.11902 15.746206,15.87384 c 8.660415,8.73061 15.746205,16.51846 15.746205,17.30633 0,0.9509 -2.680212,1.4325 -7.972239,1.4325 h -7.972242 l 0.833861,20.54145 0.833859,20.54146 -5.836705,0.80001 c -3.210187,0.44 -10.358947,0.80001 -15.886133,0.80001 H 54.940605 Z"
           id="path852"
           inkscape:connector-curvature="0"
           transform="translate(0,343.69935)" />
        <path
           style="opacity:0.52000002;fill:#000000;fill-opacity:1;stroke-width:1.21951222"
           d="m 54.125088,560.69556 c -0.447935,-7.21037 -1.38196,-16.02166 -2.075614,-19.58066 -1.391143,-7.13767 -2.289479,-7.81529 -12.311904,-9.287 -3.170342,-0.46554 -6.039661,-1.29204 -6.376265,-1.83668 -1.108942,-1.79431 32.458972,-33.01517 35.497106,-33.01517 1.663757,0 32.131219,31.03215 32.131219,32.72675 0,0.93445 -2.713967,1.41959 -7.941444,1.41959 h -7.941445 l 0.807583,20.54241 0.807583,20.54241 -4.756382,0.78563 c -2.616008,0.4321 -9.767047,0.79167 -15.891196,0.79905 l -11.134816,0.0134 z"
           id="path854"
           inkscape:connector-curvature="0"
           transform="translate(0,343.69935)" />
      </g>
    </g>
    <ellipse
       style="opacity:0.52000002;fill:#8c8c8c;fill-opacity:1;stroke-width:0.27889532"
       id="path879"
       cx="97.064888"
       cy="151.88016"
       rx="5.3239331"
       ry="4.8399396" />
    <ellipse
       style="opacity:0.52000002;fill:#8c8c8c;fill-opacity:1;stroke-width:0.27889532"
       id="path879-9"
       cx="72.703842"
       cy="136.06967"
       rx="5.3239331"
       ry="4.8399396" />
    <ellipse
       style="opacity:0.52000002;fill:#8c8c8c;fill-opacity:1;stroke-width:0.27889532"
       id="path879-6"
       cx="72.703842"
       cy="165.75462"
       rx="5.3239331"
       ry="4.8399396" />
    <ellipse
       style="opacity:0.52000002;fill:#8c8c8c;fill-opacity:1;stroke-width:0.27889532"
       id="path879-0"
       cx="50.762791"
       cy="151.88014"
       rx="5.3239331"
       ry="4.8399396" />
    <ellipse
       style="opacity:0.52000002;fill:#8c8c8c;fill-opacity:1;stroke-width:0.27889532"
       id="path879-6-3"
       cx="54.957401"
       cy="254.80949"
       rx="5.3239331"
       ry="4.8399396" />
    <ellipse
       style="opacity:0.52000002;fill:#8c8c8c;fill-opacity:1;stroke-width:0.27889532"
       id="path879-6-1"
       cx="93.031593"
       cy="254.80949"
       rx="5.3239331"
       ry="4.8399396" />
    <rect
       style="opacity:0.73400005;fill:#e6e6e6;fill-opacity:1;stroke-width:3.0127759;stroke-miterlimit:4;stroke-dasharray:none"
       id="rect5239"
       width="35.250488"
       height="170.71391"
       x="1.7524065"
       y="124.48893"
       ry="1.3329437" />
    <rect
       style="opacity:0.73400005;fill:#333333;fill-opacity:1;stroke-width:3.77515602;stroke-miterlimit:4;stroke-dasharray:none"
       id="rect5241"
       width="10.054626"
       height="10.215294"
       x="5.9839778"
       y="131.65282"
       ry="2.1407886" />
    <rect
       style="opacity:0.73400005;fill:#333333;fill-opacity:1;stroke-width:3.77515602;stroke-miterlimit:4;stroke-dasharray:none"
       id="rect5241-4"
       width="10.054626"
       height="10.215294"
       x="23.404211"
       y="131.65282"
       ry="2.1407886" />
    <rect
       style="opacity:0.73400005;fill:#333333;fill-opacity:1;stroke-width:3.77515602;stroke-miterlimit:4;stroke-dasharray:none"
       id="rect5241-8"
       width="10.054626"
       height="10.215294"
       x="5.9839778"
       y="149.6568"
       ry="2.1407886" />
    <rect
       style="opacity:0.73400005;fill:#333333;fill-opacity:1;stroke-width:3.77515602;stroke-miterlimit:4;stroke-dasharray:none"
       id="rect5241-4-5"
       width="10.054626"
       height="10.215294"
       x="23.404211"
       y="149.6568"
       ry="2.1407886" />
    <rect
       style="opacity:0.73400005;fill:#333333;fill-opacity:1;stroke-width:3.77515602;stroke-miterlimit:4;stroke-dasharray:none"
       id="rect5241-3"
       width="10.054626"
       height="10.215294"
       x="5.9839778"
       y="167.66083"
       ry="2.1407886" />
    <rect
       style="opacity:0.73400005;fill:#333333;fill-opacity:1;stroke-width:3.77515602;stroke-miterlimit:4;stroke-dasharray:none"
       id="rect5241-4-7"
       width="10.054626"
       height="10.215294"
       x="23.404211"
       y="167.66083"
       ry="2.1407886" />
    <rect
       style="opacity:0.73400005;fill:#333333;fill-opacity:1;stroke-width:3.77515602;stroke-miterlimit:4;stroke-dasharray:none"
       id="rect5241-0"
       width="10.054626"
       height="10.215294"
       x="5.9839778"
       y="185.66484"
       ry="2.1407886" />
    <rect
       style="opacity:0.73400005;fill:#333333;fill-opacity:1;stroke-width:3.77515602;stroke-miterlimit:4;stroke-dasharray:none"
       id="rect5241-4-8"
       width="10.054626"
       height="10.215294"
       x="23.404211"
       y="185.66484"
       ry="2.1407886" />
    <rect
       style="opacity:0.73400005;fill:#333333;fill-opacity:1;stroke-width:3.77515602;stroke-miterlimit:4;stroke-dasharray:none"
       id="rect5241-44"
       width="10.054626"
       height="10.215294"
       x="5.9839778"
       y="221.67285"
       ry="2.1407886" />
    <rect
       style="opacity:0.73400005;fill:#333333;fill-opacity:1;stroke-width:3.77515602;stroke-miterlimit:4;stroke-dasharray:none"
       id="rect5241-4-2"
       width="10.054626"
       height="10.215294"
       x="23.404211"
       y="221.67285"
       ry="2.1407886" />
    <rect
       style="opacity:0.73400005;fill:#333333;fill-opacity:1;stroke-width:3.77515602;stroke-miterlimit:4;stroke-dasharray:none"
       id="rect5241-09"
       width="10.054626"
       height="10.215294"
       x="5.9839778"
       y="257.68085"
       ry="2.1407886" />
    <rect
       style="opacity:0.73400005;fill:#333333;fill-opacity:1;stroke-width:3.77515602;stroke-miterlimit:4;stroke-dasharray:none"
       id="rect5241-4-77"
       width="10.054626"
       height="10.215294"
       x="23.404211"
       y="257.68085"
       ry="2.1407886" />
    <rect
       style="opacity:0.73400005;fill:#333333;fill-opacity:1;stroke-width:3.77515602;stroke-miterlimit:4;stroke-dasharray:none"
       id="rect5241-1"
       width="10.054626"
       height="10.215294"
       x="5.9839778"
       y="239.67685"
       ry="2.1407886" />
    <rect
       style="opacity:0.73400005;fill:#333333;fill-opacity:1;stroke-width:3.77515602;stroke-miterlimit:4;stroke-dasharray:none"
       id="rect5241-4-4"
       width="10.054626"
       height="10.215294"
       x="23.404211"
       y="239.67685"
       ry="2.1407886" />
    <rect
       style="opacity:0.73400005;fill:#333333;fill-opacity:1;stroke-width:3.77515602;stroke-miterlimit:4;stroke-dasharray:none"
       id="rect5241-87"
       width="10.054626"
       height="10.215294"
       x="5.9839778"
       y="203.66884"
       ry="2.1407886" />
    <rect
       style="opacity:0.73400005;fill:#333333;fill-opacity:1;stroke-width:3.77515602;stroke-miterlimit:4;stroke-dasharray:none"
       id="rect5241-4-81"
       width="10.054626"
       height="10.215294"
       x="23.404211"
       y="203.66884"
       ry="2.1407886" />
    <rect
       style="opacity:0.73400005;fill:#333333;fill-opacity:1;stroke-width:3.77515602;stroke-miterlimit:4;stroke-dasharray:none"
       id="rect5241-48"
       width="10.054626"
       height="10.215294"
       x="5.9839778"
       y="275.68491"
       ry="2.1407886" />
    <rect
       style="opacity:0.73400005;fill:#333333;fill-opacity:1;stroke-width:3.77515602;stroke-miterlimit:4;stroke-dasharray:none"
       id="rect5241-4-0"
       width="10.054626"
       height="10.215294"
       x="23.404211"
       y="275.68491"
       ry="2.1407886" />
  </g>
</svg>
